<svg width="51" height="52" viewBox="0 0 51 52" fill="none" xmlns="http://www.w3.org/2000/svg">
<path d="M25.4258 51.2245C39.2329 51.2245 50.4258 40.0316 50.4258 26.2245C50.4258 12.4174 39.2329 1.22449 25.4258 1.22449C11.6187 1.22449 0.425781 12.4174 0.425781 26.2245C0.425781 40.0316 11.6187 51.2245 25.4258 51.2245Z" fill="#F0F0F0"/>
<path d="M25.4266 1.22449C15.515 1.22449 6.95097 6.99255 2.90723 15.355H47.9458C43.9021 6.99255 35.338 1.22449 25.4266 1.22449Z" fill="#338AF3"/>
<path d="M25.4266 51.2245C35.338 51.2245 43.9021 45.4564 47.9459 37.094H2.90723C6.95097 45.4564 15.515 51.2245 25.4266 51.2245Z" fill="#338AF3"/>
<path d="M32.8984 26.2243L29.8452 27.6605L31.4711 30.6175L28.1557 29.9832L27.7355 33.3324L25.4263 30.8691L23.1169 33.3324L22.6969 29.9832L19.3814 30.6174L21.0072 27.6604L17.9541 26.2243L21.0073 24.7881L19.3814 21.8312L22.6968 22.4654L23.117 19.1162L25.4263 21.5795L27.7356 19.1162L28.1557 22.4654L31.4712 21.8312L29.8453 24.7882L32.8984 26.2243Z" fill="#FFDA44"/>
</svg>
