<svg width="463" height="293" viewBox="0 0 463 293" fill="none" xmlns="http://www.w3.org/2000/svg">
<path d="M137.64 232.042C137.598 232.056 137.598 232.056 137.581 232.14C137.622 232.126 137.64 232.042 137.64 232.042Z" fill="#15B7DC"/>
<path d="M164.778 234.445L164.462 234.473C164.653 234.487 164.737 234.459 164.778 234.445Z" fill="#15B7DC"/>
<path d="M121.199 229.53C120.983 229.444 120.641 229.399 120.083 229.268C120.474 229.456 120.815 229.5 121.199 229.53Z" fill="#15B7DC"/>
<path d="M220.882 230.87L220.524 230.912C220.673 230.941 220.799 230.898 220.882 230.87Z" fill="#15B7DC"/>
<path d="M187.896 234.211C187.98 234.183 188.147 234.126 188.339 234.14C188.147 234.126 187.955 234.112 187.896 234.211Z" fill="#15B7DC"/>
<path d="M112.188 225.941L112.686 226.173C112.661 226.101 112.487 226 112.188 225.941Z" fill="#15B7DC"/>
<path d="M102.093 224.802C102.243 224.832 102.393 224.861 102.585 224.876C102.368 224.789 102.11 224.716 102.093 224.802Z" fill="#15B7DC"/>
<path d="M391.256 122.992C391.577 122.563 391.773 122.176 391.986 121.704L391.256 122.992Z" fill="#15B7DC"/>
<path d="M268.999 217.918L268.94 218.016C268.999 217.918 268.999 217.918 268.999 217.918Z" fill="#15B7DC"/>
<path d="M390.98 121.485L391.223 121.242C391.14 121.27 391.08 121.37 390.98 121.485Z" fill="#15B7DC"/>
<path d="M120.988 227.12C121.431 227.05 122.463 227.341 122.439 227.269C121.905 227.21 121.173 226.978 120.988 227.12Z" fill="#15B7DC"/>
<path d="M390.978 121.485L390.717 121.813C390.759 121.799 390.801 121.785 390.843 121.771C390.902 121.671 390.961 121.571 390.978 121.485Z" fill="#15B7DC"/>
<path d="M315.524 194.217C315.483 194.231 315.483 194.231 315.524 194.217C315.483 194.231 315.441 194.245 315.423 194.331L315.524 194.217Z" fill="#15B7DC"/>
<path d="M317.973 192.906C317.83 193.034 317.687 193.163 317.502 193.305C317.747 193.063 317.848 192.948 317.973 192.906Z" fill="#15B7DC"/>
<path d="M391.986 121.704L392.378 120.931C392.241 121.217 392.123 121.417 391.986 121.704Z" fill="#15B7DC"/>
<path d="M185.751 234.217C185.71 234.231 185.56 234.203 185.519 234.217C185.477 234.231 185.501 234.302 185.751 234.217Z" fill="#15B7DC"/>
<path d="M204.519 229.135C204.878 229.093 205.338 228.937 205.589 228.852C205.23 228.894 204.913 228.922 204.519 229.135Z" fill="#15B7DC"/>
<path d="M207.936 228.616C207.894 228.63 207.852 228.644 207.787 228.587C207.894 228.63 207.894 228.63 207.936 228.616Z" fill="#15B7DC"/>
<path d="M190.14 230.088C190.248 230.131 190.331 230.103 190.481 230.132C190.373 230.089 190.223 230.059 190.14 230.088Z" fill="#15B7DC"/>
<path d="M257.988 215.727C254.07 216.975 249.096 218.822 245.213 219.898C244.449 220.398 243.235 220.809 241.979 221.235L241.732 220.919L240.727 221.259C240.26 221.258 241.523 220.99 240.696 221.03L240.392 221.373C240.26 221.258 237.633 221.908 239.367 221.24L235.269 222.23C234.365 222.456 234.864 222.687 233.786 222.812C233.528 222.74 234.097 222.627 234.03 222.569C230.947 222.975 230.761 224.078 227.894 224.57L228.145 224.485C227.709 224.713 226.782 224.867 226.806 224.939C227.287 225.256 227.26 224.625 228.152 224.643C228.166 224.958 227.13 225.069 227.245 225.27C226.568 225.34 226.24 225.611 225.672 225.724C224.629 225.677 223.223 226.074 222.432 225.942C221.971 226.098 221.5 226.498 220.447 226.695C219.613 226.577 220.541 226.423 219.505 226.534L219.387 226.734C218.543 226.86 218.644 226.746 218.661 226.66C217.775 226.8 217.998 227.045 216.855 227.113L217.416 226.842C216.597 227.04 216.237 227.082 215.076 227.236C215.093 227.15 215.536 227.079 215.896 227.038C215.188 226.877 214.825 227.321 214.507 227.348C214.615 227.392 215.418 227.28 215.09 227.551C214.497 227.592 213.942 228.02 213.468 227.861L214.029 227.59C212.875 227.902 213.45 227.947 212.055 228.1C212.139 228.071 212.073 228.014 212.114 228C211.72 228.213 211.235 228.298 210.642 228.339C210.091 228.365 209.457 228.42 208.78 228.49L209.031 228.405C208.505 228.503 208.302 228.732 207.985 228.759C208.752 228.82 208.584 228.876 208.675 229.006C207.625 228.801 207.276 229.56 205.641 229.554C205.658 229.468 206.01 229.269 206.46 229.356C206.931 228.957 206.942 228.713 207.887 228.472C207.277 228.599 206.583 228.755 206.702 228.554L206.565 228.841C206.206 228.882 205.889 228.91 205.613 228.923C205.494 229.124 206.429 229.127 205.609 229.325C204.664 229.565 205.027 229.122 204.926 229.236C203.621 229.519 204.455 229.636 203.161 229.675C203.286 229.632 203.496 229.561 203.646 229.59C202.711 229.587 201.407 229.869 201.076 229.581C201.177 229.467 201.194 229.381 201.554 229.339L201.578 229.411C202.516 229.013 200.758 229.609 200.996 229.208C201.111 229.409 199.841 229.52 199.224 229.489L199.464 229.647C197.696 230.487 199.468 229.246 197.588 229.483C196.434 229.795 198.056 229.485 197.344 229.726C196.518 229.766 196.151 229.65 194.99 229.804C194.648 229.76 193.923 229.685 193.784 229.412C193.09 229.568 191.514 229.462 191.161 229.661C192.462 229.781 192.358 229.336 193.874 229.542L193.546 229.813C192.528 229.838 191.241 230.034 190.54 230.032C190.69 230.061 190.756 230.119 190.697 230.219C189.26 230.386 188.89 230.672 187.488 230.667C187.223 230.436 188.074 230.468 188.709 230.413C187.75 230.338 187.732 230.424 186.355 230.491C186.24 230.289 187.307 230.408 187.45 230.279L185.905 230.403C185.905 230.403 185.905 230.403 185.881 230.331C185.703 230.632 184.671 230.341 183.743 230.496C181.497 230.617 181.242 231.104 180.021 231.357C179.655 231.241 179.547 231.198 179.672 231.155C180.272 231.272 180.14 231.157 180.307 231.1C179.523 231.126 178.532 230.822 178.951 230.68C177.723 230.776 179.425 230.839 178.707 230.923L177.029 230.931C177.27 231.09 177.887 231.121 177.001 231.261C176.283 231.344 175.941 231.3 174.965 231.311C175.09 231.268 174.592 231.037 175.359 231.097C174.867 231.024 174.166 231.021 173.897 231.193C174.964 231.311 172.227 231.359 173.043 231.562L171.976 231.444C172.209 231.445 172.227 231.359 172.61 231.389C172.262 231.187 171.742 231.443 171.383 231.485C170.999 231.455 170.065 231.452 169.932 231.336C169.639 231.436 168.764 231.332 168.59 231.231C168.105 231.316 168.597 231.389 168.429 231.446L166.752 231.454C166.619 231.339 166.39 230.937 166.665 230.923C166.055 231.05 166.511 231.296 165.577 231.292C166.097 231.036 164.227 231.03 164.981 230.774C164.399 230.571 162.805 230.551 161.954 230.52C161.452 230.69 162.937 230.666 162.927 230.91C160.506 230.93 160.468 231.504 158.633 231.325L159.125 231.399C158.023 231.452 158.173 231.482 157.521 231.623C157.765 231.38 156.109 230.901 154.282 230.88C154.139 231.008 155.356 231.156 155.111 231.399L153.901 231.409C153.793 231.366 153.919 231.323 154.11 231.338C153.008 231.392 151.987 230.857 151.701 231.115L150.512 230.637L150.986 230.797C150.843 230.925 149.609 230.863 149.375 230.863C148.123 230.887 147.649 230.728 146.941 230.567C147.182 230.726 147.788 231.001 146.787 230.94C146.725 230.48 144.671 230.617 144.64 230.387C144.256 230.357 143.507 230.211 143.513 230.369L143.524 230.125C143.496 230.455 142.028 230.392 140.919 230.288C141.09 229.83 139.66 230.155 139.13 229.694C138.952 229.994 137.129 229.572 136.993 229.858C136.117 229.755 136.17 229.497 135.929 229.338L135.528 229.394C135.072 229.149 133.429 228.985 132.422 228.767L131.56 228.979L131.212 228.777C131.086 228.819 130.343 228.831 130.817 228.991L130.326 228.917C130.339 229.233 129.667 228.9 128.69 228.911C128.474 228.825 128.492 228.739 128.725 228.739C128.234 228.666 128.419 228.523 128.136 228.379C128.502 228.495 126.472 228.703 127.804 229.052C127.895 229.181 127.152 229.193 126.678 229.033L126.323 228.674L125.803 228.93C125.036 228.87 124.705 228.582 124.063 228.479C124.705 228.582 125.385 228.111 123.76 227.861C124.594 227.979 125.012 227.837 125.438 227.853C125.096 227.809 124.922 227.708 125.431 227.695C124.172 227.562 125.054 227.823 123.795 227.69C123.806 227.446 123.482 227.316 122.366 227.054L123.231 227.401C123.189 227.415 123.147 227.429 123.105 227.443C123.405 227.502 123.513 227.545 123.603 227.675C123.345 227.602 122.184 227.756 121.985 227.583C123.307 228.175 119.841 227.59 120.663 227.951C120.538 227.994 119.663 227.89 119.548 227.689C120.566 227.664 118.701 227.256 118.886 227.113C118.502 227.083 119.75 227.46 119.241 227.473C118.599 227.37 118.143 227.125 117.777 227.009L118.01 227.01L117.02 226.705C116.877 226.833 117.993 227.096 117.118 226.992C116.902 226.905 115.984 226.816 116.002 226.73C116.379 226.602 116.048 226.314 116.839 226.446C116.198 226.343 114.207 225.978 115.054 226.411L114.304 226.265C114.803 226.496 116.159 226.917 114.618 226.639L114.593 226.567L113.575 226.592L113.077 226.361C113.101 226.433 112.933 226.49 112.567 226.374C112.435 226.259 112.069 226.143 112.086 226.057C110.953 225.88 111.086 225.996 110.918 226.052C110.277 225.95 110.036 225.791 110.312 225.778C109.454 225.588 107.93 225.225 107.348 225.022C106.173 224.86 107.564 225.109 106.93 225.164C106.407 224.861 105.417 224.556 104.367 224.352C103.293 224.075 102.118 223.913 101.152 223.681C101.706 224.213 100.661 223.607 100.333 223.878C100.734 223.823 98.4957 223.141 100.145 223.462L99.1372 223.243C98.3983 222.853 100.804 223.479 99.7408 222.959C98.6251 222.697 97.9135 222.938 96.533 222.445C96.9516 222.303 95.4835 222.241 95.8359 222.041C96.1114 222.028 96.4775 222.144 96.8854 222.246L96.6449 222.087C94.1487 221.333 95.9508 222.243 94.6676 222.037C93.144 221.673 93.4546 221.488 93.3397 221.287C93.0992 221.128 92.3496 220.982 91.966 220.952C92.8831 221.041 93.6951 221.647 93.294 221.703C92.6144 221.213 91.0558 221.021 90.6303 221.005C92.8403 222.017 92.1364 221.455 94.2208 222.509C94.4963 222.496 94.4408 222.194 95.6714 222.657C94.9042 222.597 95.7201 222.801 95.9606 222.96C95.6957 222.729 96.8183 223.149 97.2018 223.179C97.5504 223.381 96.5077 223.334 97.7801 223.783L98.0002 223.469C98.4743 223.628 97.8395 223.683 98.8472 223.902C98.2961 223.929 99.0526 224.233 97.637 223.912C99.3485 224.692 100.186 224.409 101.469 224.614C101.319 224.585 101.343 224.656 101.193 224.627C101.469 224.614 101.961 224.687 102.327 224.803C103.167 225.079 101.668 224.787 101.908 224.945L103.282 225.28L103.348 225.338C103.69 225.382 104.031 225.426 104.164 225.541C103.763 225.597 103.595 225.654 103.362 225.653L104.788 225.73C104.645 225.858 106.018 226.193 104.993 226.06L107.134 226.455L107.339 226.786C107.831 226.859 107.849 226.773 107.249 226.656C107.981 226.888 110.467 226.926 110.146 227.355C110.955 227.401 111.555 227.517 112.155 227.634C112.754 227.751 113.438 227.84 114.463 227.972C112.911 227.938 116.318 228.624 114.651 228.389C115.641 228.693 115.777 228.407 116.569 228.539C117.301 228.771 116.99 228.956 116.247 228.968L117.14 228.986L117.123 229.072L117.907 229.046C118.748 229.321 118.113 229.376 119.012 229.551L119.173 229.337L119.78 229.611C119.539 229.453 120.073 229.512 120.672 229.629L120.697 229.701C120.955 229.773 121.188 229.774 121.464 229.761C120.721 229.773 122.171 229.921 121.837 230.035C122.478 230.137 122.52 230.123 123.695 230.285L123.455 230.126C124.989 230.246 123.552 230.413 124.811 230.547L124.696 230.346C126.526 230.926 127.681 230.614 129.037 231.035C128.27 230.975 128.493 231.22 128.51 231.134C129.619 231.238 131.502 231.56 132.646 231.492C133.127 231.81 133.259 231.925 134.459 232.158C135.334 232.262 135.459 232.219 135.711 232.134C136.568 232.324 138.12 232.358 138.235 232.559C138.42 232.416 139.027 232.691 139.469 232.621L139.602 232.736L139.487 232.535C141.084 233.114 141.998 232.644 143.546 233.079L143.27 233.093L143.905 233.038C144.037 233.153 143.762 233.166 143.744 233.252L146.687 233.535L146.063 233.346C146.68 233.377 147.057 233.249 147.807 233.396C146.67 233.621 148.766 233.471 149.031 233.701L148.438 233.742C149.289 233.774 149.289 233.774 149.174 233.572C150.3 233.591 150.021 234.006 150.99 233.837L150.265 233.763C150.025 233.604 150.509 233.52 151.043 233.579C151.151 233.622 151.517 233.738 151.133 233.708C152.026 233.726 153.351 233.917 153.71 233.875C154.202 233.949 154.059 234.077 153.85 234.148C155.694 234.083 154.725 234.252 156.545 234.115L156.528 234.201L157.138 234.074L158.104 234.306L157.738 234.19C158.355 234.221 158.69 234.108 159.44 234.254L159.171 234.425C160.89 234.402 161.246 234.762 162.832 234.624C162.941 234.668 162.707 234.667 162.581 234.709C164.06 234.528 163.805 235.015 165.26 234.762C165.176 234.79 165.35 234.891 165.308 234.905L165.985 234.836L165.974 235.08L166.494 234.824L166.992 235.055L167.244 234.97C168.091 235.403 169.053 235.076 170.127 235.353L169.904 235.108C172.363 234.514 175.819 235.344 178.842 235.039L178.832 235.283L180.052 235.029C180.76 235.189 179.7 235.228 179.916 235.315C181.269 235.177 180.412 234.987 181.981 234.935C182.814 235.053 181.712 235.106 181.377 235.22C182.814 235.053 184.97 234.802 186.054 234.835C186.096 234.821 186.114 234.735 186.072 234.749C187.041 234.58 188.36 234.613 189.42 234.574C189.402 234.66 189.127 234.674 188.876 234.759C189.259 234.789 189.81 234.762 190.103 234.663L189.751 234.862C190.577 234.822 192.14 234.612 192.38 234.771C192.272 234.728 192.265 234.57 192.984 234.486C193.465 234.803 194.906 234.235 196.098 234.311C195.997 234.425 195.129 234.479 195.404 234.466C195.979 234.511 196.482 234.341 196.942 234.185L196.799 234.313L199.391 233.835C199.847 234.08 201.881 233.471 201.745 233.757C202.697 233.674 200.936 233.711 202.097 233.557C202.463 233.673 203.15 233.36 203.182 233.59L203.056 233.633L203.9 233.506L203.422 233.749C204.116 233.593 204.594 233.351 204.587 233.193C205.288 233.196 206.258 233.027 206.582 233.157L206.331 233.242C208.228 232.919 209.675 233.469 211.074 232.915C211.182 232.958 211.182 232.958 210.973 233.029C211.374 232.973 211.775 232.917 212.134 232.876C212.075 232.976 211.991 233.004 211.866 233.047L213.732 232.494L213.714 232.58C215.001 232.384 216.982 232.032 218.604 231.722L218.353 231.808C220.118 231.369 220.107 231.613 221.388 231.259C221.346 231.273 221.304 231.287 221.262 231.301L222.441 231.062L222.214 231.219C223.027 230.863 224.777 231.07 224.202 231.025C224.662 230.869 225.5 230.585 225.577 230.399C226.864 230.202 225.943 230.515 226.745 230.403C227.673 230.248 227.791 230.048 229.037 229.866L229.019 229.952C229.588 229.839 229.94 229.64 230.718 229.456L230.467 229.541C231.74 229.029 232.203 229.432 233.086 228.733C233.679 228.692 234.684 228.351 234.715 228.581C236.306 228.041 237.544 227.702 239.159 227.234C239.532 227.508 239.494 227.12 240.554 227.081L240.398 226.894C241.552 226.583 242.822 226.472 244.109 226.276C245.371 226.008 246.676 225.726 247.932 225.3L248.088 225.487L248.518 225.101C251.204 224.351 254.709 223.402 256.827 222.764C257.514 222.451 258.487 221.881 259.625 221.655L259.499 221.698C260.462 221.372 261.4 220.973 262.405 220.633C263.385 220.22 264.432 219.865 265.461 219.596C265.36 219.711 265.593 219.712 265.366 219.869C265.796 219.483 266.58 219.457 267.041 219.301L266.448 219.342C266.961 218.928 267.871 218.859 268.23 218.817C268.499 218.646 268.81 218.461 269.078 218.29C269.12 218.276 269.27 218.305 269.27 218.305L269.413 218.176L269.989 218.221C270.215 218.064 271.381 217.509 271.684 217.166C271.792 217.209 272.672 216.911 272.026 217.21L275.41 215.903L274.842 216.015C274.685 215.828 275.683 215.33 276.251 215.217C275.613 215.674 276.307 215.519 276.624 215.491C277.036 215.191 276.157 215.489 276.384 215.332C276.921 214.99 278.062 214.363 278.421 214.321L278.111 214.507C278.857 214.093 279.331 214.253 280.102 213.911C280.741 213.455 281.268 213.356 281.003 213.126C281.959 212.642 281.47 213.127 281.788 213.1C282.175 212.728 283.598 212.246 283.856 212.318C284.23 211.631 286.529 211.252 286.592 210.75L287.478 210.61C287.495 210.524 287.523 210.194 288.145 209.824C288.797 209.683 288.72 209.869 288.954 209.87L289.226 209.297C291.068 208.672 293.081 207.59 295.119 206.578C297.198 205.553 299.295 204.442 301.231 203.545C302.037 203.032 302.969 202.476 303.918 201.834C304.892 201.263 305.883 200.607 306.856 200.037L306.671 200.18L308.643 199.111L307.184 199.766C307.596 199.466 307.882 199.209 308.277 198.995C310.482 197.927 313.301 196.331 315.813 194.518C317.279 193.061 317.052 194.179 318.5 192.807C318.399 192.921 318.34 193.022 318.238 193.136C319.861 191.865 320.744 191.166 322.343 189.823C322.346 190.382 323.435 189.053 323.365 189.397L323.417 189.139C323.836 188.997 324.701 188.383 324.649 188.641L325.298 187.941L325.431 188.056C326.422 187.399 328.432 185.757 329.133 185.76C330.278 184.731 331.799 183.575 333.38 182.318C334.985 181.134 336.692 179.835 338.172 178.693C338.535 178.249 339.376 177.564 340.032 177.021L340.845 176.666C341.477 176.051 342.077 175.207 342.782 174.808C342.782 174.808 342.765 174.894 342.723 174.908C343.396 174.28 344.101 173.88 344.642 173.137C345.4 172.48 346.164 171.98 346.035 172.424C345.955 172.051 347.657 171.154 347.657 171.154C347.657 171.154 348.272 170.625 349.34 169.783C350.383 168.869 351.94 167.541 353.783 165.955C357.486 162.698 362.47 158.127 367.535 152.967C372.6 147.808 377.788 142.047 382.103 136.741C386.418 131.436 389.795 126.529 391.51 123.466C391.657 122.936 392.352 121.819 391.958 122.033C392.475 121.218 392.894 121.076 392.946 120.818C392.119 121.819 392.936 120.101 392.06 120.958L392.518 120.243C392.528 119.999 391.948 121.316 391.952 120.915L392.014 121.374C391.61 121.831 391.365 122.074 391.156 122.145C390.841 122.732 390.851 123.449 389.874 124.421L390.094 124.106C389.392 125.064 389.539 124.534 389.354 124.677L389.515 124.463L388.799 125.105C389.33 124.605 389.934 123.36 389.554 123.889C388.642 124.918 389.798 123.646 389.222 124.562C388.841 125.091 388.827 124.776 388.803 124.704L388.101 125.662C388.052 125.519 388.583 125.019 388.213 125.304L387.399 126.621C387.033 126.505 386.484 128.052 385.898 128.25C386.516 127.32 385.79 128.207 385.801 127.963L384.17 130.037C383.985 130.18 384.568 129.422 384.307 129.751C383.937 130.036 383.849 130.466 383.688 130.681C383.479 130.752 382.456 132.139 382.359 131.852C381.137 133.067 382.033 132.682 380.937 133.855C380.704 133.854 381.765 132.854 381.186 133.21L380.096 134.54C380.173 134.354 380.16 134.038 380.631 133.638C379.088 135.282 377.817 136.353 376.589 137.41C375.36 138.467 374.198 139.582 372.822 141.169C372.344 141.411 373.06 140.768 373.231 140.31C371.339 142.712 370.184 143.024 368.481 144.882L368.529 145.026C367.193 146.039 365.828 147.383 364.446 148.812C363.039 150.169 361.615 151.613 360.142 152.913L360.536 152.699C360.239 153.2 359.607 153.814 359.185 154.358C359.077 154.314 359.349 153.742 358.557 154.571C358.742 154.428 359.136 154.214 359.035 154.329C356.446 156.327 351.283 161.199 347.078 164.627C341.58 169.612 335.219 174.251 329.544 178.576C330.385 177.891 330.203 178.593 329.54 178.978C327.447 179.688 326.48 181.376 324.418 182.316C321.155 184.943 317.861 186.38 314.874 188.994L314.741 188.879C314.221 189.135 314.144 189.321 313.649 189.649L313.625 189.577C312.4 190.233 311.046 191.332 310.341 191.731L310.372 191.961C309.692 192.432 309.929 192.031 309.231 192.588L309.183 192.444L308.408 193.187C308.328 192.814 306.377 194.356 305.749 194.569C304.842 195.197 303.153 196.41 301.719 197.136C301.377 197.092 299.615 198.09 298.492 198.631C297.392 199.244 296.133 200.071 294.699 200.797C293.307 201.51 291.813 202.336 290.397 202.977L290.554 203.164L289.849 203.563C289.824 203.491 289.741 203.519 289.824 203.491C289.148 203.56 288.188 204.446 287.511 204.515C287.979 204.517 288.056 204.331 288.45 204.117C289.078 203.904 288.613 204.462 287.752 204.674L287.728 204.602L287.215 205.016C287.082 204.901 286.555 205 286.423 204.884C285.216 205.454 284.201 206.038 283.227 206.608C282.707 206.865 282.212 207.193 281.692 207.449C281.13 207.72 280.568 207.99 279.899 208.217C280.077 207.917 278.088 209.071 278.444 208.47C276.951 209.297 278.793 208.672 278.178 209.201C277.718 209.357 277.348 209.642 277.24 209.599C277.425 209.456 276.79 209.511 277.167 209.384L276.169 209.882C276.085 209.91 276.27 209.768 276.372 209.653C274.383 210.808 272.587 211.017 270.758 211.957C270.681 212.143 271.512 211.701 271.435 211.888C269.631 212.899 269.67 212.326 267.967 213.223L268.271 212.88C267.734 213.223 267.555 213.523 266.544 213.706C266.303 213.547 267.266 213.221 267.678 212.921C267.033 213.22 265.383 213.86 265.975 213.819C265.204 214.16 264.863 214.116 264.42 214.186C264.444 214.258 265.222 214.074 264.786 214.302C263.673 214.599 262.04 215.153 260.701 215.607C260.677 215.535 260.569 215.492 260.694 215.449C259.449 215.632 259.428 215.158 257.988 215.727Z" fill="#15B7DC"/>
<path d="M185.096 230.357L185.647 230.33C185.622 230.259 185.664 230.244 185.915 230.159L185.096 230.357Z" fill="#15B7DC"/>
<path d="M212.091 227.928C212.174 227.899 212.216 227.885 212.299 227.857C212.15 227.828 212.108 227.842 212.091 227.928Z" fill="#15B7DC"/>
<path d="M218.397 226.43C217.979 226.571 218.379 226.516 218.637 226.589C218.612 226.517 218.588 226.445 218.397 226.43Z" fill="#15B7DC"/>
<path d="M169.7 231.335C169.783 231.307 169.866 231.279 169.8 231.222C169.717 231.25 169.676 231.264 169.7 231.335Z" fill="#15B7DC"/>
<path d="M125.889 227.941C125.931 227.927 125.996 227.985 126.062 228.042C126.038 227.97 125.972 227.913 125.889 227.941Z" fill="#15B7DC"/>
<path d="M128.401 228.609C128.509 228.653 128.701 228.668 128.893 228.683C128.677 228.596 128.527 228.567 128.401 228.609Z" fill="#15B7DC"/>
<path d="M180.139 231.158C180.289 231.186 180.457 231.13 180.582 231.087C180.349 231.087 180.223 231.129 180.139 231.158Z" fill="#15B7DC"/>
<path d="M125.113 227.723C125.371 227.796 125.713 227.84 125.905 227.855C125.563 227.811 125.305 227.738 125.113 227.723Z" fill="#15B7DC"/>
<path d="M153.829 231.194L153.871 231.18C154.354 231.095 154.079 231.109 153.829 231.194Z" fill="#15B7DC"/>
<path d="M132.056 228.651C132.098 228.637 132.098 228.637 132.164 228.694L132.331 228.637L132.056 228.651Z" fill="#15B7DC"/>
<path d="M122.44 227.269C122.548 227.312 122.673 227.27 122.715 227.255C122.607 227.212 122.523 227.24 122.374 227.211C122.415 227.197 122.44 227.269 122.44 227.269Z" fill="#15B7DC"/>
<path d="M144.609 230.158C144.442 230.214 144.424 230.3 144.382 230.314C144.574 230.33 144.699 230.287 144.609 230.158Z" fill="#15B7DC"/>
<path d="M89.2246 199.791C89.1833 199.805 89.142 199.819 89.1659 199.889C89.2485 199.861 89.2485 199.861 89.2246 199.791Z" fill="#15B7DC"/>
<path d="M123.72 200.9L123.32 200.956C123.595 200.942 123.678 200.914 123.72 200.9Z" fill="#15B7DC"/>
<path d="M68.1744 196.761C68.2163 196.747 68.2163 196.747 68.2163 196.747C67.8746 196.703 67.4666 196.601 66.717 196.455L68.1744 196.761Z" fill="#15B7DC"/>
<path d="M194.33 190.966L193.911 191.108C194.096 190.966 194.246 190.994 194.33 190.966Z" fill="#15B7DC"/>
<path d="M56.6773 192.175L57.2838 192.449C57.2595 192.378 57.0434 192.291 56.6773 192.175Z" fill="#15B7DC"/>
<path d="M34.9259 184.741C34.9941 184.8 34.9692 184.726 34.9259 184.741V184.741Z" fill="#15B7DC"/>
<path d="M43.4991 188.959C43.6909 188.974 43.9071 189.061 44.1232 189.148C43.8652 189.075 43.4991 188.959 43.4991 188.959Z" fill="#15B7DC"/>
<path d="M44.38 189.22C44.2722 189.177 44.1888 189.205 44.081 189.162C44.2722 189.177 44.38 189.22 44.38 189.22Z" fill="#15B7DC"/>
<path d="M413.695 55.5094C413.985 54.8507 414.125 54.1628 414.307 53.4607C414.125 54.1628 413.943 54.8649 413.695 55.5094Z" fill="#15B7DC"/>
<path d="M255.532 172.696L255.431 172.809C255.556 172.767 255.556 172.767 255.532 172.696Z" fill="#15B7DC"/>
<path d="M413.303 53.8009L413.516 53.3288C413.439 53.5148 413.404 53.6867 413.303 53.8009Z" fill="#15B7DC"/>
<path d="M68.006 194.337C68.5989 194.296 69.8888 194.659 69.8645 194.587C69.2229 194.485 68.299 194.238 68.006 194.337Z" fill="#15B7DC"/>
<path d="M266.433 162.995L266.809 162.868C266.576 162.867 266.451 162.91 266.433 162.995Z" fill="#15B7DC"/>
<path d="M413.302 53.8013C413.226 53.9873 413.149 54.1734 413.073 54.3594C413.114 54.3453 413.132 54.2593 413.174 54.2452C413.233 54.1451 413.267 53.9732 413.302 53.8013Z" fill="#15B7DC"/>
<path d="M316.679 146.279C316.596 146.307 316.596 146.307 316.578 146.392L316.679 146.279Z" fill="#15B7DC"/>
<path d="M319.906 144.783C319.679 144.94 319.494 145.083 319.243 145.168C319.62 145.041 319.805 144.898 319.906 144.783Z" fill="#15B7DC"/>
<path d="M414.349 53.4465L414.678 52.2143C414.548 52.6584 414.437 53.0165 414.349 53.4465Z" fill="#15B7DC"/>
<path d="M352.814 124.42C352.713 124.534 352.63 124.562 352.529 124.677C352.671 124.548 352.772 124.434 352.814 124.42Z" fill="#15B7DC"/>
<path d="M150.187 198.569C150.103 198.598 149.954 198.569 149.871 198.597C149.829 198.611 149.829 198.611 150.187 198.569Z" fill="#15B7DC"/>
<path d="M173.925 191.081C174.368 191.01 174.954 190.812 175.265 190.627C174.822 190.698 174.445 190.826 173.925 191.081Z" fill="#15B7DC"/>
<path d="M178.257 190.092C178.216 190.106 178.174 190.12 178.066 190.077C178.108 190.063 178.15 190.049 178.257 190.092Z" fill="#15B7DC"/>
<path d="M155.776 193.713C155.883 193.756 156.009 193.714 156.2 193.729C156.05 193.7 155.925 193.742 155.776 193.713Z" fill="#15B7DC"/>
<path d="M241.901 171.313C236.895 172.931 230.455 175.274 225.443 176.734C224.427 177.318 222.878 177.843 221.288 178.383L220.998 178.081L219.725 178.592C219.132 178.633 220.705 178.18 219.736 178.349L219.307 178.734C219.174 178.619 215.867 179.74 218.013 178.773L215.435 179.567L212.808 180.217C211.654 180.529 212.236 180.732 210.907 180.942C210.607 180.884 211.343 180.714 211.193 180.685C207.273 181.374 206.961 182.52 203.365 183.339L203.658 183.24C203.365 183.339 202.947 183.481 202.57 183.609C202.193 183.737 201.942 183.822 201.9 183.836C202.465 184.125 202.479 183.48 203.623 183.412C203.637 183.727 202.308 183.938 202.465 184.125C201.621 184.251 201.167 184.565 200.431 184.734C199.12 184.859 197.361 185.455 196.385 185.466C195.823 185.736 195.227 186.179 193.905 186.547C192.886 186.572 194.041 186.261 192.754 186.457L192.593 186.672C191.564 186.94 191.665 186.826 191.683 186.74C190.57 187.037 190.835 187.268 189.356 187.449C189.607 187.364 189.834 187.207 190.085 187.122C189.081 187.462 188.613 187.461 187.141 187.8C187.159 187.714 187.727 187.601 188.17 187.531C187.295 187.427 186.848 187.899 186.405 187.969C186.555 187.998 187.591 187.887 187.113 188.129C186.353 188.227 185.631 188.712 185.031 188.595L185.76 188.268C184.271 188.693 185.013 188.681 183.242 188.962C183.325 188.934 183.259 188.876 183.301 188.862C182.237 189.303 180.734 189.412 179.112 189.722L179.405 189.623C178.777 189.835 178.425 190.035 178.09 190.149C179.042 190.066 178.791 190.151 178.947 190.338C177.629 190.305 177.196 191.092 175.124 191.314C175.142 191.228 175.578 191 176.171 190.959C176.768 190.517 176.754 190.201 177.992 189.861C177.239 190.117 176.377 190.329 176.496 190.129L176.342 190.501C175.857 190.585 175.498 190.627 175.163 190.741C175.003 190.955 176.188 190.873 175.117 191.156C173.921 191.482 174.41 190.996 174.225 191.139C172.61 191.606 173.628 191.581 171.982 191.819C172.149 191.763 172.442 191.663 172.568 191.621C171.382 191.703 169.749 192.256 169.335 191.997C169.478 191.868 169.495 191.782 169.938 191.712L169.963 191.784C171.152 191.3 168.934 192.052 169.237 191.709C169.394 191.896 167.748 192.134 167.012 192.304L167.294 192.448C166.171 192.989 166.188 192.903 166.182 192.746C166.175 192.588 166.144 192.358 164.94 192.526C163.426 192.879 165.533 192.485 164.654 192.783C163.618 192.894 163.144 192.735 161.672 193.074C161.247 193.058 160.312 193.055 160.197 192.854C159.294 193.08 157.365 193.174 156.912 193.487C158.547 193.493 158.419 192.976 160.354 193.041L159.9 193.354C158.613 193.551 156.991 193.861 156.081 193.929C156.273 193.944 156.381 193.987 156.255 194.03C154.466 194.397 154.012 194.711 152.192 194.848C151.91 194.703 152.945 194.592 153.681 194.423C152.513 194.418 152.478 194.59 150.682 194.799C150.525 194.612 151.885 194.631 152.046 194.417L150.107 194.754C150.107 194.754 150.107 194.754 150.082 194.682C149.887 195.069 148.562 194.878 147.383 195.118C144.533 195.523 144.194 196.039 142.681 196.392C142.231 196.304 142.081 196.275 142.248 196.218C142.974 196.292 142.841 196.177 143.051 196.106C142.057 196.203 140.815 195.984 141.359 195.799C139.839 195.995 141.959 195.916 141.031 196.07L138.894 196.235C139.176 196.379 139.961 196.354 138.865 196.565C137.938 196.719 137.512 196.703 136.284 196.8C136.428 196.671 135.852 196.626 136.762 196.557C136.145 196.527 135.235 196.595 134.924 196.78C136.284 196.8 132.793 197.103 133.819 197.235L132.459 197.216C132.776 197.189 132.793 197.103 133.219 197.119C132.787 196.945 132.165 197.316 131.698 197.314C131.231 197.312 130.003 197.408 129.871 197.293C129.494 197.421 128.434 197.46 128.193 197.302C127.583 197.429 128.2 197.46 127.991 197.53L125.853 197.695C125.721 197.58 125.449 197.192 125.766 197.164C124.989 197.348 125.571 197.551 124.343 197.647C124.989 197.348 122.659 197.497 123.622 197.171C122.872 197.025 120.877 197.061 119.775 197.114C119.147 197.327 121.01 197.176 120.999 197.42C117.927 197.581 117.846 198.169 115.551 198.147L116.168 198.177C114.773 198.33 114.899 198.288 114.121 198.471C114.449 198.2 112.35 197.791 110.02 197.941C109.835 198.083 111.412 198.189 111.059 198.389L109.49 198.441C109.382 198.397 109.507 198.355 109.741 198.356C108.388 198.494 107.074 198.059 106.728 198.417L105.222 197.967L105.846 198.155C105.703 198.284 104.109 198.264 103.792 198.292C102.181 198.358 101.581 198.241 100.681 198.066C101.006 198.196 101.738 198.428 100.486 198.452C100.423 197.993 97.7763 198.17 97.8114 197.998C97.3022 198.011 96.3608 197.85 96.3258 198.022L96.3783 197.764C96.3082 198.108 94.4566 198.015 93.0128 198.024C93.226 197.552 91.461 197.99 90.7396 197.514C90.5196 197.829 88.187 197.419 87.9845 197.648C86.8756 197.544 86.9038 197.214 86.6215 197.07L86.1367 197.154C85.5545 196.951 83.4623 196.7 82.1792 196.495L81.084 196.706L80.6517 196.533C80.4843 196.589 79.5253 196.514 80.1494 196.703L79.5078 196.6C79.5215 196.916 78.6151 196.583 77.405 196.593C77.1052 196.534 77.1645 196.434 77.44 196.421C76.7985 196.318 77.0496 196.233 76.7011 196.031C77.1752 196.19 74.5214 196.21 76.2611 196.661C76.4179 196.848 75.3927 196.715 74.793 196.598L74.3958 196.252L73.7017 196.408C72.7184 196.261 72.3036 196.001 71.5121 195.869C72.3036 196.001 73.2421 195.603 71.1256 195.28C72.1926 195.399 72.7436 195.372 73.2771 195.431C72.8274 195.343 72.6112 195.257 73.2703 195.273C71.6698 195.096 72.7436 195.372 71.1606 195.108C71.2132 194.85 70.7391 194.691 69.3235 194.37L70.3798 194.733C70.338 194.747 70.2542 194.775 70.2124 194.789C70.6203 194.891 70.7284 194.935 70.8189 195.064C70.5191 195.005 68.9916 195.043 68.7093 194.899C70.3964 195.607 65.9405 194.717 66.9793 195.165C66.8119 195.222 65.6787 195.046 65.5219 194.859C66.181 194.876 65.8987 194.731 65.5326 194.615C65.1247 194.513 64.56 194.224 64.6856 194.182C64.194 194.108 65.7663 194.616 65.1072 194.599C64.2913 194.396 63.6848 194.121 63.2525 193.947L63.5942 193.992L62.3218 193.543C62.1125 193.614 63.5767 194.078 62.4192 193.83C62.095 193.7 60.9618 193.523 60.9793 193.437C61.5303 193.411 61.0912 193.079 62.0327 193.24C61.2168 193.037 58.6437 192.468 59.7069 192.988L58.7411 192.756C59.3476 193.03 61.0942 193.639 59.1627 193.173L59.1802 193.087L57.8377 192.982L57.2311 192.707C57.2555 192.779 57.0219 192.778 56.5721 192.691C56.4397 192.575 55.9655 192.416 55.9831 192.33C54.5257 192.024 54.6337 192.067 54.4662 192.124C53.6504 191.92 53.3438 191.704 53.703 191.662C52.5805 191.242 50.6246 190.705 49.8438 190.329C48.3621 189.951 50.168 190.46 49.2928 190.356C48.9442 190.154 48.4877 189.909 47.9055 189.706C47.3233 189.503 46.6992 189.314 45.9846 188.996C44.6041 188.504 43.0737 187.982 41.8431 187.519C42.5295 188.167 41.1529 187.273 40.7167 187.501C41.2502 187.56 38.35 186.302 40.5045 187.012C40.0722 186.839 39.5981 186.679 39.2077 186.492C38.7686 186.16 39.309 186.377 39.7831 186.537C40.2572 186.696 40.707 186.784 40.0099 186.38C38.5388 185.758 37.5799 185.683 35.8615 184.745C36.4125 184.718 34.5229 184.238 34.9415 184.096C35.2832 184.14 35.806 184.443 36.2801 184.603L35.9735 184.387C34.37 183.649 34.1295 183.491 34.0702 183.591C34.0108 183.691 34.1675 183.878 33.3449 183.517C31.3685 182.506 31.8115 182.436 31.6966 182.235C31.5642 182.119 31.2156 181.917 30.8915 181.787C30.5429 181.585 30.1944 181.383 29.912 181.239C31.1076 181.874 32.0763 182.666 31.5185 182.535C31.0794 182.204 30.3998 181.714 29.7027 181.31C29.3542 181.108 29.03 180.978 28.7477 180.833C28.4654 180.689 28.2492 180.602 28.1168 180.487C28.7788 181.063 29.2598 181.38 29.5664 181.596C29.9393 181.87 30.1555 181.957 30.3959 182.115C30.8769 182.433 31.2916 182.692 32.6264 183.6C32.9925 183.716 32.937 183.415 34.5297 184.396C33.5571 184.005 34.6028 184.611 34.8851 184.756C34.5959 184.453 35.9657 185.19 36.4817 185.335C36.9208 185.666 35.5228 185.26 37.1506 186.069L37.4368 185.811C38.0677 186.158 37.1681 185.983 38.5067 186.489C37.799 186.329 38.7365 186.892 36.9169 186.068C38.0287 186.731 38.8514 187.093 39.6254 187.311C40.3994 187.528 41.0828 187.617 41.923 187.892C41.773 187.863 41.7312 187.877 41.5812 187.848C41.923 187.892 42.5714 188.153 43.0873 188.298C44.1923 188.804 42.2296 188.108 42.4945 188.339L44.3072 189.005C44.3491 188.991 44.3734 189.063 44.3734 189.063C44.8476 189.222 45.2973 189.31 45.4541 189.497C44.9206 189.437 44.7288 189.422 44.3452 189.392L46.2349 189.872C46.0256 189.943 47.7965 190.623 46.4646 190.275C47.4129 190.593 48.3368 190.84 49.2607 191.087L49.508 191.404C50.1739 191.578 50.1914 191.492 49.3931 191.203C50.3657 191.593 53.6154 192.092 53.1199 192.42C55.3094 192.959 56.0833 193.177 58.7158 193.645C56.7074 193.365 61.069 194.528 58.9281 194.133C60.2006 194.582 60.4449 194.339 61.3863 194.5C62.3346 194.819 61.9403 195.033 60.957 194.886L62.1321 195.048L62.1146 195.134L63.1397 195.266C64.2622 195.686 63.387 195.583 64.527 195.917L64.7539 195.76L65.5103 196.063C65.228 195.919 65.8452 195.95 66.6785 196.068L66.661 196.154L67.6443 196.3C66.7097 196.297 68.5439 196.476 68.1252 196.618C68.9829 196.807 68.9829 196.807 70.4997 197.013L70.1931 196.797C72.1771 197.005 70.3323 197.07 71.9153 197.334L71.8004 197.132C74.1466 197.858 75.7091 197.648 77.407 198.113C76.4237 197.966 76.7129 198.268 76.7304 198.182C77.48 198.328 78.439 198.403 79.3979 198.479C80.3569 198.554 81.3158 198.629 82.0343 198.545C82.6233 198.906 82.7732 198.935 84.3387 199.285C85.4475 199.389 85.6393 199.404 85.9742 199.29C87.0655 199.481 89.109 199.588 89.182 199.804C89.4089 199.647 90.1653 199.95 90.7339 199.838L90.8663 199.953L90.7514 199.752C91.7415 200.056 92.568 200.016 93.3527 199.99C94.1374 199.964 94.9639 199.924 95.9297 200.157L95.6123 200.185L96.3969 200.159C96.5294 200.274 96.212 200.301 96.1945 200.387L99.9397 200.558L99.19 200.412C99.9747 200.386 100.501 200.288 101.377 200.391C99.9221 200.644 102.611 200.453 102.918 200.669L102.133 200.695C103.218 200.728 103.218 200.728 103.103 200.526C104.505 200.531 104.159 200.889 105.428 200.778L104.47 200.703C104.145 200.573 104.798 200.432 105.415 200.463C105.565 200.492 106.015 200.58 105.547 200.578C106.098 200.551 106.824 200.626 107.416 200.585C108.034 200.615 108.585 200.589 108.794 200.518C109.411 200.549 109.226 200.691 108.933 200.791C111.28 200.555 110.018 200.823 112.365 200.588L112.347 200.674L113.15 200.562L114.391 200.781L113.941 200.694C114.726 200.668 115.211 200.583 116.103 200.601L115.793 200.786C117.972 200.607 118.394 201.025 120.441 200.731C120.591 200.76 120.274 200.788 120.106 200.844C122.004 200.521 121.648 201.122 123.521 200.727C123.395 200.77 123.653 200.842 123.569 200.871L124.413 200.745L124.403 200.988L125.048 200.69L125.63 200.892L125.965 200.779C126.997 201.069 128.253 200.643 129.602 200.906L129.338 200.676C132.425 199.869 136.801 200.387 140.637 199.726L140.627 199.97L142.182 199.602C143.099 199.692 141.704 199.845 142.004 199.903C143.692 199.651 142.625 199.532 144.655 199.324C145.698 199.371 144.345 199.51 143.86 199.594C144.812 199.511 145.949 199.286 147.002 199.089C148.056 198.892 149.091 198.781 149.768 198.711C149.81 198.697 149.869 198.597 149.786 198.625C151.006 198.371 152.635 198.219 154.006 197.995C153.988 198.081 153.695 198.18 153.336 198.222C153.821 198.137 154.522 198.14 154.899 198.012L154.421 198.254C155.456 198.143 157.455 197.706 157.737 197.85C157.587 197.821 157.622 197.649 158.508 197.509C159.115 197.783 160.908 197.015 162.436 196.977C162.292 197.106 161.215 197.231 161.532 197.204C162.275 197.192 162.879 196.907 163.489 196.78L163.304 196.923L166.631 196.275C167.238 196.55 169.767 195.612 169.589 195.913C170.768 195.673 168.529 195.952 170.043 195.599C170.493 195.686 171.365 195.23 171.354 195.474L171.187 195.531L172.24 195.334L171.661 195.69C172.564 195.464 173.143 195.108 173.137 194.95C174.005 194.895 175.201 194.57 175.651 194.657L175.358 194.757C177.734 194.192 179.491 194.556 181.284 193.788C181.434 193.817 181.434 193.817 181.141 193.917L182.637 193.649L182.351 193.907L184.72 193.183L184.702 193.269C186.324 192.96 188.849 192.424 190.932 191.958L190.639 192.057C192.84 191.391 192.829 191.634 194.42 191.095C194.378 191.109 194.294 191.138 194.252 191.152L195.7 190.741L195.389 190.926C196.429 190.414 198.574 190.407 197.873 190.404C198.435 190.134 199.481 189.779 199.642 189.565C201.215 189.111 200.067 189.58 201.079 189.397C202.233 189.086 202.394 188.871 204.016 188.562L203.998 188.648C204.71 188.406 205.17 188.25 206.199 187.981L205.906 188.081C207.515 187.455 208.062 187.83 209.238 187.031C209.956 186.948 211.254 186.508 211.285 186.737C213.336 186.042 214.909 185.588 216.985 184.965C217.442 185.21 217.404 184.823 218.732 184.612L218.576 184.425C221.447 183.532 224.882 182.927 228.064 181.848L228.22 182.035L228.775 181.607C232.215 180.601 236.683 179.326 239.387 178.489C240.241 178.119 241.508 177.45 242.98 177.111L242.812 177.168C245.282 176.33 247.787 175.321 250.491 174.484C250.347 174.613 250.623 174.599 250.354 174.77C250.909 174.342 251.903 174.245 252.489 174.046L251.771 174.13C252.451 173.659 253.613 173.505 254.014 173.45L255.155 172.823C255.238 172.794 255.388 172.823 255.388 172.823L255.573 172.681L256.274 172.683C256.543 172.512 258.109 171.901 258.539 171.515C258.689 171.544 259.843 171.233 258.988 171.603L263.359 170.04L262.665 170.196C262.509 170.009 263.758 169.425 264.494 169.256C263.688 169.769 264.507 169.571 264.908 169.515C265.446 169.173 264.357 169.542 264.602 169.299C265.306 168.9 266.849 168.217 267.25 168.161L266.813 168.389C267.794 167.977 268.394 168.093 269.374 167.681C270.18 167.167 270.898 167.084 270.634 166.854C271.883 166.27 271.209 166.899 271.628 166.757C272.207 166.4 273.982 165.718 274.282 165.776C274.824 165.033 277.774 164.512 277.904 164.068L279.041 163.843C279.058 163.757 279.17 163.399 279.983 163.043C280.845 162.831 280.708 163.117 280.984 163.104L281.382 162.489C282.554 162.091 283.852 161.651 285.125 161.139C286.44 160.613 287.773 160.001 289.13 159.461C291.862 158.295 294.594 157.128 297.14 156.105C299.321 154.965 302.039 153.483 304.621 152.288L304.352 152.459L306.958 151.335L305.057 152.06C305.594 151.717 306.03 151.489 306.55 151.233C309.407 150.024 313.196 148.259 316.511 146.335C318.546 144.764 318.109 145.953 320.084 144.483C319.899 144.626 319.881 144.712 319.738 144.84C321.93 143.457 323.13 142.73 325.273 141.203C325.192 141.79 326.724 140.39 326.654 140.734L326.79 140.448C327.335 140.263 328.517 139.622 328.399 139.823L329.299 139.037L329.431 139.152C330.757 138.382 333.462 136.585 334.33 136.531C335.876 135.446 337.942 134.105 340.091 132.736C342.241 131.367 344.54 130.027 346.522 128.714C347.011 128.229 348.187 127.43 349.052 126.816L350.116 126.375C350.999 125.675 351.875 124.818 352.765 124.276C352.765 124.276 352.748 124.362 352.706 124.376C353.589 123.677 354.52 123.121 355.295 122.378C356.304 121.636 357.319 121.051 357.106 121.524C357.068 121.136 359.273 120.068 359.273 120.068C359.273 120.068 359.458 119.926 359.828 119.64C360.198 119.355 360.753 118.926 361.475 118.441C362.173 117.884 363.039 117.271 364.047 116.529C365.056 115.786 366.165 114.93 367.418 113.945C372.304 110.047 378.859 104.462 385.39 97.8453C386.224 97.0021 387.016 96.1731 387.851 95.3299C388.661 94.4149 389.453 93.5859 390.263 92.6709C391.907 90.9127 393.461 89.0251 394.997 87.2235C398.062 83.4626 400.978 79.6724 403.485 75.7804C406.017 71.9602 408.19 68.1818 409.909 64.7173C411.628 61.2528 412.852 58.1164 413.593 55.6236C413.734 54.9357 414.269 53.0732 413.93 53.5883C414.336 52.17 414.741 51.7125 414.745 51.311C414.427 52.2994 414.395 52.0698 414.364 51.8402C414.333 51.6107 414.302 51.3811 413.935 52.226C414.047 51.8678 414.176 51.4237 414.264 50.9938C414.25 50.6782 413.872 52.7277 413.809 52.2685L413.896 52.7995C413.553 53.7161 413.316 54.1168 413.113 54.3456C412.855 55.2338 412.937 56.1663 411.952 57.9411L412.183 57.3826C411.508 58.9721 411.6 58.1406 411.422 58.4412L411.575 58.0689L410.839 59.1992C411.373 58.2976 411.933 56.5069 411.566 57.3518C410.664 59.0982 411.845 56.9368 411.247 58.3402C410.839 59.1992 410.842 58.7977 410.818 58.7259C410.563 59.2126 410.374 59.7569 410.119 60.2436C410.07 60.1 410.629 59.2702 410.224 59.7277L409.354 61.7037C409.12 61.7029 408.932 62.2472 408.659 62.8199C408.386 63.3926 408.096 64.0512 407.768 64.3226C408.432 62.9768 407.643 64.3651 407.671 64.0354C407.102 65.109 406.508 66.1108 405.872 67.1268C405.67 67.3555 406.281 66.2677 406.002 66.6826C405.597 67.1401 405.516 67.7278 405.338 68.0284C405.135 68.2571 403.923 70.1889 403.826 69.9018C402.44 71.7326 403.473 71.0622 402.163 72.7068C401.912 72.792 403.12 71.2617 402.488 71.8761L401.21 73.7504C401.263 73.4924 401.333 73.1484 401.815 72.5048C398.222 77.3251 395.793 79.1093 392.497 83.4287C391.9 83.8712 392.794 82.9278 393.09 82.4269C390.699 85.5592 389.366 86.1712 387.156 88.6015L387.163 88.7592C386.322 89.4447 385.488 90.2879 384.611 91.1452C383.735 92.0026 382.859 92.86 381.941 93.7316C380.171 95.5324 378.252 97.304 376.391 98.9753L376.887 98.6472C376.447 99.2767 375.672 100.02 375.082 100.62C374.957 100.663 375.372 99.9613 374.311 100.961C374.538 100.805 375.033 100.476 374.957 100.663C371.603 103.16 364.853 109.131 359.224 113.041C358.299 113.755 357.399 114.541 356.408 115.197C355.441 115.925 354.492 116.567 353.525 117.295C351.567 118.679 349.61 120.063 347.628 121.376C345.646 122.688 343.622 124.015 341.682 125.313C339.675 126.554 337.711 127.78 335.83 128.978C336.988 128.265 336.656 128.938 335.742 129.408C335.073 129.635 334.469 129.92 333.932 130.262C333.37 130.533 332.833 130.875 332.337 131.203C331.304 131.873 330.229 132.558 328.914 133.084C324.538 136.009 320.167 137.571 316.151 140.454L316.018 140.338C315.373 140.637 315.254 140.838 314.567 141.151L314.542 141.079C312.917 141.79 311.036 142.988 310.097 143.387L310.128 143.616C309.172 144.1 309.56 143.729 308.653 144.357L308.646 144.199L307.595 144.955C307.557 144.568 304.937 146.337 304.051 146.477C302.826 147.133 300.544 148.387 298.626 149.198C298.2 149.182 295.911 150.278 294.387 150.875C291.512 152.17 287.413 154.12 283.676 155.627L283.833 155.814L282.853 156.227C282.828 156.155 282.703 156.197 282.87 156.141C282.002 156.195 280.641 157.137 279.821 157.335C280.397 157.38 280.533 157.093 281.053 156.837C281.914 156.625 281.216 157.182 280.104 157.479L280.079 157.407L279.374 157.806C279.242 157.691 278.548 157.846 278.349 157.674C275.157 158.996 273.109 160.251 269.742 161.473C270.004 161.144 267.363 162.439 267.911 161.853C265.975 162.75 268.343 162.027 267.52 162.626C266.934 162.825 266.396 163.167 266.264 163.052C266.491 162.895 265.731 162.993 266.191 162.837L264.876 163.363C264.75 163.405 265.019 163.234 265.162 163.106C262.497 164.33 260.24 164.695 257.867 165.819C257.749 166.02 258.83 165.493 258.712 165.693C256.363 166.89 256.42 166.23 254.215 167.298L254.602 166.926C253.898 167.325 253.611 167.583 252.349 167.851C252.066 167.706 253.322 167.28 253.884 167.01C253.047 167.294 250.894 168.104 251.637 168.092C250.657 168.504 250.231 168.489 249.663 168.601C249.687 168.673 250.674 168.418 250.071 168.703C248.665 169.1 246.53 169.824 244.855 170.391C244.831 170.32 244.723 170.276 244.849 170.234C243.805 171.148 243.785 170.674 241.901 171.313Z" fill="#15B7DC"/>
<path d="M149.465 194.652L150.183 194.568C150.159 194.496 150.201 194.482 150.494 194.383L149.465 194.652Z" fill="#15B7DC"/>
<path d="M191.491 186.725C190.947 186.91 191.432 186.825 191.749 186.798C191.749 186.798 191.725 186.726 191.491 186.725Z" fill="#15B7DC"/>
<path d="M130.039 197.236C130.165 197.194 130.248 197.166 130.182 197.109C130.057 197.151 130.015 197.165 130.039 197.236Z" fill="#15B7DC"/>
<path d="M74.2962 195.406C74.3622 195.464 74.4457 195.435 74.5117 195.493C74.5117 195.493 74.404 195.449 74.2962 195.406Z" fill="#15B7DC"/>
<path d="M77.5418 196.307C77.6917 196.336 77.8835 196.351 78.159 196.338C77.901 196.265 77.6674 196.264 77.5418 196.307Z" fill="#15B7DC"/>
<path d="M143.194 195.978C143.386 195.993 143.595 195.922 143.763 195.865C143.446 195.893 143.278 195.95 143.194 195.978Z" fill="#15B7DC"/>
<path d="M73.3126 195.259C73.6125 195.318 74.0622 195.405 74.3202 195.478C73.9298 195.29 73.5881 195.246 73.3126 195.259Z" fill="#15B7DC"/>
<path d="M109.91 198.299C109.952 198.285 109.952 198.285 109.994 198.271C110.584 198.229 110.226 198.271 109.91 198.299Z" fill="#15B7DC"/>
<path d="M82.2155 196.323C82.2573 196.309 82.2573 196.309 82.3233 196.366L82.5563 196.367L82.2155 196.323Z" fill="#15B7DC"/>
<path d="M69.8656 194.587C70.0151 194.617 70.1646 194.646 70.2481 194.618C70.1403 194.574 69.9908 194.545 69.7995 194.53C69.8412 194.515 69.8412 194.515 69.8656 194.587Z" fill="#15B7DC"/>
<path d="M98.2235 197.699C98.0148 197.769 97.9314 197.798 97.9557 197.869C98.2131 197.942 98.38 197.886 98.2235 197.699Z" fill="#15B7DC"/>
<path d="M65.8391 158.767C65.7979 158.781 65.7566 158.795 65.7805 158.865C65.8218 158.851 65.863 158.837 65.8391 158.767Z" fill="#15B7DC"/>
<path d="M102.631 160.458L102.232 160.514C102.506 160.5 102.59 160.472 102.631 160.458Z" fill="#15B7DC"/>
<path d="M43.3977 155.489C43.4396 155.474 43.4396 155.474 43.4396 155.474C43.0979 155.43 42.6238 155.271 41.8323 155.139L43.3977 155.489Z" fill="#15B7DC"/>
<path d="M133.804 158.374C133.929 158.331 134.138 158.26 134.414 158.246C134.097 158.274 133.887 158.345 133.804 158.374Z" fill="#15B7DC"/>
<path d="M31.176 150.828L31.8488 151.16C31.8244 151.088 31.584 150.93 31.176 150.828Z" fill="#15B7DC"/>
<path d="M8.05396 143.619C8.07851 143.691 8.07851 143.691 8.05396 143.619C8.18805 143.735 8.12101 143.677 8.05396 143.619Z" fill="#15B7DC"/>
<path d="M17.1945 147.724C17.3862 147.739 17.6024 147.826 17.8604 147.898C17.578 147.754 17.212 147.638 17.1945 147.724Z" fill="#15B7DC"/>
<path d="M18.136 147.885C18.0282 147.842 17.9447 147.87 17.8369 147.826C18.0108 147.927 18.1603 147.957 18.136 147.885Z" fill="#15B7DC"/>
<path d="M411.064 6.72771C411.371 5.98305 411.529 5.20918 411.711 4.5071C411.487 5.22337 411.287 6.01143 411.064 6.72771Z" fill="#15B7DC"/>
<path d="M243.511 132.701L243.41 132.814C243.535 132.772 243.535 132.772 243.511 132.701Z" fill="#15B7DC"/>
<path d="M410.689 4.93339L410.877 4.38944C410.825 4.64726 410.748 4.8333 410.689 4.93339Z" fill="#15B7DC"/>
<path d="M43.2529 153.136C43.8877 153.081 45.2438 153.502 45.237 153.344C44.5536 153.255 43.546 153.037 43.2529 153.136Z" fill="#15B7DC"/>
<path d="M410.688 4.93381C410.612 5.11998 410.535 5.30615 410.416 5.5065C410.458 5.49231 410.475 5.40632 410.517 5.39213C410.618 5.27775 410.653 5.10578 410.688 4.93381Z" fill="#15B7DC"/>
<path d="M308.645 104.692C308.562 104.72 308.52 104.734 308.502 104.819L308.645 104.692Z" fill="#15B7DC"/>
<path d="M312.057 103.054C311.83 103.211 311.603 103.368 311.352 103.453C311.729 103.325 311.914 103.182 312.057 103.054Z" fill="#15B7DC"/>
<path d="M411.711 4.50711L412.057 3.18894C411.928 3.63306 411.84 4.06299 411.711 4.50711Z" fill="#15B7DC"/>
<path d="M346.959 81.134C346.858 81.2483 346.733 81.2907 346.674 81.3908C346.775 81.2765 346.9 81.2341 346.959 81.134Z" fill="#15B7DC"/>
<path d="M130.929 158.707C130.846 158.735 130.696 158.707 130.613 158.735C130.571 158.749 130.613 158.735 130.929 158.707Z" fill="#15B7DC"/>
<path d="M156.46 151.411C156.903 151.341 157.573 151.113 157.883 150.929C157.399 151.014 156.98 151.156 156.46 151.411Z" fill="#15B7DC"/>
<path d="M137.01 153.924C137.118 153.967 137.285 153.911 137.435 153.94C137.327 153.897 137.177 153.867 137.01 153.924Z" fill="#15B7DC"/>
<path d="M229.144 131.488C223.804 133.219 216.938 135.547 211.566 137.048C210.509 137.647 208.835 138.214 207.16 138.782L206.871 138.48L205.514 139.02C204.879 139.075 206.603 138.651 205.525 138.777L205.054 139.176C204.879 139.075 201.381 140.182 203.676 139.243C202.731 139.484 201.876 139.854 200.906 140.022L198.112 140.73C196.85 140.998 197.474 141.186 196.086 141.497C195.786 141.438 196.546 141.341 196.414 141.226C192.218 141.928 191.906 143.074 188.035 143.907L188.369 143.793C188.035 143.907 187.574 144.063 187.197 144.19C186.821 144.318 186.528 144.418 186.486 144.432C187.092 144.706 187.107 144.061 188.334 143.965C188.306 144.295 186.936 144.519 187.092 144.706C186.14 144.789 185.686 145.103 184.933 145.359C183.538 145.511 181.672 146.064 180.612 146.103C180.008 146.388 179.369 146.845 177.964 147.241C176.879 147.209 178.142 146.941 176.729 147.18L176.568 147.394C175.431 147.62 175.599 147.563 175.616 147.477C174.396 147.731 174.702 147.947 173.115 148.085L173.928 147.729C172.816 148.026 172.373 148.097 170.768 148.32C170.786 148.234 171.396 148.108 171.881 148.023C170.964 147.934 170.475 148.42 169.99 148.504C170.14 148.533 171.26 148.394 170.74 148.65C169.938 148.762 169.149 149.19 168.508 149.087L169.321 148.731C167.747 149.185 168.532 149.159 166.61 149.41C166.694 149.382 166.628 149.324 166.67 149.31C165.564 149.765 163.953 149.831 162.205 150.183L162.54 150.07C161.87 150.297 161.518 150.496 161.117 150.552C162.153 150.441 161.884 150.613 162.016 150.728C160.59 150.651 160.115 151.452 157.918 151.717C157.935 151.631 158.413 151.389 159.006 151.348C159.645 150.891 159.697 150.634 160.953 150.208C160.133 150.406 159.188 150.646 159.373 150.503L159.195 150.804C158.71 150.888 158.309 150.944 157.932 151.072C157.772 151.286 158.999 151.19 157.887 151.488C156.606 151.842 157.137 151.342 156.952 151.484C155.187 151.923 156.313 151.941 154.559 152.136C154.727 152.079 155.061 151.965 155.211 151.995C153.942 152.105 152.201 152.615 151.786 152.355C151.93 152.227 151.947 152.141 152.432 152.056L152.414 152.142C153.688 151.631 151.302 152.44 151.623 152.011C151.689 152.068 151.312 152.196 150.786 152.294C150.259 152.393 149.624 152.448 149.223 152.504L149.53 152.72C147.067 153.716 149.576 152.305 147.002 152.697C145.404 153.079 147.636 152.642 146.673 152.968C145.554 153.108 145.08 152.948 143.5 153.244C143.032 153.242 142.056 153.253 141.917 152.98C140.971 153.221 138.893 153.285 138.397 153.613C140.117 153.591 140.013 153.146 142.074 153.167L141.578 153.495C140.183 153.648 138.477 153.987 137.525 154.069C137.717 154.084 137.825 154.128 137.724 154.242C135.785 154.579 135.289 154.908 133.385 155.073C133.078 154.857 134.222 154.789 135.024 154.677C133.772 154.701 133.737 154.873 131.833 155.039C131.676 154.852 133.12 154.843 133.305 154.7L131.216 155.008C131.216 155.008 131.216 155.008 131.191 154.936C130.971 155.251 129.587 155.16 128.3 155.356C125.21 155.604 124.847 156.047 123.208 156.443C122.716 156.369 122.566 156.34 122.751 156.197C123.518 156.257 123.386 156.142 123.637 156.057C122.601 156.168 121.294 155.891 121.862 155.778C120.216 156.016 122.504 155.881 121.492 156.064L119.204 156.199C119.529 156.329 120.313 156.303 119.176 156.529C118.182 156.626 117.715 156.624 116.404 156.749C116.571 156.692 115.947 156.503 116.923 156.492C116.264 156.476 115.312 156.558 114.96 156.758C116.428 156.82 112.679 157.051 113.77 157.241L112.302 157.179C112.619 157.151 112.637 157.065 113.104 157.067C112.648 156.821 111.943 157.221 111.5 157.291C110.991 157.303 109.697 157.342 109.589 157.298C109.146 157.369 108.044 157.422 107.828 157.335C107.151 157.405 107.793 157.507 107.625 157.564L105.355 157.613C105.223 157.498 104.909 157.124 105.268 157.082C104.424 157.209 105.031 157.483 103.737 157.522C104.449 157.28 101.945 157.329 102.974 157.06C102.158 156.856 100.037 156.935 98.8936 157.003C98.2238 157.23 100.194 157.122 100.159 157.294C96.8531 157.454 96.8142 158.028 94.3277 157.991L94.945 158.021C93.4662 158.203 93.6336 158.146 92.772 158.358C93.1419 158.072 90.9174 157.706 88.4135 157.755C88.2285 157.897 89.8466 157.989 89.4941 158.189C88.9431 158.215 88.3921 158.242 87.8167 158.197C87.6668 158.168 87.8761 158.097 88.0679 158.112C86.5823 158.135 85.2018 157.643 84.8318 157.928L83.242 157.507L83.8661 157.696C83.6811 157.838 82.0212 157.761 81.662 157.803C79.9671 157.897 79.3012 157.723 78.3598 157.562C78.6839 157.692 79.4823 157.981 78.1223 157.962C78.0599 157.503 75.2629 157.651 75.2561 157.493C74.6808 157.448 73.6975 157.301 73.6624 157.473L73.715 157.215C73.6449 157.559 71.6677 157.509 70.1334 157.389C70.3884 156.903 68.4491 157.24 67.6615 156.707C67.4415 157.021 64.959 156.582 64.7146 156.825C63.522 156.749 63.5921 156.405 63.2679 156.275L62.7413 156.374C62.1172 156.185 59.8751 155.905 58.5258 155.642L57.3225 155.81L56.8484 155.65C56.6809 155.707 55.6558 155.575 56.3042 155.835L55.6207 155.746C55.6344 156.062 54.7037 155.657 53.3855 155.624C53.0613 155.494 53.145 155.465 53.4206 155.452C52.7371 155.364 53.0058 155.192 52.6397 155.076C53.1139 155.236 50.3344 155.298 52.1579 155.72C52.3147 155.907 51.2477 155.789 50.5817 155.614L50.1426 155.283L49.4067 155.452C48.3815 155.32 47.9249 155.074 47.0672 154.885C47.9006 155.002 48.8809 154.59 46.6807 154.295C47.8558 154.457 48.3824 154.359 48.9578 154.404C48.508 154.316 48.25 154.243 48.951 154.246C47.2424 154.025 48.4243 154.344 46.7157 154.123C46.7683 153.865 46.2941 153.706 44.7949 153.414L45.9349 153.748C45.8931 153.762 45.8093 153.79 45.7256 153.819C46.1335 153.921 46.2835 153.95 46.374 154.079C46.0323 154.035 44.4211 154.101 44.1144 153.885C45.0208 154.218 44.2537 154.158 43.4447 154.112C42.6113 153.994 41.7117 153.819 42.2764 154.108C42.109 154.165 40.8852 153.859 40.7528 153.744C42.1791 153.821 39.6478 153.238 39.8328 153.095C39.2993 153.036 40.9971 153.501 40.2962 153.498C39.4385 153.309 38.7901 153.049 38.2916 152.817L38.6333 152.862L37.2772 152.441C37.0679 152.512 38.6158 152.948 37.3746 152.728C37.0504 152.598 35.8091 152.378 35.8266 152.293C36.3776 152.266 35.9385 151.934 36.9637 152.067C36.106 151.878 33.3655 151.366 34.488 151.786L33.4804 151.567C34.1288 151.828 35.959 152.408 33.9019 151.985L33.9195 151.899L32.4932 151.822C32.2771 151.735 32.061 151.648 31.8448 151.561C31.8692 151.633 31.6355 151.632 31.1195 151.487C30.9871 151.372 30.4711 151.227 30.4886 151.141C28.9407 150.705 29.0556 150.906 28.8638 150.891C28.0061 150.702 27.6576 150.5 28.0587 150.444C26.8524 150.052 24.771 149.558 23.9483 149.196C22.341 148.861 24.2725 149.326 23.3554 149.237C22.6584 148.833 21.3197 148.326 19.8555 147.862C18.3913 147.398 16.7353 146.919 15.4209 146.484C16.1492 147.118 14.7132 146.324 14.2527 146.48C14.8105 146.611 11.7535 145.166 14.0404 145.992L12.6599 145.5C11.698 144.865 14.9643 146.239 13.504 145.373C11.9492 144.78 10.9309 144.805 9.08695 143.909C9.40432 143.882 9.03827 143.766 8.67221 143.65C8.30615 143.534 7.91578 143.346 8.12508 143.275C8.49114 143.391 9.03143 143.608 9.54744 143.753L9.19888 143.551C8.33438 143.204 7.83591 142.973 7.55358 142.828C7.29559 142.756 7.18752 142.712 7.17002 142.798C7.11063 142.899 7.26736 143.086 6.38532 142.824C4.28342 141.856 4.75072 141.858 4.59396 141.671C4.24541 141.469 3.22412 140.935 2.6838 140.718C3.33219 140.978 3.92122 141.339 4.26978 141.541C4.64264 141.814 4.73318 141.944 4.45768 141.957C3.55517 141.223 1.35201 140.369 0.787344 140.08C1.50876 140.556 1.9897 140.873 2.40444 141.133C2.79485 141.32 3.03533 141.479 3.27578 141.637C3.51626 141.796 3.77425 141.869 4.14715 142.142C4.49567 142.344 4.95229 142.59 5.69121 142.98C6.09912 143.082 6.00175 142.794 7.69577 143.661C6.63945 143.299 7.7688 143.876 8.05114 144.021C7.89438 143.834 8.17671 143.978 8.56711 144.166C8.95751 144.354 9.47349 144.499 9.73148 144.571C10.2124 144.889 8.73071 144.511 10.4422 145.291L10.7284 145.034C11.4012 145.366 10.4597 145.205 11.8821 145.683C11.0906 145.551 12.1119 146.086 10.1911 145.376C11.3447 146.026 12.2268 146.287 13.0669 146.562C13.8828 146.766 14.6324 146.912 15.5145 147.173C15.3227 147.158 15.3227 147.158 15.1309 147.143C15.5144 147.173 16.2047 147.419 16.7207 147.565C17.9094 148.042 15.7792 147.404 16.0859 147.62L17.9824 148.257C18.0243 148.243 18.0486 148.315 18.0486 148.315C18.5646 148.46 19.0144 148.548 19.213 148.721C18.6795 148.661 18.4702 148.732 18.0866 148.702L20.1019 149.14C19.8926 149.211 21.7715 149.934 20.3735 149.528C21.3636 149.832 22.3781 150.209 23.3438 150.442L23.5911 150.758C24.2989 150.918 24.3164 150.832 23.4344 150.571C24.4488 150.947 27.9078 151.376 27.4123 151.704C28.5698 151.952 29.3614 152.083 30.2015 152.359C31.0592 152.548 31.9656 152.881 33.3324 153.058C31.1985 152.821 35.8111 153.899 33.5866 153.532C34.9427 153.953 35.1871 153.71 36.2366 153.914C37.2267 154.219 36.8324 154.433 35.7411 154.243L36.958 154.39L36.9405 154.476L38.0075 154.595C39.1719 155 38.2967 154.897 39.4785 155.217L39.7053 155.06L40.5037 155.349C40.1551 155.147 40.9048 155.293 41.7624 155.483L41.7449 155.569L42.7944 155.773C41.7936 155.712 43.7602 156.006 43.3172 156.076C44.2168 156.251 44.2168 156.251 45.8173 156.429L45.5106 156.213C47.5784 156.392 45.6498 156.486 47.3165 156.721L47.2017 156.52C49.6735 157.203 51.3197 156.965 53.1675 157.459C52.1424 157.326 52.4316 157.628 52.4491 157.542C53.2406 157.674 54.2657 157.807 55.2909 157.94C55.8244 157.999 56.316 158.072 56.8076 158.146C57.275 158.147 57.7423 158.149 58.1258 158.179C58.7567 158.525 58.931 158.626 60.5558 158.876C61.7484 158.952 61.9402 158.967 62.2751 158.853C63.4745 159.087 65.6016 159.166 65.6922 159.295C65.919 159.138 66.7174 159.428 67.3521 159.373L67.5264 159.474L67.4115 159.273C68.4853 159.549 69.3362 159.581 70.187 159.612C71.0379 159.644 71.8888 159.676 72.9383 159.88L72.579 159.922L73.4056 159.882C73.5799 159.983 73.2206 160.025 73.2031 160.111L77.1819 160.282L76.3661 160.079C77.217 160.11 77.7193 159.94 78.7026 160.087C77.1401 160.296 80.0208 160.12 80.3518 160.408L79.5253 160.448C80.6935 160.452 80.6935 160.452 80.5367 160.265C82.0224 160.242 81.6593 160.685 83.0125 160.547L82.0117 160.486C81.6875 160.355 82.4059 160.272 83.065 160.289C83.2149 160.318 83.7066 160.391 83.1974 160.404C84.4075 160.394 86.1998 160.586 86.7265 160.488C87.4099 160.576 87.225 160.719 86.8658 160.761C89.4115 160.698 88.0408 160.923 90.5379 160.716L90.5204 160.802L91.3644 160.676L92.6476 160.882L92.1735 160.722C93 160.682 93.4848 160.598 94.4856 160.659L94.1332 160.858C96.4629 160.708 96.9019 161.04 99.0573 160.789C99.2072 160.819 98.8899 160.846 98.7224 160.903C100.728 160.623 100.347 161.152 102.37 160.787C102.245 160.829 102.503 160.902 102.419 160.93L103.347 160.776L103.336 161.019L104.023 160.706L104.647 160.895L104.982 160.781C105.523 160.998 106.182 161.015 106.816 160.96C107.476 160.977 108.176 160.979 108.902 161.053L108.595 160.837C111.916 160.031 116.525 160.549 120.62 159.962L120.609 160.205L122.249 159.809C123.208 159.885 121.729 160.066 122.071 160.11C123.884 159.815 122.734 159.725 124.872 159.561C126.022 159.651 124.519 159.76 124.034 159.844C125.998 159.579 128.938 159.302 130.333 159.149C130.375 159.135 130.434 159.035 130.351 159.063C131.655 158.781 133.392 158.673 134.846 158.42C134.829 158.506 134.494 158.619 134.135 158.661C134.686 158.634 135.362 158.565 135.823 158.409L135.303 158.665C136.423 158.525 138.529 158.131 138.812 158.276C138.662 158.247 138.697 158.075 139.624 157.92C140.231 158.195 142.216 157.442 143.785 157.39C143.642 157.518 142.481 157.672 142.84 157.63C143.625 157.604 144.294 157.377 144.922 157.164L144.737 157.307L148.299 156.66C148.905 156.934 151.675 156.155 151.497 156.456C152.784 156.26 150.395 156.509 152.016 156.2C152.508 156.273 153.447 155.875 153.436 156.119L153.268 156.175L154.364 155.964L153.718 156.263C154.664 156.022 155.309 155.724 155.344 155.552C156.296 155.469 157.534 155.129 158.05 155.274L157.715 155.388C160.241 154.852 162.124 155.174 164.025 154.449C164.175 154.478 164.175 154.478 163.882 154.578L165.462 154.282L165.109 154.482L167.67 153.774L167.652 153.86C169.382 153.593 172.075 153 174.307 152.563L173.972 152.677C175.169 152.351 175.762 152.31 176.288 152.212C176.773 152.128 177.216 152.057 178.053 151.774C178.012 151.788 177.928 151.816 177.886 151.83L179.484 151.449L179.173 151.634C180.255 151.107 182.591 151.115 181.824 151.055C182.427 150.771 183.558 150.387 183.701 150.259C185.424 149.835 184.168 150.26 185.246 150.135C186.508 149.867 186.645 149.581 188.375 149.314L188.357 149.4C189.135 149.217 189.613 148.975 190.684 148.691L190.349 148.805C192.083 148.137 192.696 148.569 193.914 147.756C194.674 147.659 196.08 147.262 196.111 147.492C198.312 146.825 200.011 146.329 202.17 145.677C202.627 145.923 202.655 145.593 204.026 145.368L203.869 145.181C206.949 144.217 210.619 143.613 213.992 142.549L214.149 142.736L214.77 142.366C218.443 141.36 223.204 139.986 226.1 139.164C227.038 138.766 228.413 138.14 229.902 137.715L229.735 137.772C231.032 137.332 232.348 136.806 233.729 136.337C235.11 135.869 236.492 135.4 237.915 134.918C237.772 135.046 238.089 135.019 237.779 135.204C238.376 134.762 239.453 134.636 240.039 134.438L239.279 134.535C240.026 134.122 241.246 133.868 241.714 133.87L242.938 133.214C243.022 133.186 243.172 133.215 243.214 133.201L243.399 133.058L244.142 133.047C244.452 132.861 246.127 132.293 246.574 131.822C246.723 131.851 247.896 131.454 246.999 131.838L251.663 130.176L250.927 130.346C250.77 130.159 252.103 129.547 252.881 129.363C251.967 129.833 252.895 129.678 253.338 129.608C253.917 129.252 252.745 129.649 253.031 129.392C253.778 128.979 255.403 128.267 255.846 128.197L255.41 128.425C256.474 127.984 257.074 128.101 258.096 127.675C259.01 127.205 259.746 127.035 259.439 126.819C260.772 126.207 260.057 126.85 260.517 126.694C261.114 126.251 263.04 125.598 263.339 125.657C263.923 124.898 267.041 124.321 267.212 123.863L268.391 123.623C268.408 123.537 268.52 123.179 269.417 122.795C270.32 122.569 270.184 122.855 270.46 122.842L270.9 122.213C273.436 121.433 276.227 120.166 279.15 119.015C280.567 118.374 282.049 117.792 283.466 117.151C284.907 116.583 286.323 115.942 287.638 115.416C289.944 114.234 292.872 112.681 295.621 111.429L295.31 111.614C296.249 111.216 297.146 110.832 298.06 110.362C297.414 110.661 296.703 110.902 296.033 111.129C296.612 110.773 297.048 110.545 297.627 110.188C300.628 108.851 304.668 107 308.234 104.991C310.411 103.292 309.933 104.495 312.033 102.982C311.848 103.125 311.789 103.225 311.646 103.354C314.005 101.913 315.264 101.086 317.574 99.5022C317.494 100.09 319.127 98.5755 319.015 98.9337L319.152 98.6473C319.738 98.4486 321.004 97.779 320.844 97.9936L321.828 97.1796L322.002 97.2806C323.412 96.4824 326.301 94.5422 327.211 94.4736C328.858 93.2748 331.025 91.8196 333.3 90.4078C334.459 89.6948 335.617 88.9818 336.751 88.197C337.886 87.4123 339.002 86.7135 340.077 86.0289C340.583 85.457 341.801 84.6438 342.792 83.9876L343.898 83.5326C344.865 82.8046 345.734 81.7894 346.69 81.3052C346.69 81.3052 346.672 81.3911 346.589 81.4195C347.555 80.6915 348.529 80.1213 349.363 79.2781C350.414 78.5217 351.513 77.9089 351.275 78.3096C351.244 78.08 351.823 77.7236 352.402 77.3671C352.982 77.0106 353.519 76.6682 353.519 76.6682C353.519 76.6682 354.384 76.0546 355.864 74.9125C357.386 73.7562 359.546 72.1433 362.129 69.9868C363.399 68.9157 364.837 67.7878 366.31 66.4879C367.783 65.188 369.315 63.788 370.973 62.3454C374.222 59.4025 377.667 56.0731 381.081 52.5141C381.528 52.0424 381.957 51.6568 382.404 51.1851C382.851 50.7134 383.256 50.2559 383.703 49.7842C384.555 48.855 385.406 47.9258 386.234 46.9248C387.086 45.9957 387.913 44.9947 388.741 43.9937C389.568 42.9927 390.395 41.9918 391.223 40.9908C394.425 36.9435 397.494 32.781 400.096 28.6168C402.74 24.4385 405.007 20.3879 406.778 16.6654C408.55 12.943 409.868 9.5344 410.627 6.95566C410.785 6.18179 411.338 4.23334 410.981 4.83442C411.447 3.31589 411.852 2.85841 411.789 2.39927C411.454 3.47368 411.398 3.17232 411.367 2.94276C411.336 2.71318 411.305 2.48361 410.938 3.32844C411.067 2.88433 411.155 2.4544 411.284 2.01028C411.27 1.69473 410.874 3.83017 410.812 3.37103L410.923 3.97374C410.539 4.90456 410.283 5.39128 410.105 5.69182C409.829 6.66604 409.912 7.59851 408.892 9.54531L409.122 8.98681C408.388 10.6765 408.522 9.83084 408.344 10.1314L408.497 9.75905L407.767 11.0472C408.344 10.1314 408.914 8.09695 408.554 9.09957C407.617 11.018 408.833 8.68464 408.218 10.174C407.833 11.1048 407.837 10.7033 407.789 10.5597L407.03 12.1776C406.982 12.034 407.558 11.1182 407.135 11.6616C406.87 12.3921 406.538 13.065 406.272 13.7954C406.063 13.8664 405.832 14.4249 405.542 15.0836C405.252 15.7423 404.92 16.4151 404.592 16.6865C405.273 15.2547 404.466 16.729 404.495 16.3993L403.569 18.0739L402.619 19.6768C402.416 19.9056 403.045 18.7318 402.79 19.2185C402.368 19.762 402.262 20.2779 402.067 20.6644C401.966 20.7788 401.609 21.3799 401.271 21.895C400.932 22.4101 400.569 22.8534 400.52 22.7098C399.099 24.7125 400.125 23.8844 398.78 25.701C398.554 25.8579 399.772 24.0839 399.106 24.8703C398.69 25.5716 398.208 26.2152 397.792 26.9165C397.887 26.6443 397.915 26.3146 398.414 25.585C397.451 26.8723 396.606 27.9593 395.803 29.032C394.951 29.9612 394.183 30.862 393.415 31.7628C393.052 32.2061 392.647 32.6636 392.284 33.1069C391.92 33.5502 391.515 34.0077 391.11 34.4652C390.301 35.3802 389.515 36.3669 388.652 37.5399C388.056 37.9824 388.967 36.953 389.239 36.3803C388.021 38.1543 386.977 39.0685 386.042 40.0261C385.106 40.9836 384.164 41.7834 383.008 43.0557L383.015 43.2135C382.156 43.9849 381.238 44.8565 380.345 45.7999C379.451 46.7433 378.491 47.6291 377.556 48.5866C376.62 49.5442 375.643 50.516 374.666 51.4877C373.664 52.3877 372.686 53.3595 371.727 54.2453L372.222 53.9171C371.74 54.5608 370.906 55.404 370.299 56.0903C370.173 56.1329 370.606 55.3456 369.51 56.5177C369.779 56.3466 370.25 55.9467 370.173 56.1329C369.29 56.8325 368.18 57.689 366.91 58.7602C365.639 59.8313 364.292 61.0886 362.771 62.2449C361.273 63.473 359.692 64.7294 358.153 65.9717C357.742 66.2714 357.396 66.6287 356.984 66.9284C356.572 67.2282 356.202 67.5137 355.833 67.7992C355.051 68.3845 354.311 68.9555 353.571 69.5265C345.792 75.7663 336.89 81.5863 328.788 86.735C330.006 85.9218 329.656 86.6806 328.7 87.1649C327.277 87.6475 326.227 88.4039 325.11 89.1027C323.993 89.8015 322.901 90.5721 321.502 91.1265C319.126 92.6526 316.844 93.9066 314.58 95.0747C312.315 96.2427 310.075 97.4825 307.908 98.9377L307.776 98.8225C307.089 99.1356 306.928 99.3501 306.223 99.7492L306.199 99.6774C304.472 100.503 302.507 101.73 301.485 102.156L301.516 102.386C300.518 102.884 300.948 102.499 299.957 103.155L299.95 102.997L298.816 103.782C298.82 103.38 295.948 105.234 295.086 105.447C293.778 106.13 291.328 107.441 289.308 108.366C288.883 108.35 286.385 109.518 284.777 110.143C283.259 110.898 281.382 111.694 279.404 112.605C277.426 113.516 275.34 114.384 273.379 115.208L273.536 115.395L272.513 115.822C272.489 115.75 272.363 115.793 272.531 115.736C271.621 115.805 270.2 116.846 269.273 117.001C269.89 117.032 270.026 116.745 270.588 116.475C271.491 116.249 270.751 116.82 269.555 117.145L269.572 117.059L268.826 117.473C268.693 117.357 267.916 117.541 267.759 117.354C264.357 118.748 262.142 120.059 258.566 121.352C258.87 121.009 256.019 122.375 256.609 121.775C254.505 122.729 257.083 121.935 256.176 122.562C255.59 122.761 254.969 123.132 254.836 123.017C255.105 122.845 254.261 122.972 254.763 122.801L253.364 123.356C253.239 123.398 253.508 123.227 253.651 123.098C250.818 124.379 248.394 124.801 245.896 125.968C245.735 126.183 246.942 125.613 246.782 125.828C244.266 127.081 244.389 126.479 241.992 127.532L242.445 127.218C241.699 127.631 241.413 127.888 240.024 128.199C239.7 128.069 241.106 127.672 241.685 127.316C240.764 127.628 238.528 128.466 239.288 128.369C238.224 128.809 237.775 128.722 237.188 128.921C237.213 128.992 238.242 128.723 237.638 129.008C236.124 129.361 233.888 130.2 232.064 130.738C232.04 130.666 231.89 130.637 232.057 130.58C231.132 131.294 231.112 130.821 229.144 131.488Z" fill="#15B7DC"/>
<path d="M130.292 154.761L131.052 154.663C131.028 154.591 131.069 154.577 131.404 154.464L130.292 154.761Z" fill="#15B7DC"/>
<path d="M175.243 147.203C174.633 147.33 175.184 147.303 175.501 147.276C175.518 147.19 175.518 147.19 175.243 147.203Z" fill="#15B7DC"/>
<path d="M109.516 157.083C109.642 157.04 109.725 157.012 109.701 156.941C109.492 157.012 109.451 157.026 109.516 157.083Z" fill="#15B7DC"/>
<path d="M49.9698 154.221C50.0776 154.264 50.1194 154.25 50.2272 154.293C50.1611 154.236 50.1194 154.25 49.9698 154.221Z" fill="#15B7DC"/>
<path d="M53.3825 155.065C53.5324 155.094 53.7661 155.095 54.0659 155.153C53.7661 155.095 53.5743 155.08 53.3825 155.065Z" fill="#15B7DC"/>
<path d="M123.546 155.928C123.78 155.928 123.947 155.872 124.156 155.801C123.797 155.843 123.63 155.9 123.546 155.928Z" fill="#15B7DC"/>
<path d="M48.919 154.016C49.2607 154.061 49.7105 154.148 50.0103 154.207C49.5362 154.047 49.1945 154.003 48.919 154.016Z" fill="#15B7DC"/>
<path d="M88.0136 157.811C88.0553 157.796 88.0553 157.796 88.0971 157.782C88.7295 157.727 88.3298 157.783 88.0136 157.811Z" fill="#15B7DC"/>
<path d="M58.4052 155.283C58.4469 155.268 58.4886 155.254 58.513 155.326L58.7459 155.327L58.4052 155.283Z" fill="#15B7DC"/>
<path d="M45.2375 153.344C45.3874 153.373 45.5373 153.402 45.6629 153.36C45.513 153.331 45.363 153.301 45.1713 153.286C45.2131 153.272 45.2375 153.344 45.2375 153.344Z" fill="#15B7DC"/>
<path d="M75.4871 156.935C75.2785 157.005 75.195 157.034 75.1776 157.12C75.4524 157.107 75.6436 157.122 75.4871 156.935Z" fill="#15B7DC"/>
</svg>
