<svg width="464" height="293" viewBox="0 0 464 293" fill="none" xmlns="http://www.w3.org/2000/svg">
<path d="M326.267 61.0979C326.309 61.0839 326.309 61.0839 326.326 60.999C326.285 61.0131 326.267 61.0979 326.267 61.0979Z" fill="#15B7DC"/>
<path d="M299.083 58.6909L299.4 58.6629C299.208 58.6483 299.125 58.6767 299.083 58.6909Z" fill="#15B7DC"/>
<path d="M342.735 63.6134C342.952 63.7004 343.294 63.7446 343.853 63.8759C343.462 63.6878 343.119 63.6435 342.735 63.6134Z" fill="#15B7DC"/>
<path d="M242.885 62.2717L243.244 62.2296C243.094 62.2009 242.969 62.2434 242.885 62.2717Z" fill="#15B7DC"/>
<path d="M275.927 58.925C275.843 58.9534 275.675 59.0103 275.483 58.9958C275.675 59.0103 275.867 59.0247 275.927 58.925Z" fill="#15B7DC"/>
<path d="M351.761 67.2085L351.262 66.9765C351.287 67.0484 351.461 67.1497 351.761 67.2085Z" fill="#15B7DC"/>
<path d="M361.873 68.3493C361.723 68.3201 361.573 68.2908 361.381 68.2758C361.597 68.3627 361.855 68.4354 361.873 68.3493Z" fill="#15B7DC"/>
<path d="M72.2271 170.33C71.9054 170.76 71.7094 171.147 71.4958 171.62L72.2271 170.33Z" fill="#15B7DC"/>
<path d="M194.688 75.2455L194.747 75.1466C194.688 75.2455 194.688 75.2455 194.688 75.2455Z" fill="#15B7DC"/>
<path d="M72.504 171.84L72.2602 172.083C72.3438 172.054 72.403 171.954 72.504 171.84Z" fill="#15B7DC"/>
<path d="M342.946 66.0275C342.502 66.0977 341.469 65.8068 341.493 65.8787C342.027 65.938 342.761 66.1705 342.946 66.0275Z" fill="#15B7DC"/>
<path d="M72.5051 171.839L72.7664 171.51C72.7246 171.525 72.6828 171.539 72.641 171.553C72.5818 171.653 72.5225 171.753 72.5051 171.839Z" fill="#15B7DC"/>
<path d="M148.085 98.9852C148.127 98.9712 148.127 98.9712 148.085 98.9852C148.127 98.9712 148.168 98.9571 148.186 98.8723L148.085 98.9852Z" fill="#15B7DC"/>
<path d="M145.632 100.299C145.776 100.171 145.919 100.042 146.104 99.8988C145.859 100.142 145.758 100.257 145.632 100.299Z" fill="#15B7DC"/>
<path d="M71.4958 171.62L71.1038 172.395C71.2404 172.108 71.3593 171.907 71.4958 171.62Z" fill="#15B7DC"/>
<path d="M278.075 58.9188C278.117 58.9046 278.267 58.9334 278.308 58.9192C278.35 58.905 278.326 58.8337 278.075 58.9188Z" fill="#15B7DC"/>
<path d="M259.277 64.0093C258.917 64.0518 258.456 64.2081 258.204 64.2935C258.564 64.251 258.882 64.2228 259.277 64.0093Z" fill="#15B7DC"/>
<path d="M255.853 64.5294C255.895 64.5154 255.936 64.5013 256.002 64.558C255.895 64.5154 255.895 64.5154 255.853 64.5294Z" fill="#15B7DC"/>
<path d="M273.679 63.0552C273.571 63.0116 273.488 63.04 273.338 63.0106C273.446 63.0541 273.596 63.0835 273.679 63.0552Z" fill="#15B7DC"/>
<path d="M205.718 77.44C209.642 76.1897 214.625 74.3397 218.514 73.2616C219.279 72.7615 220.495 72.3492 221.753 71.9226L222.001 72.2395L223.007 71.8983C223.476 71.9 222.211 72.1685 223.039 72.1283L223.343 71.7846C223.476 71.9 226.106 71.2484 224.37 71.9175L228.475 70.9263C229.38 70.6996 228.881 70.468 229.96 70.3426C230.219 70.4153 229.649 70.5282 229.715 70.5859C232.804 70.1802 232.99 69.0747 235.862 68.582L235.61 68.6673C236.047 68.439 236.976 68.2842 236.952 68.2123C236.47 67.8946 236.498 68.5268 235.603 68.5093C235.59 68.1932 236.627 68.0819 236.512 67.8804C237.19 67.8109 237.519 67.5392 238.088 67.4262C239.132 67.473 240.541 67.0757 241.333 67.2078C241.795 67.0514 242.267 66.6508 243.322 66.4534C244.156 66.5713 243.227 66.726 244.265 66.6147L244.384 66.4141C245.229 66.2877 245.128 66.4023 245.11 66.4884C245.997 66.3479 245.774 66.1029 246.92 66.0351L246.357 66.3061C247.178 66.1078 247.538 66.066 248.702 65.9121C248.684 65.9982 248.24 66.0685 247.881 66.1103C248.589 66.2708 248.953 65.8268 249.271 65.7992C249.163 65.7557 248.359 65.8678 248.688 65.596C249.282 65.555 249.838 65.126 250.313 65.2857L249.75 65.5566C250.906 65.2446 250.33 65.1995 251.727 65.0464C251.644 65.0749 251.71 65.1326 251.668 65.1468C252.063 64.9327 252.549 64.8482 253.142 64.8072C253.694 64.7804 254.33 64.7252 255.008 64.6557L254.756 64.741C255.284 64.6423 255.487 64.4132 255.805 64.3856C255.036 64.3254 255.204 64.2685 255.113 64.1389C256.164 64.3437 256.514 63.5836 258.153 63.5894C258.135 63.6755 257.782 63.8754 257.332 63.7876C256.86 64.1882 256.849 64.4323 255.902 64.6732C256.514 64.5461 257.209 64.3905 257.09 64.5912L257.226 64.3044C257.586 64.2625 257.904 64.2349 258.18 64.2215C258.299 64.0208 257.363 64.0175 258.184 63.8193C259.131 63.5784 258.767 64.0225 258.869 63.9079C260.175 63.6252 259.34 63.5074 260.636 63.4688C260.511 63.5115 260.301 63.5825 260.151 63.5533C261.087 63.5566 262.394 63.2739 262.725 63.5623C262.624 63.6769 262.606 63.763 262.246 63.8049L262.222 63.7329C261.282 64.1319 263.043 63.5347 262.805 63.9361C262.69 63.7346 263.962 63.6241 264.58 63.655L264.339 63.4962C266.111 62.6548 264.335 63.8984 266.218 63.6608C267.375 63.3488 265.75 63.6591 266.463 63.4174C267.291 63.3772 267.658 63.4935 268.821 63.3395C269.163 63.3838 269.89 63.4582 270.029 63.7316C270.725 63.576 272.303 63.6821 272.656 63.4823C271.353 63.3628 271.458 63.8085 269.939 63.602L270.267 63.3302C271.287 63.3051 272.576 63.1085 273.278 63.111C273.128 63.0817 273.062 63.024 273.121 62.9237C274.561 62.7563 274.931 62.4703 276.336 62.4753C276.601 62.706 275.748 62.6743 275.113 62.7295C276.073 62.8047 276.091 62.7186 277.471 62.6516C277.586 62.8531 276.517 62.7345 276.374 62.8633L277.921 62.7394C277.921 62.7394 277.921 62.7394 277.946 62.8113C278.124 62.5103 279.158 62.8012 280.087 62.6464C282.337 62.5251 282.592 62.0375 283.815 61.7833C284.182 61.8995 284.29 61.9429 284.164 61.9856C283.563 61.8686 283.696 61.984 283.528 62.0408C284.314 62.0149 285.306 62.32 284.887 62.4622C286.116 62.3659 284.412 62.3025 285.131 62.2188L286.812 62.2104C286.571 62.0515 285.953 62.0206 286.84 61.8801C287.56 61.7964 287.902 61.8407 288.88 61.8298C288.754 61.8724 289.253 62.104 288.485 62.0439C288.977 62.1174 289.68 62.1199 289.949 61.9484C288.88 61.8298 291.622 61.7819 290.805 61.578L291.874 61.6966C291.64 61.6958 291.622 61.7819 291.238 61.7519C291.587 61.9542 292.108 61.6974 292.468 61.6556C292.852 61.6857 293.788 61.689 293.921 61.8044C294.214 61.7048 295.091 61.8085 295.265 61.9096C295.751 61.8252 295.259 61.7516 295.426 61.6947L297.106 61.6863C297.239 61.8017 297.469 62.2047 297.193 62.2181C297.805 62.0909 297.347 61.8451 298.283 61.8484C297.763 62.1052 299.635 62.1117 298.88 62.3677C299.463 62.5708 301.06 62.5908 301.912 62.6225C302.415 62.4519 300.927 62.4754 300.938 62.2312C303.362 62.211 303.401 61.6365 305.238 61.8154L304.746 61.7418C305.85 61.6882 305.7 61.659 306.353 61.5176C306.108 61.761 307.767 62.2408 309.597 62.2616C309.741 62.1328 308.522 61.9849 308.766 61.7416L309.979 61.7315C310.087 61.7749 309.961 61.8176 309.769 61.8025C310.873 61.749 311.896 62.2841 312.182 62.0265L313.373 62.5047L312.898 62.345C313.042 62.2163 314.278 62.2781 314.512 62.2789C315.766 62.2545 316.241 62.4142 316.95 62.5747C316.709 62.4159 316.102 62.1408 317.104 62.2018C317.167 62.6617 319.224 62.5253 319.255 62.7552C319.64 62.7853 320.39 62.9316 320.384 62.7735L320.373 63.0177C320.401 62.6874 321.872 62.75 322.982 62.8545C322.811 63.3136 324.243 62.9882 324.774 63.4497C324.952 63.1487 326.779 63.5717 326.915 63.2849C327.792 63.3885 327.739 63.6469 327.98 63.8058L328.382 63.7497C328.839 63.9955 330.484 64.1593 331.494 64.3783L332.357 64.1659L332.706 64.3682C332.832 64.3256 333.576 64.3138 333.101 64.1541L333.593 64.2277C333.58 63.9116 334.253 64.2444 335.232 64.2334C335.448 64.3204 335.43 64.4065 335.196 64.4057C335.689 64.4792 335.504 64.6222 335.786 64.7669C335.42 64.6507 337.453 64.4423 336.119 64.0929C336.028 63.9633 336.772 63.9515 337.247 64.1112L337.603 64.4716L338.124 64.2149C338.892 64.275 339.224 64.5635 339.866 64.6663C339.224 64.5635 338.542 65.0351 340.17 65.2851C339.335 65.1672 338.916 65.3094 338.49 65.2935C338.832 65.3378 339.006 65.439 338.496 65.4516C339.757 65.5853 338.874 65.3236 340.135 65.4573C340.124 65.7015 340.449 65.8319 341.566 66.0944L340.7 65.7466C340.742 65.7324 340.784 65.7182 340.826 65.7039C340.526 65.6454 340.418 65.602 340.327 65.4723C340.585 65.5451 341.749 65.3912 341.948 65.5642C340.624 64.9706 344.096 65.5574 343.272 65.1954C343.398 65.1527 344.274 65.2564 344.389 65.4579C343.369 65.483 345.238 65.8918 345.052 66.0348C345.437 66.0649 344.187 65.687 344.697 65.6744C345.339 65.7772 345.797 66.0231 346.163 66.1393L345.929 66.1385L346.921 66.4436C347.064 66.3148 345.947 66.0523 346.823 66.156C347.04 66.2429 347.958 66.3323 347.941 66.4185C347.564 66.5464 347.895 66.8349 347.102 66.7028C347.745 66.8056 349.739 67.1717 348.891 66.7378L349.642 66.8841C349.142 66.6525 347.784 66.2311 349.328 66.5095L349.352 66.5814L350.372 66.5563L350.871 66.7879C350.847 66.716 351.015 66.6591 351.381 66.7753C351.514 66.8907 351.881 67.0069 351.863 67.093C352.998 67.2694 352.866 67.154 353.033 67.0971C353.676 67.1999 353.917 67.3588 353.641 67.3722C354.5 67.562 356.026 67.9264 356.609 68.1296C357.786 68.2917 356.393 68.0426 357.029 67.9874C357.552 68.2909 358.544 68.5961 359.595 68.8009C360.671 69.0776 361.848 69.2397 362.815 69.473C362.26 68.9395 363.308 69.5465 363.636 69.2747C363.235 69.3308 365.477 70.0138 363.825 69.692L364.834 69.911C365.574 70.3015 363.164 69.6753 364.229 70.1962C365.347 70.4587 366.06 70.217 367.442 70.7102C367.023 70.8524 368.494 70.915 368.141 71.1149C367.865 71.1283 367.498 71.0121 367.089 70.9101L367.33 71.069C369.831 71.8247 368.026 70.9134 369.311 71.119C370.837 71.4835 370.526 71.6692 370.641 71.8707C370.882 72.0295 371.633 72.1758 372.017 72.2059C371.098 72.1165 370.285 71.5103 370.687 71.4543C371.368 71.945 372.929 72.1373 373.355 72.1531C371.141 71.1398 371.846 71.7025 369.758 70.6465C369.483 70.6599 369.538 70.9618 368.305 70.4978C369.074 70.5579 368.257 70.354 368.016 70.1951C368.281 70.4259 367.157 70.0053 366.773 69.9753C366.423 69.7729 367.468 69.8197 366.193 69.3699L365.973 69.6852C365.498 69.5255 366.134 69.4703 365.124 69.2512C365.676 69.2244 364.919 68.9201 366.337 69.2411C364.622 68.4594 363.784 68.7437 362.498 68.5381C362.648 68.5674 362.624 68.4955 362.774 68.5247C362.498 68.5381 362.006 68.4646 361.639 68.3484C360.798 68.0725 362.299 68.365 362.058 68.2062L360.682 67.871L360.616 67.8133C360.274 67.769 359.932 67.7247 359.799 67.6093C360.201 67.5532 360.368 67.4963 360.603 67.4972L359.174 67.4203C359.317 67.2916 357.941 66.9563 358.968 67.0892L356.824 66.6938L356.618 66.3627C356.125 66.2892 356.108 66.3753 356.709 66.4923C355.975 66.2599 353.485 66.2224 353.806 65.7926C352.996 65.7467 352.395 65.6296 351.795 65.5126C351.194 65.3956 350.509 65.307 349.483 65.1741C351.037 65.2083 347.625 64.5211 349.294 64.7568C348.303 64.4517 348.166 64.7385 347.373 64.6065C346.64 64.374 346.951 64.1884 347.695 64.1766L346.801 64.1591L346.818 64.073L346.032 64.099C345.191 63.8231 345.827 63.7678 344.926 63.5923L344.765 63.8072L344.157 63.5322C344.398 63.691 343.864 63.6317 343.263 63.5146L343.239 63.4427C342.98 63.37 342.746 63.3692 342.47 63.3826C343.214 63.3708 341.761 63.2221 342.097 63.1083C341.454 63.0055 341.412 63.0197 340.235 62.8576L340.476 63.0164C338.939 62.8961 340.378 62.7288 339.117 62.5951L339.232 62.7966C337.399 62.2156 336.243 62.5275 334.884 62.1062C335.653 62.1663 335.429 61.9213 335.412 62.0075C334.301 61.903 332.415 61.5804 331.269 61.6482C330.788 61.3304 330.655 61.2151 329.453 60.981C328.577 60.8774 328.451 60.92 328.199 61.0053C327.34 60.8156 325.786 60.7814 325.671 60.5799C325.486 60.7229 324.878 60.4478 324.434 60.5181L324.302 60.4027L324.417 60.6042C322.817 60.024 321.902 60.4948 320.351 60.0584L320.627 60.045L319.991 60.1003C319.859 59.9849 320.135 59.9715 320.152 59.8853L317.204 59.6021L317.829 59.791C317.211 59.7601 316.834 59.8881 316.083 59.7418C317.222 59.5159 315.122 59.6666 314.857 59.4358L315.451 59.3948C314.599 59.3631 314.599 59.3631 314.714 59.5646C313.586 59.5463 313.865 59.1307 312.894 59.2996L313.621 59.374C313.862 59.5329 313.376 59.6173 312.842 59.558C312.733 59.5145 312.367 59.3983 312.751 59.4284C311.857 59.4109 310.529 59.2195 310.17 59.2613C309.677 59.1878 309.82 59.059 310.03 58.9879C308.182 59.0532 309.153 58.8843 307.33 59.0215L307.347 58.9354L306.736 59.0625L305.769 58.8293L306.135 58.9455C305.517 58.9146 305.182 59.0283 304.431 58.8821L304.7 58.7106C302.978 58.7333 302.622 58.3729 301.032 58.511C300.924 58.4675 301.158 58.4684 301.284 58.4257C299.803 58.6072 300.058 58.1197 298.601 58.3732C298.685 58.3447 298.51 58.2436 298.552 58.2294L297.875 58.2988L297.885 58.0546L297.365 58.3114L296.865 58.0798L296.614 58.1651C295.765 57.7312 294.801 58.0582 293.725 57.7815L293.949 58.0264C291.485 58.6211 288.024 57.7902 284.996 58.0956L285.006 57.8514L283.784 58.1057C283.075 57.9452 284.137 57.9058 283.92 57.8189C282.565 57.9578 283.424 58.1475 281.852 58.1995C281.017 58.0816 282.121 58.028 282.456 57.9143C281.017 58.0816 278.858 58.3326 277.772 58.3001C277.73 58.3143 277.712 58.4004 277.754 58.3862C276.783 58.5552 275.463 58.5218 274.401 58.5612C274.418 58.475 274.694 58.4616 274.946 58.3763C274.561 58.3463 274.01 58.373 273.716 58.4726L274.069 58.2727C273.241 58.3129 271.676 58.5229 271.435 58.364C271.543 58.4075 271.55 58.5655 270.83 58.6492C270.349 58.3315 268.906 58.901 267.711 58.825C267.812 58.7104 268.682 58.656 268.406 58.6694C267.83 58.6243 267.327 58.7949 266.865 58.9513L267.009 58.8225L264.413 59.3018C263.956 59.056 261.919 59.6666 262.055 59.3797C261.101 59.4626 262.865 59.4257 261.702 59.5796C261.335 59.4634 260.647 59.777 260.616 59.5471L260.742 59.5044L259.896 59.6307L260.375 59.3882C259.68 59.5438 259.201 59.7863 259.208 59.9443C258.506 59.9419 257.534 60.1109 257.21 59.9804L257.461 59.8951C255.561 60.2188 254.111 59.6679 252.71 60.2232C252.602 60.1797 252.602 60.1797 252.812 60.1086C252.41 60.1647 252.008 60.2207 251.648 60.2626C251.708 60.1622 251.792 60.1338 251.917 60.0911L250.048 60.6448L250.066 60.5587C248.776 60.7553 246.792 61.1074 245.167 61.4178L245.419 61.3324C243.651 61.7716 243.662 61.5274 242.379 61.882C242.421 61.8678 242.463 61.8536 242.505 61.8394L241.324 62.0794L241.551 61.9222C240.737 62.2785 238.984 62.0712 239.56 62.1163C239.099 62.2727 238.26 62.5571 238.183 62.7436C236.894 62.9401 237.817 62.6274 237.013 62.7395C236.084 62.8942 235.965 63.0949 234.718 63.2773L234.735 63.1911C234.166 63.3041 233.813 63.5039 233.034 63.6879L233.285 63.6026C232.01 64.1153 231.545 63.7114 230.661 64.4122C230.067 64.4532 229.061 64.7945 229.03 64.5645C227.436 65.1048 226.196 65.4452 224.578 65.9136C224.205 65.6393 224.243 66.0273 223.181 66.0667L223.338 66.254C222.181 66.566 220.91 66.6764 219.62 66.873C218.356 67.1415 217.049 67.4242 215.791 67.8507L215.634 67.6635L215.204 68.0498C212.514 68.8017 209.002 69.7518 206.881 70.3908C206.193 70.7044 205.218 71.2756 204.079 71.5015L204.204 71.4588C203.24 71.7858 202.3 72.1847 201.294 72.526C200.312 72.9391 199.263 73.2946 198.233 73.5639C198.334 73.4493 198.1 73.4485 198.327 73.2913C197.897 73.6776 197.111 73.7036 196.65 73.86L197.244 73.819C196.73 74.2338 195.818 74.3024 195.458 74.3442C195.189 74.5157 194.878 74.7013 194.609 74.8728C194.567 74.887 194.417 74.8577 194.417 74.8577L194.273 74.9865L193.697 74.9414C193.47 75.0986 192.303 75.6547 191.998 75.9984C191.89 75.955 191.01 76.2535 191.656 75.9541L188.267 77.2638L188.836 77.1509C188.993 77.3382 187.994 77.8375 187.424 77.9504C188.064 77.493 187.369 77.6485 187.051 77.6761C186.638 77.9764 187.519 77.6778 187.292 77.835C186.753 78.1779 185.61 78.8059 185.251 78.8478L185.562 78.6621C184.814 79.0761 184.339 78.9164 183.566 79.2584C182.927 79.7159 182.399 79.8146 182.664 80.0453C181.707 80.5304 182.196 80.0437 181.878 80.0713C181.49 80.4434 180.065 80.9269 179.806 80.8541C179.432 81.5423 177.13 81.9221 177.066 82.4247L176.179 82.5652C176.161 82.6513 176.133 82.9816 175.511 83.3529C174.858 83.4943 174.935 83.3078 174.701 83.307L174.428 83.8806C172.583 84.5062 170.566 85.5909 168.525 86.6037C166.442 87.6306 164.342 88.7437 162.402 89.6419C161.595 90.1562 160.662 90.7132 159.711 91.3563C158.736 91.9275 157.743 92.5848 156.768 93.156L156.953 93.013L154.979 94.0834L156.439 93.4277C156.027 93.728 155.74 93.9855 155.345 94.1996C153.137 95.2693 150.313 96.8682 147.796 98.6838C146.327 100.144 146.555 99.0242 145.104 100.398C145.206 100.284 145.265 100.183 145.367 100.069C143.741 101.341 142.857 102.042 141.256 103.387C141.253 102.827 140.162 104.159 140.232 103.814L140.179 104.073C139.76 104.215 138.893 104.829 138.946 104.571L138.295 105.273L138.163 105.157C137.17 105.815 135.156 107.46 134.454 107.457C133.307 108.487 131.783 109.646 130.2 110.904C128.592 112.091 126.882 113.392 125.4 114.536C125.036 114.98 124.194 115.667 123.537 116.21L122.723 116.566C122.09 117.182 121.488 118.027 120.782 118.427C120.782 118.427 120.8 118.341 120.842 118.327C120.167 118.956 119.461 119.356 118.919 120.101C118.16 120.759 117.395 121.26 117.524 120.815C117.604 121.188 115.899 122.087 115.899 122.087C115.899 122.087 115.283 122.617 114.214 123.461C113.168 124.376 111.609 125.707 109.763 127.295C106.054 130.557 101.061 135.136 95.9879 140.304C90.9145 145.472 85.7182 151.243 81.3956 156.557C77.0731 161.872 73.6905 166.787 71.9725 169.855C71.8253 170.386 71.1291 171.504 71.524 171.29C71.0062 172.107 70.5869 172.249 70.5343 172.508C71.3631 171.505 70.5441 173.226 71.4217 172.367L70.9634 173.084C70.9527 173.328 71.5338 172.008 71.5299 172.411L71.4675 171.951C71.8731 171.492 72.1179 171.249 72.3275 171.178C72.6425 170.59 72.6327 169.872 73.6117 168.898L73.3913 169.214C74.0943 168.254 73.9471 168.785 74.1324 168.642L73.9715 168.857L74.6882 168.213C74.1568 168.714 73.5513 169.961 73.9325 169.431C74.8452 168.4 73.6878 169.674 74.265 168.757C74.6463 168.227 74.6599 168.543 74.6843 168.615L75.3874 167.655C75.4361 167.799 74.9047 168.3 75.2752 168.014L76.0904 166.695C76.4571 166.811 77.007 165.262 77.594 165.063C76.9748 165.994 77.7022 165.106 77.6915 165.35L79.3248 163.273C79.5101 163.13 78.926 163.889 79.1883 163.56C79.5588 163.274 79.6466 162.843 79.8075 162.628C80.0171 162.557 81.0419 161.167 81.1395 161.455C82.3632 160.238 81.4651 160.623 82.5631 159.449C82.7971 159.45 81.7343 160.452 82.3145 160.095L83.4056 158.762C83.3286 158.949 83.3422 159.265 82.8703 159.665C84.4158 158.019 85.6883 156.946 86.9189 155.887C88.1495 154.829 89.3138 153.712 90.6916 152.123C91.1704 151.88 90.4537 152.524 90.2821 152.983C92.1776 150.576 93.3342 150.264 95.0406 148.403L94.9918 148.259C96.3306 147.244 97.6977 145.898 99.0824 144.467C100.491 143.107 101.918 141.661 103.393 140.359L102.998 140.573C103.296 140.071 103.929 139.456 104.352 138.912C104.46 138.955 104.187 139.529 104.981 138.698C104.796 138.841 104.401 139.055 104.502 138.941C107.096 136.939 112.267 132.058 116.479 128.626C121.986 123.632 128.358 118.985 134.042 114.653C133.2 115.339 133.382 114.636 134.046 114.25C136.143 113.539 137.112 111.848 139.177 110.907C142.446 108.275 145.745 106.836 148.737 104.218L148.87 104.333C149.39 104.076 149.468 103.89 149.964 103.561L149.988 103.633C151.215 102.977 152.571 101.875 153.277 101.475L153.246 101.246C153.928 100.774 153.69 101.175 154.389 100.617L154.438 100.761L155.214 100.017C155.294 100.391 157.248 98.8462 157.877 98.633C158.786 98.0041 160.478 96.789 161.914 96.0614C162.256 96.1057 164.021 95.1063 165.147 94.5644C166.248 93.9506 167.509 93.1218 168.946 92.3943C170.34 91.6809 171.836 90.853 173.255 90.2115L173.098 90.0242L173.804 89.6245C173.828 89.6964 173.912 89.668 173.828 89.6964C174.506 89.627 175.467 88.7397 176.145 88.6702C175.677 88.6686 175.6 88.8551 175.205 89.0692C174.576 89.2824 175.041 88.7238 175.904 88.5114L175.929 88.5833L176.442 88.1685C176.575 88.2839 177.103 88.1852 177.235 88.3006C178.444 87.7302 179.462 87.1448 180.437 86.5736C180.957 86.3169 181.454 85.9882 181.974 85.7315C182.537 85.4605 183.1 85.1896 183.771 84.9621C183.592 85.2631 185.584 84.1066 185.227 84.7086C186.723 83.8807 184.878 84.5063 185.494 83.977C185.955 83.8206 186.325 83.5346 186.434 83.578C186.248 83.721 186.884 83.6658 186.507 83.7938L187.506 83.2945C187.59 83.2661 187.405 83.4091 187.304 83.5236C189.296 82.367 191.095 82.1579 192.926 81.2162C193.003 81.0297 192.171 81.4721 192.248 81.2857C194.055 80.2721 194.016 80.8465 195.722 79.9475L195.418 80.2912C195.956 79.9484 196.134 79.6473 197.148 79.4641C197.388 79.623 196.424 79.95 196.012 80.2502C196.658 79.9508 198.311 79.3102 197.717 79.3512C198.489 79.0092 198.832 79.0534 199.275 78.9832C199.251 78.9113 198.472 79.0953 198.909 78.867C200.023 78.5692 201.659 78.0147 203 77.5597C203.025 77.6317 203.133 77.6751 203.007 77.7178C204.254 77.5354 204.275 78.0095 205.718 77.44Z" fill="#15B7DC"/>
<path d="M278.731 62.7854L278.179 62.8122C278.204 62.8841 278.162 62.8983 277.91 62.9837L278.731 62.7854Z" fill="#15B7DC"/>
<path d="M251.692 65.2189C251.608 65.2473 251.566 65.2614 251.483 65.2898C251.632 65.3186 251.674 65.3044 251.692 65.2189Z" fill="#15B7DC"/>
<path d="M245.375 66.7193C245.793 66.5776 245.392 66.6332 245.135 66.5602C245.159 66.6322 245.183 66.7041 245.375 66.7193Z" fill="#15B7DC"/>
<path d="M294.153 61.8058C294.07 61.8339 293.987 61.862 294.053 61.9187C294.136 61.8906 294.177 61.8765 294.153 61.8058Z" fill="#15B7DC"/>
<path d="M338.037 65.2052C337.996 65.2192 337.93 65.1619 337.864 65.1046C337.889 65.1759 337.954 65.2333 338.037 65.2052Z" fill="#15B7DC"/>
<path d="M335.521 64.5362C335.413 64.4927 335.221 64.4777 335.029 64.4626C335.245 64.5496 335.395 64.5789 335.521 64.5362Z" fill="#15B7DC"/>
<path d="M283.696 61.9834C283.546 61.9547 283.378 62.0116 283.252 62.0543C283.486 62.0545 283.612 62.0118 283.696 61.9834Z" fill="#15B7DC"/>
<path d="M338.814 65.4239C338.556 65.3511 338.214 65.3068 338.022 65.2918C338.364 65.3361 338.622 65.4088 338.814 65.4239Z" fill="#15B7DC"/>
<path d="M310.05 61.9473L310.009 61.9614C309.525 62.046 309.8 62.0323 310.05 61.9473Z" fill="#15B7DC"/>
<path d="M331.859 64.4943C331.817 64.5084 331.817 64.5084 331.752 64.4513L331.584 64.508L331.859 64.4943Z" fill="#15B7DC"/>
<path d="M341.492 65.879C341.384 65.8354 341.259 65.8779 341.217 65.8921C341.325 65.9357 341.409 65.9073 341.559 65.9367C341.517 65.9509 341.492 65.879 341.492 65.879Z" fill="#15B7DC"/>
<path d="M319.287 62.9851C319.454 62.9284 319.471 62.8423 319.513 62.8282C319.321 62.8129 319.196 62.8555 319.287 62.9851Z" fill="#15B7DC"/>
<path d="M374.763 93.4029C374.805 93.3888 374.846 93.3748 374.822 93.304C374.739 93.3321 374.739 93.3321 374.763 93.4029Z" fill="#15B7DC"/>
<path d="M340.211 92.2916L340.611 92.2354C340.336 92.2491 340.252 92.2775 340.211 92.2916Z" fill="#15B7DC"/>
<path d="M395.849 96.4373C395.807 96.4515 395.807 96.4515 395.807 96.4515C396.149 96.4958 396.558 96.5978 397.309 96.7441L395.849 96.4373Z" fill="#15B7DC"/>
<path d="M269.483 102.242L269.902 102.1C269.717 102.243 269.567 102.214 269.483 102.242Z" fill="#15B7DC"/>
<path d="M407.365 101.031L406.757 100.756C406.782 100.828 406.998 100.915 407.365 101.031Z" fill="#15B7DC"/>
<path d="M429.153 108.478C429.084 108.419 429.109 108.492 429.153 108.478V108.478Z" fill="#15B7DC"/>
<path d="M420.566 104.252C420.373 104.237 420.157 104.15 419.94 104.064C420.199 104.136 420.566 104.252 420.566 104.252Z" fill="#15B7DC"/>
<path d="M419.682 103.991C419.79 104.034 419.874 104.006 419.982 104.049C419.79 104.034 419.682 103.991 419.682 103.991Z" fill="#15B7DC"/>
<path d="M49.7509 237.925C49.4603 238.585 49.3199 239.274 49.1376 239.977C49.3199 239.274 49.5023 238.571 49.7509 237.925Z" fill="#15B7DC"/>
<path d="M208.178 120.543L208.279 120.43C208.154 120.472 208.154 120.472 208.178 120.543Z" fill="#15B7DC"/>
<path d="M50.143 239.636L49.9305 240.109C50.0072 239.923 50.042 239.751 50.143 239.636Z" fill="#15B7DC"/>
<path d="M396.017 98.8657C395.423 98.9067 394.131 98.543 394.156 98.6149C394.798 98.7177 395.724 98.9652 396.017 98.8657Z" fill="#15B7DC"/>
<path d="M197.259 130.26L196.883 130.387C197.116 130.388 197.241 130.345 197.259 130.26Z" fill="#15B7DC"/>
<path d="M50.1439 239.636C50.2205 239.45 50.2971 239.263 50.3737 239.077C50.3319 239.091 50.3145 239.177 50.2727 239.191C50.2135 239.292 50.1787 239.464 50.1439 239.636Z" fill="#15B7DC"/>
<path d="M146.929 147.004C147.012 146.976 147.012 146.976 147.029 146.891L146.929 147.004Z" fill="#15B7DC"/>
<path d="M143.696 148.502C143.924 148.345 144.109 148.202 144.36 148.116C143.983 148.244 143.798 148.387 143.696 148.502Z" fill="#15B7DC"/>
<path d="M49.0957 239.991L48.7662 241.226C48.8959 240.781 49.008 240.422 49.0957 239.991Z" fill="#15B7DC"/>
<path d="M110.733 168.899C110.834 168.785 110.918 168.757 111.019 168.642C110.876 168.771 110.775 168.885 110.733 168.899Z" fill="#15B7DC"/>
<path d="M313.699 94.6261C313.783 94.5978 313.932 94.6265 314.016 94.5982C314.058 94.584 314.058 94.584 313.699 94.6261Z" fill="#15B7DC"/>
<path d="M289.921 102.127C289.478 102.198 288.891 102.397 288.579 102.582C289.023 102.511 289.4 102.383 289.921 102.127Z" fill="#15B7DC"/>
<path d="M285.582 103.118C285.624 103.104 285.666 103.089 285.773 103.132C285.731 103.146 285.69 103.161 285.582 103.118Z" fill="#15B7DC"/>
<path d="M308.101 99.4909C307.993 99.4474 307.868 99.4899 307.676 99.4747C307.826 99.5041 307.951 99.4615 308.101 99.4909Z" fill="#15B7DC"/>
<path d="M221.832 121.928C226.846 120.308 233.296 117.96 238.317 116.498C239.334 115.913 240.886 115.387 242.479 114.846L242.769 115.149L244.044 114.636C244.638 114.595 243.062 115.05 244.034 114.881L244.464 114.494C244.596 114.61 247.909 113.486 245.76 114.456L248.342 113.66L250.973 113.009C252.129 112.697 251.546 112.494 252.877 112.283C253.178 112.341 252.44 112.511 252.591 112.54C256.517 111.85 256.829 110.702 260.432 109.882L260.138 109.981C260.432 109.882 260.851 109.74 261.228 109.612C261.606 109.484 261.857 109.398 261.899 109.384C261.334 109.095 261.319 109.741 260.173 109.809C260.16 109.493 261.491 109.282 261.334 109.095C262.179 108.968 262.634 108.654 263.371 108.484C264.684 108.36 266.445 107.762 267.423 107.751C267.986 107.481 268.584 107.037 269.908 106.668C270.928 106.643 269.772 106.955 271.061 106.759L271.222 106.544C272.252 106.274 272.151 106.389 272.133 106.475C273.248 106.177 272.983 105.947 274.464 105.765C274.212 105.85 273.985 106.008 273.734 106.093C274.74 105.752 275.208 105.753 276.682 105.414C276.665 105.5 276.095 105.613 275.652 105.683C276.528 105.787 276.976 105.314 277.42 105.244C277.27 105.215 276.232 105.326 276.711 105.083C277.472 104.986 278.196 104.5 278.797 104.617L278.066 104.945C279.558 104.519 278.814 104.531 280.589 104.25C280.505 104.278 280.571 104.336 280.529 104.35C281.595 103.908 283.101 103.799 284.726 103.488L284.432 103.588C285.061 103.375 285.414 103.175 285.749 103.061C284.796 103.144 285.047 103.058 284.89 102.871C286.211 102.905 286.645 102.116 288.72 101.893C288.702 101.98 288.265 102.208 287.671 102.249C287.074 102.692 287.087 103.008 285.847 103.349C286.602 103.093 287.465 102.88 287.346 103.081L287.5 102.708C287.985 102.623 288.345 102.582 288.681 102.468C288.842 102.253 287.654 102.335 288.727 102.051C289.925 101.725 289.435 102.212 289.621 102.069C291.239 101.601 290.218 101.626 291.867 101.387C291.7 101.444 291.406 101.544 291.28 101.586C292.468 101.504 294.103 100.95 294.519 101.21C294.376 101.339 294.358 101.425 293.914 101.495L293.89 101.423C292.698 101.907 294.921 101.154 294.616 101.498C294.459 101.31 296.108 101.072 296.846 100.902L296.563 100.757C297.688 100.215 297.671 100.302 297.677 100.46C297.684 100.618 297.715 100.848 298.921 100.679C300.437 100.326 298.327 100.721 299.207 100.422C300.245 100.311 300.72 100.47 302.194 100.131C302.62 100.147 303.557 100.15 303.672 100.351C304.577 100.125 306.508 100.031 306.963 99.7165C305.325 99.7108 305.453 100.228 303.515 100.164L303.969 99.8497C305.258 99.6531 306.883 99.3428 307.795 99.2741C307.603 99.2591 307.494 99.2156 307.62 99.173C309.412 98.8058 309.867 98.4913 311.69 98.3541C311.973 98.4987 310.936 98.61 310.198 98.7798C311.369 98.7839 311.404 98.6116 313.203 98.4025C313.36 98.5898 311.998 98.5706 311.837 98.7856L313.779 98.4476C313.779 98.4476 313.779 98.4476 313.804 98.5195C314 98.1324 315.327 98.3238 316.508 98.0837C319.362 97.6771 319.701 97.1612 321.218 96.8074C321.668 96.8951 321.818 96.9244 321.651 96.9813C320.924 96.9069 321.057 97.0223 320.847 97.0934C321.843 96.9963 323.086 97.2161 322.541 97.401C324.064 97.2052 321.94 97.284 322.87 97.1292L325.011 96.9643C324.728 96.8197 323.942 96.8457 325.039 96.634C325.969 96.4793 326.395 96.4952 327.624 96.3989C327.481 96.5277 328.057 96.5728 327.146 96.6414C327.764 96.6723 328.676 96.6037 328.987 96.418C327.624 96.3989 331.121 96.0951 330.094 95.9623L331.457 95.9814C331.139 96.009 331.121 96.0952 330.695 96.0793C331.128 96.2532 331.75 95.8819 332.218 95.8835C332.686 95.8852 333.916 95.7889 334.049 95.9043C334.426 95.7763 335.488 95.737 335.729 95.8959C336.34 95.7687 335.722 95.7378 335.932 95.6667L338.073 95.5019C338.206 95.6172 338.478 96.0061 338.16 96.0337C338.939 95.8497 338.356 95.6465 339.586 95.5503C338.939 95.8497 341.273 95.6998 340.308 96.0268C341.059 96.1731 343.057 96.137 344.161 96.0835C344.79 95.8702 342.925 96.0217 342.935 95.7775C346.013 95.6159 346.094 95.0272 348.392 95.0497L347.774 95.0188C349.171 94.8657 349.046 94.9083 349.825 94.7243C349.496 94.9961 351.599 95.4057 353.932 95.2559C354.118 95.1129 352.539 95.0068 352.892 94.8069L354.464 94.7549C354.572 94.7984 354.446 94.8411 354.212 94.8403C355.568 94.7014 356.884 95.1369 357.23 94.779L358.739 95.2296L358.114 95.0407C358.257 94.9119 359.853 94.9319 360.171 94.9043C361.785 94.8381 362.386 94.9551 363.287 95.1307C362.962 95.0003 362.229 94.7678 363.483 94.7435C363.545 95.2034 366.197 95.026 366.162 95.1982C366.672 95.1857 367.615 95.347 367.65 95.1747L367.597 95.4331C367.667 95.0886 369.522 95.1813 370.968 95.172C370.755 95.6453 372.523 95.2062 373.245 95.6828C373.466 95.3675 375.802 95.7779 376.005 95.5488C377.116 95.6533 377.088 95.9836 377.37 96.1282L377.856 96.0437C378.439 96.2469 380.535 96.4985 381.82 96.7041L382.917 96.4924L383.35 96.6663C383.518 96.6095 384.478 96.6847 383.853 96.4957L384.496 96.5985C384.482 96.2825 385.39 96.616 386.602 96.6059C386.903 96.6645 386.843 96.7648 386.567 96.7782C387.21 96.881 386.958 96.9663 387.307 97.1686C386.832 97.009 389.491 96.9896 387.748 96.5381C387.591 96.3508 388.618 96.4837 389.219 96.6008L389.616 96.9469L390.312 96.7913C391.297 96.9384 391.712 97.1985 392.505 97.3305C391.712 97.1985 390.772 97.5974 392.892 97.9209C391.823 97.8022 391.271 97.829 390.737 97.7697C391.187 97.8574 391.404 97.9444 390.744 97.9277C392.347 98.1057 391.271 97.829 392.857 98.0931C392.804 98.3515 393.279 98.5112 394.697 98.8322L393.639 98.4694C393.681 98.4551 393.765 98.4267 393.807 98.4125C393.398 98.3105 393.29 98.267 393.199 98.1374C393.5 98.1959 395.03 98.1582 395.312 98.3029C393.622 97.593 398.086 98.485 397.045 98.036C397.213 97.9791 398.348 98.1555 398.505 98.3428C397.845 98.3261 398.128 98.4708 398.494 98.587C398.903 98.689 399.469 98.9782 399.343 99.0209C399.835 99.0944 398.26 98.5861 398.921 98.6028C399.738 98.8068 400.345 99.0819 400.778 99.2558L400.436 99.2115L401.711 99.6613C401.92 99.5902 400.454 99.1254 401.613 99.3736C401.938 99.5041 403.073 99.6804 403.055 99.7665C402.503 99.7933 402.943 100.125 402 99.964C402.817 100.168 405.395 100.737 404.33 100.216L405.297 100.45C404.69 100.175 402.94 99.565 404.875 100.032L404.857 100.118L406.202 100.223L406.81 100.498C406.785 100.426 407.019 100.427 407.47 100.515C407.603 100.63 408.077 100.79 408.06 100.876C409.52 101.183 409.412 101.139 409.579 101.082C410.396 101.286 410.704 101.503 410.344 101.545C411.468 101.965 413.427 102.504 414.209 102.88C415.694 103.259 413.885 102.749 414.761 102.853C415.11 103.055 415.568 103.301 416.151 103.504C416.734 103.708 417.359 103.896 418.075 104.215C419.458 104.708 420.991 105.231 422.223 105.695C421.536 105.046 422.915 105.941 423.352 105.713C422.817 105.654 425.722 106.914 423.564 106.202C423.997 106.376 424.472 106.536 424.863 106.724C425.303 107.056 424.762 106.839 424.287 106.679C423.812 106.519 423.362 106.431 424.06 106.836C425.533 107.459 426.494 107.534 428.215 108.474C427.663 108.501 429.556 108.981 429.137 109.124C428.794 109.079 428.271 108.776 427.796 108.616L428.103 108.833C429.709 109.571 429.95 109.73 430.009 109.629C430.069 109.529 429.912 109.342 430.736 109.704C432.716 110.716 432.272 110.787 432.387 110.988C432.52 111.103 432.869 111.306 433.193 111.436C433.543 111.639 433.892 111.841 434.174 111.986C432.977 111.349 432.007 110.556 432.565 110.687C433.005 111.019 433.686 111.51 434.384 111.914C434.733 112.117 435.058 112.247 435.341 112.392C435.624 112.537 435.84 112.623 435.973 112.739C435.31 112.162 434.828 111.844 434.521 111.628C434.147 111.353 433.931 111.266 433.69 111.108C433.208 110.79 432.793 110.53 431.456 109.62C431.089 109.504 431.145 109.806 429.549 108.823C430.523 109.215 429.476 108.608 429.193 108.463C429.483 108.766 428.111 108.028 427.594 107.883C427.154 107.551 428.554 107.958 426.924 107.148L426.637 107.405C426.005 107.058 426.906 107.234 425.565 106.726C426.274 106.887 425.335 106.323 427.158 107.149C426.044 106.484 425.22 106.122 424.445 105.904C423.67 105.686 422.985 105.597 422.143 105.321C422.294 105.35 422.336 105.336 422.486 105.365C422.143 105.321 421.494 105.06 420.977 104.915C419.87 104.408 421.836 105.104 421.571 104.874L419.755 104.207C419.713 104.221 419.689 104.149 419.689 104.149C419.214 103.989 418.763 103.901 418.606 103.714C419.141 103.773 419.333 103.788 419.717 103.819L417.824 103.338C418.034 103.267 416.26 102.585 417.594 102.935C416.644 102.615 415.719 102.368 414.793 102.121L414.546 101.804C413.879 101.629 413.861 101.715 414.661 102.005C413.687 101.614 410.432 101.114 410.928 100.785C408.735 100.246 407.959 100.028 405.323 99.559C407.334 99.839 402.966 98.6745 405.11 99.0699C403.835 98.6201 403.591 98.8634 402.648 98.7021C401.698 98.3827 402.093 98.1687 403.078 98.3158L401.901 98.1536L401.918 98.0675L400.891 97.9346C399.767 97.5141 400.644 97.6177 399.502 97.2833L399.274 97.4405L398.517 97.1362C398.8 97.2808 398.181 97.2499 397.347 97.1321L397.364 97.0459L396.379 96.8988C397.315 96.9021 395.478 96.7233 395.897 96.5811C395.038 96.3913 395.038 96.3913 393.519 96.1849L393.826 96.4014C391.839 96.1934 393.687 96.128 392.101 95.8639L392.216 96.0654C389.866 95.3389 388.301 95.5489 386.6 95.0832C387.585 95.2303 387.295 94.9277 387.278 95.0138C386.527 94.8675 385.566 94.7923 384.606 94.7171C383.645 94.6419 382.685 94.5667 381.965 94.6504C381.375 94.2892 381.225 94.2599 379.657 93.9096C378.546 93.8052 378.354 93.7902 378.019 93.9039C376.926 93.7133 374.879 93.6056 374.805 93.3898C374.578 93.5471 373.821 93.2427 373.251 93.3557L373.118 93.2403L373.234 93.4418C372.242 93.1366 371.414 93.1768 370.628 93.2028C369.842 93.2288 369.014 93.2689 368.047 93.0357L368.365 93.0081L367.579 93.0341C367.446 92.9187 367.764 92.8911 367.781 92.805L364.03 92.6338L364.781 92.78C363.995 92.806 363.467 92.9047 362.591 92.8011C364.047 92.5476 361.354 92.7393 361.047 92.5227L361.833 92.4968C360.746 92.4642 360.746 92.4642 360.862 92.6657C359.457 92.6608 359.804 92.3029 358.532 92.4133L359.492 92.4885C359.817 92.619 359.164 92.7603 358.546 92.7294C358.395 92.7002 357.945 92.6124 358.413 92.614C357.861 92.6408 357.135 92.5665 356.541 92.6075C355.922 92.5766 355.37 92.6034 355.161 92.6744C354.543 92.6435 354.728 92.5005 355.021 92.401C352.67 92.637 353.935 92.3685 351.584 92.6044L351.601 92.5183L350.798 92.6304L349.555 92.4106L350.005 92.4983C349.219 92.5243 348.734 92.6088 347.839 92.5913L348.15 92.4056C345.967 92.5847 345.545 92.1667 343.494 92.4611C343.344 92.4319 343.662 92.4042 343.829 92.3474C341.929 92.6711 342.286 92.069 340.41 92.4647C340.535 92.422 340.277 92.3493 340.361 92.3208L339.515 92.4471L339.526 92.203L338.879 92.5024L338.296 92.2992L337.961 92.413C336.927 92.122 335.669 92.5486 334.318 92.2853L334.583 92.516C331.491 93.324 327.107 92.8058 323.264 93.4675L323.275 93.2233L321.717 93.5913C320.798 93.5019 322.195 93.3488 321.895 93.2903C320.204 93.5429 321.273 93.6616 319.24 93.8699C318.195 93.8232 319.551 93.6843 320.036 93.5998C319.083 93.6827 317.944 93.9085 316.889 94.1059C315.834 94.3033 314.796 94.4146 314.118 94.484C314.076 94.4983 314.017 94.5986 314.101 94.5702C312.878 94.8244 311.246 94.9767 309.873 95.2018C309.891 95.1156 310.185 95.0161 310.544 94.9743C310.059 95.0588 309.357 95.0563 308.979 95.1842L309.458 94.9417C308.42 95.053 306.418 95.4913 306.136 95.3466C306.286 95.3759 306.251 95.5482 305.363 95.6887C304.756 95.4136 302.96 96.183 301.43 96.2208C301.573 96.092 302.652 95.9665 302.335 95.9941C301.59 96.0059 300.986 96.291 300.374 96.4182L300.56 96.2752L297.227 96.9243C296.619 96.6492 294.086 97.5884 294.264 97.2874C293.083 97.5274 295.326 97.248 293.81 97.6018C293.359 97.514 292.486 97.9706 292.496 97.7265L292.664 97.6696L291.609 97.867L292.189 97.5099C291.284 97.7366 290.704 98.0937 290.711 98.2517C289.841 98.3061 288.642 98.6323 288.192 98.5445L288.485 98.445C286.106 99.0113 284.346 98.646 282.55 99.4154C282.399 99.3861 282.399 99.3861 282.693 99.2866L281.194 99.5543L281.481 99.2967L279.108 100.021L279.126 99.9348C277.501 100.245 274.972 100.782 272.886 101.249L273.179 101.149C270.975 101.817 270.985 101.573 269.392 102.113C269.434 102.099 269.518 102.07 269.56 102.056L268.11 102.468L268.421 102.282C267.379 102.795 265.231 102.802 265.933 102.805C265.37 103.076 264.322 103.431 264.161 103.646C262.585 104.1 263.735 103.63 262.722 103.813C261.565 104.125 261.405 104.34 259.78 104.651L259.798 104.564C259.085 104.806 258.623 104.962 257.593 105.232L257.886 105.132C256.275 105.759 255.727 105.383 254.549 106.184C253.83 106.267 252.53 106.708 252.499 106.478C250.444 107.175 248.868 107.629 246.789 108.254C246.332 108.008 246.37 108.396 245.039 108.607L245.196 108.794C242.32 109.689 238.879 110.294 235.692 111.375L235.535 111.188L234.979 111.617C231.534 112.625 227.058 113.902 224.35 114.74C223.494 115.11 222.225 115.781 220.751 116.121L220.918 116.064C218.445 116.902 215.936 117.914 213.228 118.752C213.371 118.623 213.095 118.636 213.364 118.465C212.808 118.894 211.813 118.991 211.226 119.19L211.945 119.106C211.264 119.578 210.1 119.732 209.699 119.788L208.556 120.416C208.472 120.444 208.322 120.415 208.322 120.415L208.136 120.558L207.434 120.556C207.165 120.727 205.596 121.339 205.166 121.726C205.016 121.696 203.859 122.008 204.716 121.638L200.337 123.203L201.032 123.047C201.189 123.234 199.938 123.819 199.201 123.989C200.009 123.474 199.187 123.673 198.786 123.729C198.247 124.072 199.338 123.702 199.093 123.945C198.387 124.345 196.842 125.029 196.441 125.085L196.877 124.857C195.895 125.27 195.295 125.153 194.313 125.566C193.505 126.08 192.786 126.164 193.051 126.395C191.8 126.979 192.475 126.35 192.055 126.492C191.475 126.849 189.696 127.532 189.396 127.474C188.854 128.219 185.898 128.74 185.769 129.185L184.63 129.411C184.612 129.497 184.5 129.856 183.686 130.212C182.823 130.424 182.959 130.137 182.683 130.151L182.284 130.767C181.11 131.165 179.811 131.606 178.535 132.119C177.218 132.646 175.883 133.259 174.523 133.8C171.787 134.968 169.051 136.136 166.5 137.162C164.316 138.303 161.593 139.788 159.007 140.985L159.276 140.814L156.666 141.939L158.57 141.214C158.032 141.556 157.595 141.785 157.074 142.041C154.212 143.252 150.417 145.02 147.097 146.948C145.059 148.521 145.497 147.33 143.518 148.803C143.703 148.66 143.721 148.574 143.864 148.445C141.669 149.831 140.467 150.559 138.321 152.089C138.401 151.5 136.867 152.902 136.937 152.558L136.8 152.845C136.255 153.029 135.07 153.672 135.189 153.471L134.287 154.258L134.155 154.143C132.827 154.914 130.118 156.714 129.248 156.769C127.699 157.855 125.63 159.198 123.477 160.569C121.324 161.941 119.021 163.283 117.036 164.598C116.546 165.084 115.368 165.885 114.501 166.499L113.435 166.941C112.551 167.642 111.673 168.501 110.782 169.043C110.782 169.043 110.8 168.957 110.842 168.943C109.957 169.644 109.024 170.201 108.248 170.945C107.238 171.688 106.22 172.274 106.434 171.801C106.472 172.189 104.263 173.258 104.263 173.258C104.263 173.258 104.078 173.401 103.708 173.687C103.337 173.973 102.781 174.402 102.058 174.888C101.358 175.446 100.492 176.06 99.4814 176.804C98.4712 177.547 97.3595 178.405 96.1046 179.392C91.2105 183.297 84.645 188.89 78.1031 195.518C77.2674 196.363 76.4737 197.193 75.638 198.038C74.8267 198.955 74.033 199.785 73.2217 200.701C71.5748 202.463 70.0186 204.353 68.4799 206.158C65.4093 209.925 62.4889 213.722 59.9771 217.62C57.441 221.447 55.2646 225.231 53.5427 228.702C51.8208 232.172 50.5952 235.314 49.8523 237.811C49.7119 238.5 49.1757 240.365 49.515 239.849C49.1085 241.27 48.7028 241.728 48.6989 242.13C49.0178 241.14 49.049 241.37 49.0802 241.6C49.1114 241.83 49.1426 242.06 49.5102 241.214C49.3981 241.573 49.2684 242.018 49.1807 242.448C49.1944 242.764 49.5736 240.711 49.636 241.171L49.5492 240.639C49.8924 239.721 50.1303 239.32 50.3331 239.091C50.5925 238.201 50.5095 237.267 51.4963 235.489L51.2652 236.049C51.9409 234.457 51.8493 235.289 52.0277 234.988L51.8737 235.361L52.6118 234.229C52.0765 235.132 51.5159 236.926 51.8834 236.08C52.7863 234.33 51.6036 236.495 52.2023 235.089C52.6118 234.229 52.6079 234.631 52.6323 234.703C52.8877 234.216 53.0769 233.67 53.3324 233.183C53.3811 233.327 52.8214 234.158 53.2271 233.7L54.0987 231.72C54.3328 231.721 54.5219 231.176 54.7949 230.602C55.068 230.029 55.3585 229.369 55.6871 229.097C55.0222 230.445 55.8129 229.054 55.7847 229.385C56.3551 228.309 56.9499 227.306 57.5866 226.288C57.7894 226.059 57.1771 227.149 57.4569 226.733C57.8625 226.275 57.9434 225.686 58.1219 225.385C58.3247 225.156 59.5387 223.221 59.6362 223.509C61.0247 221.675 59.9901 222.346 61.3016 220.699C61.5532 220.614 60.3431 222.146 60.9759 221.531L62.2562 219.654C62.2036 219.912 62.1334 220.256 61.6507 220.901C65.2497 216.073 67.6827 214.286 70.9843 209.959C71.582 209.516 70.6869 210.461 70.3895 210.963C72.7853 207.825 74.1203 207.212 76.3337 204.778L76.3269 204.62C77.1694 203.933 78.0051 203.088 78.8826 202.23C79.7602 201.371 80.6378 200.512 81.5574 199.639C83.3301 197.835 85.253 196.061 87.1164 194.386L86.6201 194.715C87.0608 194.085 87.837 193.34 88.4279 192.739C88.5537 192.696 88.1374 193.399 89.2002 192.397C88.973 192.554 88.4767 192.883 88.5537 192.696C91.913 190.194 98.6744 184.213 104.313 180.297C105.239 179.582 106.141 178.795 107.134 178.138C108.102 177.409 109.053 176.766 110.021 176.036C111.982 174.65 113.943 173.263 115.928 171.949C117.914 170.634 119.941 169.305 121.884 168.005C123.894 166.762 125.862 165.534 127.746 164.334C126.585 165.048 126.918 164.374 127.833 163.903C128.504 163.676 129.109 163.39 129.647 163.047C130.21 162.777 130.748 162.434 131.244 162.105C132.279 161.433 133.356 160.748 134.673 160.221C139.056 157.291 143.435 155.727 147.458 152.839L147.591 152.954C148.237 152.655 148.356 152.454 149.044 152.141L149.069 152.213C150.697 151.5 152.581 150.3 153.521 149.901L153.49 149.671C154.448 149.186 154.06 149.558 154.968 148.929L154.975 149.087L156.027 148.33C156.065 148.718 158.69 146.946 159.578 146.805C160.805 146.149 163.09 144.892 165.012 144.08C165.438 144.096 167.731 142.998 169.258 142.4C172.138 141.103 176.244 139.15 179.986 137.64L179.829 137.453L180.811 137.04C180.836 137.111 180.962 137.069 180.794 137.126C181.664 137.071 183.027 136.128 183.848 135.93C183.272 135.885 183.135 136.171 182.614 136.428C181.751 136.641 182.451 136.083 183.565 135.785L183.59 135.857L184.296 135.457C184.428 135.573 185.123 135.417 185.322 135.59C188.52 134.265 190.572 133.008 193.944 131.785C193.681 132.114 196.327 130.816 195.778 131.403C197.717 130.505 195.345 131.23 196.17 130.629C196.757 130.43 197.295 130.087 197.428 130.203C197.201 130.36 197.962 130.262 197.501 130.418L198.818 129.891C198.944 129.849 198.675 130.02 198.532 130.149C201.202 128.923 203.462 128.557 205.838 127.431C205.957 127.23 204.874 127.758 204.993 127.557C207.345 126.359 207.288 127.019 209.497 125.95L209.109 126.322C209.815 125.922 210.102 125.665 211.366 125.396C211.649 125.541 210.391 125.967 209.829 126.238C210.667 125.954 212.823 125.143 212.079 125.154C213.061 124.741 213.487 124.757 214.057 124.644C214.032 124.572 213.044 124.827 213.648 124.542C215.056 124.145 217.195 123.42 218.872 122.851C218.896 122.923 219.005 122.967 218.879 123.009C219.924 122.093 219.945 122.568 221.832 121.928Z" fill="#15B7DC"/>
<path d="M314.422 98.5503L313.702 98.6339C313.727 98.7058 313.685 98.7201 313.391 98.8196L314.422 98.5503Z" fill="#15B7DC"/>
<path d="M272.326 106.49C272.871 106.305 272.385 106.39 272.067 106.417C272.067 106.417 272.092 106.489 272.326 106.49Z" fill="#15B7DC"/>
<path d="M333.88 95.9614C333.755 96.0039 333.671 96.0323 333.737 96.0894C333.863 96.0469 333.905 96.0327 333.88 95.9614Z" fill="#15B7DC"/>
<path d="M389.717 97.7948C389.65 97.7371 389.567 97.7654 389.501 97.7077C389.501 97.7077 389.609 97.7513 389.717 97.7948Z" fill="#15B7DC"/>
<path d="M386.466 96.8927C386.316 96.8634 386.124 96.8484 385.848 96.8618C386.106 96.9345 386.34 96.9353 386.466 96.8927Z" fill="#15B7DC"/>
<path d="M320.703 97.2216C320.511 97.2072 320.302 97.2783 320.134 97.3351C320.452 97.3069 320.619 97.25 320.703 97.2216Z" fill="#15B7DC"/>
<path d="M390.702 97.9419C390.401 97.8834 389.951 97.7956 389.692 97.7229C390.084 97.911 390.426 97.9553 390.702 97.9419Z" fill="#15B7DC"/>
<path d="M354.043 94.8967C354.001 94.9109 354.001 94.9109 353.96 94.925C353.368 94.9667 353.726 94.9246 354.043 94.8967Z" fill="#15B7DC"/>
<path d="M381.784 96.8766C381.742 96.8908 381.742 96.8907 381.676 96.833L381.443 96.832L381.784 96.8766Z" fill="#15B7DC"/>
<path d="M394.155 98.6152C394.005 98.5858 393.855 98.5564 393.772 98.5847C393.88 98.6283 394.029 98.6577 394.221 98.6729C394.179 98.6871 394.179 98.6871 394.155 98.6152Z" fill="#15B7DC"/>
<path d="M365.749 95.4984C365.958 95.4276 366.042 95.3992 366.018 95.3273C365.76 95.2543 365.593 95.311 365.749 95.4984Z" fill="#15B7DC"/>
<path d="M398.188 134.496C398.229 134.481 398.271 134.467 398.247 134.397C398.205 134.411 398.164 134.425 398.188 134.496Z" fill="#15B7DC"/>
<path d="M361.333 132.802L361.734 132.745C361.459 132.759 361.375 132.787 361.333 132.802Z" fill="#15B7DC"/>
<path d="M420.666 137.779C420.624 137.793 420.624 137.793 420.624 137.793C420.967 137.838 421.442 137.997 422.234 138.129L420.666 137.779Z" fill="#15B7DC"/>
<path d="M330.11 134.889C329.984 134.932 329.774 135.003 329.498 135.017C329.816 134.989 330.026 134.918 330.11 134.889Z" fill="#15B7DC"/>
<path d="M432.909 142.448L432.235 142.115C432.259 142.187 432.5 142.346 432.909 142.448Z" fill="#15B7DC"/>
<path d="M456.07 149.669C456.045 149.596 456.045 149.596 456.07 149.669C455.935 149.552 456.002 149.611 456.07 149.669Z" fill="#15B7DC"/>
<path d="M446.913 145.557C446.721 145.542 446.505 145.455 446.246 145.382C446.529 145.527 446.896 145.643 446.913 145.557Z" fill="#15B7DC"/>
<path d="M445.97 145.395C446.078 145.439 446.162 145.41 446.27 145.454C446.096 145.353 445.946 145.323 445.97 145.395Z" fill="#15B7DC"/>
<path d="M52.387 286.788C52.0789 287.534 51.921 288.309 51.7387 289.013C51.9629 288.295 52.1628 287.506 52.387 286.788Z" fill="#15B7DC"/>
<path d="M220.219 160.604L220.319 160.491C220.195 160.534 220.195 160.534 220.219 160.604Z" fill="#15B7DC"/>
<path d="M52.7615 288.586L52.5734 289.13C52.6256 288.872 52.7023 288.686 52.7615 288.586Z" fill="#15B7DC"/>
<path d="M420.811 140.135C420.175 140.191 418.817 139.769 418.824 139.927C419.508 140.016 420.517 140.235 420.811 140.135Z" fill="#15B7DC"/>
<path d="M52.7626 288.585C52.8396 288.399 52.9166 288.212 53.0356 288.012C52.9937 288.026 52.9761 288.112 52.9342 288.126C52.8328 288.241 52.7977 288.413 52.7626 288.585Z" fill="#15B7DC"/>
<path d="M154.976 188.661C155.059 188.632 155.101 188.618 155.119 188.533L154.976 188.661Z" fill="#15B7DC"/>
<path d="M151.558 190.301C151.785 190.144 152.012 189.987 152.264 189.902C151.887 190.03 151.701 190.173 151.558 190.301Z" fill="#15B7DC"/>
<path d="M51.7386 289.013L51.3916 290.333C51.5212 289.888 51.609 289.457 51.7386 289.013Z" fill="#15B7DC"/>
<path d="M116.599 212.258C116.7 212.143 116.825 212.101 116.884 212.001C116.783 212.115 116.658 212.157 116.599 212.258Z" fill="#15B7DC"/>
<path d="M332.989 134.555C333.072 134.527 333.222 134.556 333.305 134.527C333.347 134.513 333.305 134.527 332.989 134.555Z" fill="#15B7DC"/>
<path d="M307.415 141.863C306.971 141.934 306.301 142.161 305.989 142.346C306.475 142.261 306.894 142.119 307.415 141.863Z" fill="#15B7DC"/>
<path d="M326.898 139.346C326.79 139.303 326.623 139.36 326.473 139.33C326.581 139.374 326.731 139.403 326.898 139.346Z" fill="#15B7DC"/>
<path d="M234.61 161.82C239.96 160.086 246.836 157.754 252.217 156.25C253.276 155.651 254.953 155.082 256.631 154.513L256.92 154.816L258.28 154.275C258.915 154.22 257.189 154.644 258.269 154.519L258.741 154.118C258.915 154.22 262.42 153.111 260.121 154.051C261.067 153.811 261.924 153.44 262.895 153.271L265.694 152.563C266.958 152.294 266.333 152.105 267.724 151.794C268.024 151.853 267.263 151.95 267.395 152.066C271.598 151.362 271.91 150.214 275.788 149.38L275.453 149.494C275.788 149.38 276.249 149.224 276.627 149.096C277.004 148.968 277.298 148.868 277.34 148.854C276.732 148.579 276.718 149.226 275.488 149.322C275.516 148.991 276.889 148.766 276.732 148.579C277.686 148.496 278.14 148.182 278.895 147.926C280.292 147.773 282.162 147.219 283.224 147.18C283.828 146.895 284.468 146.437 285.876 146.04C286.962 146.072 285.698 146.341 287.113 146.102L287.273 145.887C288.412 145.661 288.245 145.718 288.227 145.804C289.45 145.55 289.143 145.333 290.732 145.195L289.918 145.551C291.033 145.254 291.476 145.183 293.083 144.959C293.066 145.045 292.454 145.172 291.969 145.257C292.887 145.346 293.377 144.86 293.863 144.775C293.712 144.746 292.591 144.886 293.112 144.629C293.915 144.517 294.705 144.089 295.348 144.191L294.534 144.548C296.109 144.093 295.323 144.119 297.248 143.868C297.164 143.896 297.231 143.954 297.189 143.968C298.297 143.512 299.91 143.446 301.661 143.093L301.325 143.207C301.996 142.979 302.349 142.779 302.751 142.723C301.714 142.835 301.983 142.663 301.85 142.548C303.279 142.625 303.754 141.822 305.955 141.557C305.938 141.643 305.459 141.885 304.865 141.926C304.226 142.384 304.173 142.642 302.915 143.069C303.736 142.87 304.683 142.63 304.498 142.773L304.676 142.472C305.162 142.387 305.563 142.331 305.941 142.203C306.102 141.988 304.872 142.084 305.987 141.787C307.269 141.432 306.738 141.933 306.923 141.79C308.691 141.351 307.562 141.332 309.32 141.138C309.152 141.194 308.816 141.308 308.666 141.279C309.938 141.168 311.682 140.657 312.097 140.917C311.954 141.046 311.936 141.132 311.45 141.217L311.468 141.131C310.192 141.643 312.583 140.833 312.261 141.263C312.194 141.205 312.572 141.077 313.099 140.978C313.627 140.88 314.263 140.824 314.665 140.768L314.357 140.552C316.824 139.555 314.312 140.968 316.89 140.575C318.49 140.193 316.254 140.63 317.218 140.303C318.34 140.164 318.815 140.323 320.397 140.027C320.866 140.029 321.844 140.018 321.983 140.291C322.93 140.05 325.012 139.986 325.508 139.657C323.786 139.68 323.89 140.126 321.826 140.104L322.322 139.775C323.72 139.622 325.428 139.283 326.382 139.201C326.19 139.186 326.082 139.142 326.183 139.028C328.126 138.69 328.622 138.361 330.529 138.195C330.836 138.412 329.691 138.48 328.887 138.592C330.141 138.567 330.176 138.395 332.084 138.229C332.241 138.417 330.795 138.426 330.609 138.569L332.702 138.26C332.702 138.26 332.702 138.26 332.726 138.332C332.947 138.017 334.333 138.108 335.623 137.911C338.718 137.664 339.081 137.22 340.724 136.823C341.216 136.897 341.366 136.926 341.181 137.069C340.412 137.009 340.545 137.124 340.294 137.21C341.331 137.098 342.641 137.376 342.071 137.489C343.72 137.25 341.429 137.386 342.442 137.203L344.733 137.067C344.409 136.937 343.623 136.963 344.762 136.737C345.757 136.64 346.225 136.641 347.539 136.517C347.371 136.574 347.996 136.763 347.018 136.774C347.678 136.79 348.632 136.707 348.985 136.508C347.515 136.445 351.27 136.214 350.177 136.023L351.647 136.086C351.329 136.114 351.312 136.2 350.844 136.198C351.301 136.444 352.007 136.044 352.451 135.974C352.961 135.961 354.257 135.923 354.365 135.966C354.809 135.896 355.913 135.842 356.129 135.929C356.807 135.86 356.164 135.757 356.332 135.7L358.606 135.651C358.739 135.766 359.053 136.141 358.693 136.182C359.538 136.056 358.931 135.781 360.227 135.743C359.514 135.984 362.022 135.936 360.991 136.205C361.808 136.409 363.932 136.33 365.078 136.262C365.749 136.035 363.775 136.143 363.81 135.971C367.122 135.81 367.161 135.235 369.652 135.273L369.033 135.242C370.515 135.06 370.347 135.117 371.21 134.905C370.839 135.191 373.068 135.558 375.576 135.509C375.761 135.366 374.14 135.274 374.493 135.074C375.045 135.048 375.597 135.021 376.174 135.066C376.324 135.095 376.114 135.166 375.922 135.151C377.41 135.128 378.793 135.621 379.163 135.335L380.756 135.757L380.131 135.568C380.316 135.425 381.979 135.503 382.338 135.461C384.036 135.366 384.703 135.541 385.646 135.702C385.322 135.572 384.522 135.282 385.884 135.301C385.947 135.761 388.748 135.613 388.755 135.771C389.331 135.816 390.316 135.963 390.351 135.791L390.299 136.049C390.369 135.705 392.35 135.755 393.886 135.875C393.631 136.363 395.573 136.025 396.362 136.559C396.583 136.244 399.069 136.683 399.314 136.44C400.509 136.516 400.439 136.861 400.763 136.991L401.291 136.892C401.916 137.081 404.162 137.362 405.513 137.625L406.719 137.457L407.194 137.617C407.361 137.56 408.388 137.693 407.739 137.432L408.423 137.521C408.41 137.205 409.342 137.61 410.662 137.643C410.987 137.774 410.903 137.802 410.627 137.816C411.312 137.904 411.043 138.076 411.409 138.192C410.934 138.032 413.718 137.97 411.892 137.547C411.735 137.36 412.804 137.479 413.471 137.653L413.91 137.985L414.648 137.815C415.675 137.948 416.132 138.194 416.991 138.384C416.156 138.266 415.174 138.679 417.378 138.974C416.201 138.812 415.674 138.911 415.097 138.866C415.548 138.953 415.806 139.026 415.104 139.024C416.816 139.245 415.632 138.925 417.343 139.146C417.29 139.405 417.765 139.565 419.267 139.857L418.125 139.523C418.167 139.508 418.251 139.48 418.335 139.452C417.926 139.35 417.776 139.32 417.685 139.191C418.028 139.235 419.642 139.169 419.949 139.385C419.041 139.052 419.809 139.112 420.62 139.158C421.454 139.276 422.355 139.451 421.79 139.162C421.958 139.105 423.183 139.411 423.316 139.527C421.887 139.45 424.423 140.033 424.238 140.176C424.772 140.236 423.071 139.77 423.773 139.772C424.633 139.962 425.282 140.223 425.781 140.455L425.439 140.41L426.797 140.832C427.007 140.761 425.457 140.324 426.7 140.544C427.025 140.674 428.268 140.894 428.25 140.98C427.698 141.007 428.138 141.339 427.111 141.206C427.971 141.396 430.716 141.908 429.591 141.488L430.601 141.707C429.951 141.446 428.118 140.865 430.178 141.289L430.161 141.375L431.589 141.452C431.806 141.539 432.022 141.626 432.239 141.713C432.214 141.641 432.449 141.642 432.965 141.787C433.098 141.902 433.615 142.048 433.597 142.134C435.148 142.57 435.033 142.369 435.225 142.384C436.084 142.574 436.433 142.776 436.031 142.832C437.24 143.224 439.325 143.72 440.149 144.082C441.759 144.418 439.824 143.951 440.742 144.041C441.441 144.446 442.782 144.953 444.248 145.418C445.715 145.883 447.374 146.363 448.69 146.798C447.961 146.164 449.399 146.959 449.86 146.802C449.302 146.671 452.364 148.118 450.073 147.291L451.456 147.785C452.419 148.42 449.148 147.044 450.61 147.911C452.168 148.505 453.188 148.48 455.035 149.377C454.717 149.405 455.084 149.521 455.45 149.637C455.817 149.754 456.208 149.942 455.998 150.013C455.632 149.897 455.09 149.679 454.574 149.534L454.923 149.736C455.789 150.084 456.288 150.316 456.571 150.46C456.829 150.533 456.937 150.576 456.955 150.49C457.014 150.39 456.857 150.203 457.741 150.464C459.846 151.434 459.378 151.433 459.535 151.62C459.884 151.822 460.907 152.357 461.449 152.575C460.799 152.314 460.209 151.953 459.86 151.75C459.486 151.476 459.396 151.346 459.672 151.333C460.576 152.069 462.783 152.924 463.348 153.213C462.626 152.737 462.144 152.419 461.728 152.159C461.337 151.971 461.097 151.812 460.856 151.653C460.615 151.494 460.356 151.422 459.983 151.147C459.634 150.945 459.176 150.699 458.436 150.309C458.028 150.207 458.125 150.494 456.428 149.627C457.486 149.989 456.355 149.411 456.072 149.266C456.229 149.453 455.947 149.309 455.555 149.121C455.164 148.933 454.648 148.787 454.389 148.714C453.907 148.397 455.392 148.775 453.677 147.994L453.391 148.251C452.717 147.918 453.66 148.08 452.235 147.601C453.028 147.733 452.005 147.198 453.929 147.908C452.773 147.258 451.89 146.996 451.048 146.72C450.231 146.516 449.48 146.37 448.597 146.108C448.789 146.123 448.789 146.123 448.981 146.138C448.597 146.108 447.905 145.862 447.388 145.716C446.198 145.238 448.331 145.878 448.024 145.661L446.124 145.022C446.082 145.036 446.058 144.965 446.058 144.965C445.541 144.819 445.091 144.731 444.892 144.558C445.426 144.618 445.636 144.546 446.02 144.577L444.001 144.139C444.211 144.067 442.329 143.343 443.729 143.75C442.738 143.445 441.721 143.068 440.754 142.834L440.506 142.517C439.797 142.357 439.78 142.443 440.663 142.705C439.647 142.328 436.182 141.899 436.679 141.57C435.519 141.322 434.727 141.19 433.885 140.914C433.026 140.724 432.118 140.391 430.749 140.213C432.886 140.451 428.266 139.372 430.494 139.739C429.136 139.317 428.891 139.56 427.84 139.356C426.848 139.051 427.243 138.836 428.336 139.027L427.117 138.879L427.135 138.793L426.066 138.674C424.9 138.268 425.776 138.372 424.592 138.051L424.365 138.209L423.566 137.919C423.915 138.121 423.164 137.975 422.305 137.785L422.322 137.699L421.271 137.494C422.273 137.555 420.304 137.261 420.747 137.19C419.846 137.015 419.846 137.015 418.243 136.837L418.55 137.053C416.479 136.874 418.411 136.78 416.741 136.544L416.856 136.746C414.38 136.062 412.731 136.3 410.881 135.805C411.907 135.938 411.618 135.636 411.6 135.722C410.807 135.59 409.781 135.457 408.754 135.324C408.219 135.265 407.727 135.191 407.234 135.117C406.766 135.116 406.298 135.114 405.914 135.084C405.282 134.737 405.107 134.636 403.48 134.386C402.285 134.31 402.093 134.295 401.758 134.409C400.556 134.175 398.426 134.095 398.335 133.966C398.108 134.123 397.308 133.833 396.672 133.888L396.498 133.787L396.613 133.988C395.537 133.712 394.685 133.68 393.833 133.648C392.98 133.617 392.128 133.585 391.077 133.38L391.437 133.338L390.609 133.378C390.434 133.277 390.794 133.235 390.812 133.149L386.826 132.977L387.643 133.181C386.791 133.15 386.288 133.32 385.303 133.173C386.868 132.963 383.982 133.14 383.651 132.851L384.479 132.811C383.309 132.807 383.309 132.807 383.466 132.994C381.978 133.018 382.341 132.574 380.986 132.713L381.988 132.774C382.313 132.904 381.593 132.988 380.933 132.971C380.783 132.942 380.291 132.868 380.801 132.856C379.588 132.866 377.793 132.673 377.266 132.771C376.581 132.683 376.766 132.54 377.126 132.498C374.576 132.561 375.949 132.336 373.448 132.542L373.465 132.456L372.62 132.583L371.335 132.377L371.809 132.537C370.982 132.577 370.496 132.661 369.493 132.6L369.846 132.401C367.513 132.55 367.073 132.218 364.914 132.469C364.764 132.44 365.082 132.413 365.25 132.356C363.241 132.636 363.622 132.106 361.596 132.472C361.721 132.429 361.463 132.357 361.547 132.328L360.618 132.483L360.628 132.239L359.94 132.552L359.315 132.364L358.979 132.477C358.438 132.26 357.778 132.243 357.142 132.298C356.482 132.282 355.78 132.279 355.053 132.205L355.36 132.421C352.034 133.229 347.417 132.71 343.315 133.299L343.326 133.054L341.684 133.451C340.723 133.376 342.205 133.194 341.862 133.15C340.046 133.445 341.198 133.535 339.057 133.7C337.904 133.61 339.41 133.5 339.895 133.416C337.929 133.682 334.984 133.959 333.586 134.112C333.544 134.126 333.485 134.227 333.569 134.198C332.262 134.481 330.522 134.59 329.065 134.843C329.083 134.757 329.418 134.643 329.778 134.601C329.226 134.628 328.549 134.698 328.087 134.854L328.608 134.597C327.487 134.737 325.376 135.132 325.094 134.987C325.244 135.016 325.209 135.189 324.279 135.343C323.672 135.068 321.683 135.823 320.111 135.875C320.255 135.746 321.418 135.592 321.058 135.634C320.272 135.66 319.601 135.887 318.972 136.101L319.158 135.958L315.591 136.606C314.983 136.331 312.209 137.111 312.387 136.81C311.098 137.007 313.491 136.756 311.867 137.067C311.374 136.993 310.434 137.392 310.445 137.148L310.612 137.091L309.515 137.303L310.162 137.003C309.215 137.244 308.569 137.544 308.533 137.716C307.58 137.799 306.339 138.139 305.823 137.994L306.158 137.88C303.628 138.417 301.742 138.094 299.838 138.82C299.688 138.791 299.688 138.791 299.981 138.691L298.399 138.987L298.752 138.788L296.187 139.497L296.205 139.411C294.472 139.678 291.775 140.271 289.538 140.709L289.874 140.595C288.675 140.921 288.082 140.962 287.554 141.061C287.068 141.146 286.625 141.216 285.786 141.5C285.828 141.486 285.912 141.458 285.954 141.443L284.354 141.826L284.665 141.64C283.581 142.168 281.241 142.159 282.009 142.22C281.405 142.505 280.273 142.889 280.129 143.017C278.403 143.442 279.661 143.016 278.582 143.141C277.317 143.41 277.18 143.697 275.448 143.963L275.465 143.877C274.686 144.061 274.207 144.304 273.135 144.587L273.47 144.474C271.733 145.143 271.119 144.71 269.899 145.524C269.137 145.622 267.729 146.019 267.698 145.789C265.493 146.457 263.792 146.954 261.629 147.607C261.171 147.361 261.143 147.691 259.77 147.916L259.927 148.104C256.842 149.07 253.166 149.674 249.788 150.74L249.631 150.553L249.008 150.924C245.329 151.931 240.56 153.308 237.66 154.131C236.72 154.529 235.343 155.157 233.851 155.582L234.019 155.526C232.719 155.966 231.401 156.493 230.018 156.962C228.634 157.432 227.25 157.901 225.824 158.384C225.968 158.255 225.65 158.283 225.961 158.097C225.363 158.541 224.284 158.666 223.697 158.865L224.458 158.767C223.71 159.181 222.488 159.435 222.019 159.434L220.793 160.09C220.709 160.119 220.559 160.09 220.517 160.104L220.331 160.247L219.587 160.258C219.276 160.444 217.599 161.013 217.152 161.485C217.001 161.456 215.827 161.854 216.725 161.469L212.053 163.134L212.791 162.964C212.948 163.151 211.613 163.764 210.834 163.948C211.749 163.477 210.82 163.632 210.376 163.702C209.796 164.06 210.97 163.661 210.683 163.919C209.936 164.333 208.307 165.046 207.863 165.116L208.3 164.888C207.234 165.329 206.634 165.212 205.61 165.639C204.694 166.11 203.957 166.28 204.264 166.497C202.929 167.11 203.646 166.466 203.185 166.622C202.587 167.065 200.658 167.719 200.358 167.661C199.774 168.42 196.65 168.998 196.479 169.457L195.298 169.697C195.28 169.783 195.168 170.142 194.27 170.527C193.365 170.754 193.501 170.467 193.226 170.48L192.785 171.111C190.245 171.892 187.449 173.16 184.52 174.314C183.102 174.955 181.617 175.539 180.198 176.18C178.754 176.75 177.336 177.391 176.018 177.918C173.708 179.102 170.776 180.658 168.022 181.912L168.333 181.727C167.393 182.126 166.495 182.51 165.579 182.981C166.226 182.682 166.939 182.44 167.61 182.213C167.029 182.57 166.593 182.798 166.012 183.155C163.007 184.495 158.96 186.348 155.388 188.361C153.207 190.063 153.687 188.858 151.582 190.373C151.768 190.23 151.827 190.13 151.971 190.001C149.608 191.444 148.346 192.272 146.032 193.859C146.113 193.27 144.477 194.787 144.589 194.428L144.452 194.715C143.865 194.914 142.597 195.585 142.758 195.37L141.772 196.185L141.597 196.084C140.185 196.884 137.291 198.827 136.379 198.896C134.729 200.097 132.559 201.554 130.28 202.968C129.119 203.683 127.959 204.397 126.823 205.183C125.687 205.969 124.569 206.669 123.492 207.355C122.985 207.928 121.765 208.742 120.772 209.399L119.665 209.855C118.696 210.584 117.826 211.601 116.868 212.086C116.868 212.086 116.886 212 116.969 211.972C116.001 212.701 115.026 213.272 114.19 214.117C113.138 214.874 112.037 215.488 112.275 215.087C112.306 215.317 111.726 215.674 111.146 216.031C110.566 216.388 110.028 216.731 110.028 216.731C110.028 216.731 109.161 217.346 107.678 218.49C106.154 219.648 103.991 221.263 101.404 223.423C100.131 224.496 98.6908 225.626 97.2155 226.928C95.7401 228.23 94.2053 229.633 92.5447 231.078C89.2898 234.026 85.8389 237.36 82.4192 240.925C81.9716 241.398 81.5416 241.784 81.094 242.257C80.6465 242.729 80.2408 243.187 79.7933 243.66C78.9401 244.591 78.0868 245.521 77.258 246.524C76.4048 247.455 75.576 248.457 74.7472 249.46C73.9183 250.463 73.0895 251.465 72.2607 252.468C69.0536 256.522 65.9792 260.691 63.3728 264.863C60.7245 269.048 58.4536 273.105 56.6791 276.834C54.9045 280.563 53.5843 283.977 52.8239 286.56C52.6659 287.335 52.1122 289.287 52.469 288.685C52.003 290.206 51.5974 290.664 51.6598 291.124C51.9962 290.048 52.0518 290.35 52.083 290.58C52.1142 290.809 52.1454 291.039 52.513 290.193C52.3833 290.638 52.2956 291.069 52.1659 291.514C52.1796 291.83 52.5764 289.691 52.6388 290.151L52.5276 289.547C52.9127 288.614 53.1682 288.127 53.3466 287.826C53.6235 286.85 53.5406 285.916 54.5624 283.966L54.3313 284.525C55.0665 282.833 54.933 283.68 55.1114 283.379L54.9574 283.752L55.6886 282.462C55.1114 283.379 54.5401 285.417 54.9008 284.412C55.8388 282.491 54.621 284.828 55.2372 283.336C55.6223 282.404 55.6185 282.806 55.6672 282.95L56.4268 281.329C56.4755 281.473 55.8983 282.39 56.3215 281.846C56.5877 281.114 56.9202 280.44 57.1863 279.709C57.396 279.638 57.6271 279.078 57.9176 278.418C58.2082 277.759 58.5407 277.085 58.8693 276.813C58.1868 278.247 58.9951 276.77 58.9668 277.101L59.8941 275.423L60.8458 273.818C61.0486 273.588 60.4187 274.764 60.6742 274.277C61.0973 273.732 61.2026 273.215 61.3986 272.828C61.5 272.714 61.8569 272.112 62.1962 271.596C62.5355 271.08 62.8993 270.636 62.948 270.78C64.3716 268.773 63.3439 269.603 64.6905 267.783C64.9177 267.626 63.6969 269.403 64.3648 268.615C64.7811 267.913 65.2638 267.268 65.6802 266.566C65.5856 266.838 65.5573 267.169 65.0571 267.9C66.0224 266.61 66.8688 265.521 67.6733 264.447C68.5265 263.516 69.2958 262.614 70.0652 261.711C70.4289 261.267 70.8345 260.809 71.1982 260.365C71.5619 259.921 71.9676 259.463 72.3732 259.004C73.1845 258.088 73.9714 257.1 74.8353 255.925C75.4331 255.481 74.5204 256.512 74.2474 257.086C75.4682 255.309 76.5135 254.393 77.4505 253.434C78.3876 252.475 79.3315 251.674 80.489 250.4L80.4821 250.242C81.3422 249.469 82.2617 248.596 83.1568 247.651C84.052 246.706 85.0134 245.819 85.9505 244.859C86.8876 243.9 87.8666 242.927 88.8456 241.953C89.849 241.052 90.828 240.079 91.7894 239.191L91.2931 239.52C91.7758 238.875 92.6114 238.031 93.2199 237.343C93.3457 237.301 92.9118 238.089 94.0097 236.915C93.7406 237.087 93.2687 237.487 93.3457 237.301C94.2301 236.6 95.3417 235.742 96.6143 234.669C97.8868 233.596 99.2363 232.337 100.76 231.178C102.26 229.948 103.844 228.69 105.385 227.445C105.798 227.145 106.144 226.787 106.557 226.487C106.969 226.187 107.34 225.901 107.71 225.615C108.493 225.029 109.234 224.457 109.975 223.885C117.767 217.634 126.684 211.805 134.8 206.647C133.58 207.462 133.93 206.702 134.888 206.217C136.313 205.733 137.365 204.976 138.484 204.276C139.602 203.576 140.696 202.804 142.098 202.249C144.478 200.72 146.764 199.464 149.032 198.294C151.3 197.124 153.544 195.882 155.714 194.424L155.847 194.54C156.536 194.226 156.696 194.011 157.402 193.611L157.427 193.683C159.157 192.856 161.124 191.628 162.148 191.2L162.117 190.97C163.117 190.471 162.687 190.857 163.679 190.2L163.686 190.358L164.822 189.572C164.818 189.974 167.695 188.117 168.558 187.905C169.868 187.22 172.322 185.907 174.345 184.98C174.771 184.996 177.274 183.827 178.885 183.2C180.405 182.444 182.285 181.646 184.266 180.734C186.248 179.822 188.338 178.953 190.301 178.126L190.144 177.939L191.168 177.512C191.193 177.584 191.319 177.541 191.151 177.598C192.063 177.529 193.485 176.486 194.415 176.331C193.796 176.3 193.66 176.587 193.097 176.858C192.192 177.084 192.933 176.512 194.132 176.186L194.114 176.272L194.862 175.858C194.995 175.974 195.774 175.79 195.931 175.977C199.338 174.581 201.557 173.267 205.139 171.973C204.835 172.316 207.69 170.947 207.099 171.549C209.206 170.594 206.624 171.389 207.533 170.76C208.12 170.561 208.742 170.19 208.875 170.305C208.606 170.477 209.451 170.35 208.948 170.521L210.349 169.966C210.475 169.923 210.206 170.094 210.063 170.223C212.9 168.94 215.328 168.518 217.831 167.349C217.992 167.134 216.782 167.704 216.943 167.489C219.463 166.234 219.34 166.837 221.741 165.782L221.287 166.097C222.034 165.683 222.321 165.425 223.712 165.114C224.036 165.244 222.628 165.642 222.048 165.999C222.971 165.686 225.21 164.846 224.449 164.944C225.515 164.503 225.965 164.59 226.552 164.391C226.528 164.319 225.497 164.589 226.102 164.304C227.618 163.95 229.858 163.11 231.685 162.571C231.71 162.643 231.86 162.672 231.692 162.729C232.619 162.014 232.639 162.488 234.61 161.82Z" fill="#15B7DC"/>
<path d="M333.627 138.508L332.866 138.606C332.89 138.678 332.848 138.692 332.513 138.806L333.627 138.508Z" fill="#15B7DC"/>
<path d="M288.601 146.078C289.212 145.951 288.66 145.978 288.342 146.005C288.325 146.092 288.325 146.092 288.601 146.078Z" fill="#15B7DC"/>
<path d="M354.438 136.182C354.312 136.225 354.229 136.253 354.253 136.324C354.462 136.253 354.503 136.239 354.438 136.182Z" fill="#15B7DC"/>
<path d="M414.083 139.049C413.975 139.005 413.934 139.02 413.826 138.976C413.892 139.034 413.934 139.02 414.083 139.049Z" fill="#15B7DC"/>
<path d="M410.665 138.204C410.515 138.174 410.281 138.174 409.98 138.115C410.281 138.174 410.473 138.189 410.665 138.204Z" fill="#15B7DC"/>
<path d="M340.384 137.339C340.15 137.338 339.983 137.395 339.773 137.466C340.133 137.424 340.3 137.367 340.384 137.339Z" fill="#15B7DC"/>
<path d="M415.136 139.254C414.793 139.209 414.343 139.122 414.042 139.063C414.517 139.223 414.86 139.267 415.136 139.254Z" fill="#15B7DC"/>
<path d="M375.976 135.453C375.934 135.467 375.934 135.467 375.892 135.481C375.259 135.537 375.659 135.481 375.976 135.453Z" fill="#15B7DC"/>
<path d="M405.634 137.985C405.592 137.999 405.551 138.014 405.526 137.942L405.293 137.941L405.634 137.985Z" fill="#15B7DC"/>
<path d="M418.824 139.927C418.673 139.898 418.523 139.869 418.398 139.911C418.548 139.941 418.698 139.97 418.89 139.985C418.848 139.999 418.824 139.927 418.824 139.927Z" fill="#15B7DC"/>
<path d="M388.524 136.33C388.733 136.259 388.816 136.231 388.834 136.145C388.559 136.158 388.367 136.143 388.524 136.33Z" fill="#15B7DC"/>
</svg>
