<svg width="502" height="218" viewBox="0 0 502 218" fill="none" xmlns="http://www.w3.org/2000/svg">
<g filter="url(#filter0_b_4004_53017)">
<rect width="502" height="218" rx="8" fill="white" fill-opacity="0.01"/>
<rect x="0.5" y="0.5" width="501" height="217" rx="7.5" stroke="white" stroke-opacity="0.09"/>
<path d="M90.6818 100.897C112.773 100.897 130.682 82.9881 130.682 60.8967C130.682 38.8053 112.773 20.8967 90.6818 20.8967C68.5904 20.8967 50.6818 38.8053 50.6818 60.8967C50.6818 82.9881 68.5904 100.897 90.6818 100.897Z" fill="#F0F0F0"/>
<path d="M50.6818 60.8964C50.6818 78.0951 61.5368 92.7567 76.7688 98.4085V23.3845C61.5368 29.0361 50.6818 43.6979 50.6818 60.8964Z" fill="#6DA544"/>
<path d="M130.682 60.8964C130.682 43.6979 119.827 29.0361 104.595 23.3845V98.4087C119.827 92.7567 130.682 78.0951 130.682 60.8964Z" fill="#6DA544"/>
<path d="M146.682 60.8971C146.682 65.7899 147.562 70.4767 149.17 74.81L186.682 76.5492L224.194 74.8102C225.802 70.4767 226.682 65.7899 226.682 60.8971C226.682 56.0042 225.802 51.3174 224.194 46.9841L186.682 45.2449L149.17 46.9839C147.562 51.3174 146.682 56.0042 146.682 60.8971V60.8971Z" fill="#FFDA44"/>
<path d="M186.683 20.8967C169.484 20.8967 154.822 31.7517 149.171 46.9838H224.195C218.543 31.7517 203.881 20.8967 186.683 20.8967Z" fill="#D80027"/>
<path d="M224.195 74.8103H149.171C154.822 90.0422 169.484 100.897 186.683 100.897C203.881 100.897 218.543 90.0422 224.195 74.8103Z" fill="#496E2D"/>
<path d="M186.682 46.9832L190.135 57.6113H201.311L192.27 64.1805L195.723 74.8091L186.682 68.2403L177.641 74.8091L181.094 64.1805L172.053 57.6113H183.229L186.682 46.9832Z" fill="black"/>
<path d="M282 98.9375C304.091 98.9375 322 81.0289 322 58.9375C322 36.8461 304.091 18.9375 282 18.9375C259.909 18.9375 242 36.8461 242 58.9375C242 81.0289 259.909 98.9375 282 98.9375Z" fill="#D80027"/>
<path d="M263.891 43.2812L267.344 53.9062H278.516L269.484 60.4844L272.938 71.1094L263.891 64.5469L254.844 71.1094L258.312 60.4844L249.266 53.9062H260.438L263.891 43.2812Z" fill="#FFDA44"/>
<path d="M289.422 80.8906L286.781 77.6406L282.875 79.1563L285.141 75.6406L282.5 72.375L286.547 73.4531L288.828 69.9375L289.047 74.125L293.109 75.2031L289.187 76.7031L289.422 80.8906Z" fill="#FFDA44"/>
<path d="M294.672 71.3594L295.922 67.3594L292.5 64.9375L296.687 64.875L297.922 60.875L299.281 64.8437L303.469 64.7969L300.109 67.2969L301.453 71.2656L298.031 68.8437L294.672 71.3594Z" fill="#FFDA44"/>
<path d="M301.75 48.2969L299.906 52.0625L302.906 54.9844L298.766 54.3906L296.922 58.1406L296.203 54.0156L292.047 53.4219L295.766 51.4688L295.047 47.3281L298.047 50.25L301.75 48.2969Z" fill="#FFDA44"/>
<path d="M289.531 36.8906L289.219 41.0625L293.109 42.6406L289.031 43.6406L288.734 47.8281L286.531 44.2656L282.453 45.2656L285.156 42.0625L282.938 38.5156L286.828 40.0938L289.531 36.8906Z" fill="#FFDA44"/>
<path d="M378.682 100.897C400.773 100.897 418.682 82.9881 418.682 60.8967C418.682 38.8053 400.773 20.8967 378.682 20.8967C356.59 20.8967 338.682 38.8053 338.682 60.8967C338.682 82.9881 356.59 100.897 378.682 100.897Z" fill="#F0F0F0"/>
<path d="M378.681 20.8967C362.823 20.8967 349.121 30.1256 342.651 43.5055H414.712C408.242 30.1256 394.54 20.8967 378.681 20.8967Z" fill="#FF9811"/>
<path d="M378.681 100.897C394.54 100.897 408.242 91.6679 414.712 78.2881H342.651C349.121 91.6679 362.823 100.897 378.681 100.897Z" fill="#6DA544"/>
<path d="M378.681 74.8091C386.365 74.8091 392.594 68.58 392.594 60.8961C392.594 53.2122 386.365 46.9832 378.681 46.9832C370.998 46.9832 364.768 53.2122 364.768 60.8961C364.768 68.58 370.998 74.8091 378.681 74.8091Z" fill="#0052B4"/>
<path d="M378.682 69.5929C383.484 69.5929 387.378 65.6997 387.378 60.8973C387.378 56.0948 383.484 52.2017 378.682 52.2017C373.88 52.2017 369.986 56.0948 369.986 60.8973C369.986 65.6997 373.88 69.5929 378.682 69.5929Z" fill="#F0F0F0"/>
<path d="M378.682 50.1667L381.365 56.2508L387.975 55.5319L384.048 60.8971L387.975 66.2622L381.365 65.5433L378.682 71.6274L376 65.5433L369.39 66.2621L373.317 60.8971L369.39 55.5319L376 56.2508L378.682 50.1667Z" fill="#0052B4"/>
<path d="M455.208 129V99H462.792V129H455.208ZM444 117.792V110.208H474V117.792H444Z" fill="#F0F0F0"/>
<path d="M94.6818 201.022C116.773 201.022 134.682 183.113 134.682 161.022C134.682 138.93 116.773 121.022 94.6818 121.022C72.5904 121.022 54.6818 138.93 54.6818 161.022C54.6818 183.113 72.5904 201.022 94.6818 201.022Z" fill="#F0F0F0"/>
<path d="M94.6827 121.022V161.022L66.3984 189.306C73.637 196.545 83.637 201.022 94.6827 201.022C116.774 201.022 134.683 183.113 134.683 161.022C134.683 138.93 94.6827 121.022 94.6827 121.022Z" fill="#D80027"/>
<path d="M94.6827 121.022C83.637 121.022 73.637 125.499 66.3984 132.737C76.2124 142.551 79.6963 146.035 94.6827 161.022H134.683C134.683 138.93 116.774 121.022 94.6827 121.022Z" fill="#0052B4"/>
<path d="M82.0711 161.021L77.1861 158.724L79.7875 153.992L74.4828 155.007L73.8107 149.648L70.1157 153.59L66.4208 149.648L65.7485 155.007L60.4439 153.992L63.0453 158.724L58.1602 161.021L63.0453 163.319L60.4439 168.05L65.7489 167.036L66.4207 172.394L70.1157 168.453L73.8107 172.394L74.4828 167.036L79.7872 168.05L77.186 163.319L82.0711 161.021Z" fill="#FFDA44"/>
<path d="M65.3487 136.674L66.9743 138.946L69.6376 138.102L67.9785 140.35L69.6041 142.623L66.9532 141.74L65.2943 143.988L65.3151 141.194L62.6643 140.311L65.328 139.467L65.3487 136.674Z" fill="#FFDA44"/>
<path d="M65.3487 178.055L66.9743 180.328L69.6376 179.484L67.9785 181.732L69.6041 184.005L66.9532 183.122L65.2943 185.37L65.3151 182.576L62.6643 181.693L65.328 180.849L65.3487 178.055Z" fill="#FFDA44"/>
<path d="M88.5346 157.365L86.9091 159.637L84.2457 158.793L85.9048 161.041L84.2791 163.314L86.9301 162.431L88.5891 164.679L88.5682 161.885L91.219 161.002L88.5554 160.158L88.5346 157.365Z" fill="#FFDA44"/>
<path d="M190.682 201.022C212.773 201.022 230.682 183.113 230.682 161.022C230.682 138.93 212.773 121.022 190.682 121.022C168.59 121.022 150.682 138.93 150.682 161.022C150.682 183.113 168.59 201.022 190.682 201.022Z" fill="#0052B4"/>
<path d="M190.682 136.674L191.977 140.659H196.168L192.777 143.123L194.072 147.108L190.682 144.645L187.291 147.108L188.586 143.123L185.196 140.659H189.387L190.682 136.674Z" fill="#FFDA44"/>
<path d="M173.466 143.805L177.2 145.707L180.164 142.744L179.508 146.883L183.242 148.786L179.103 149.441L178.447 153.581L176.544 149.847L172.405 150.502L175.369 147.539L173.466 143.805Z" fill="#FFDA44"/>
<path d="M166.334 161.022L170.319 159.727V155.536L172.783 158.927L176.768 157.631L174.305 161.022L176.768 164.412L172.783 163.117L170.319 166.508V162.317L166.334 161.022Z" fill="#FFDA44"/>
<path d="M173.466 178.238L175.369 174.503L172.405 171.54L176.545 172.196L178.447 168.462L179.103 172.601L183.242 173.257L179.508 175.159L180.164 179.298L177.2 176.335L173.466 178.238Z" fill="#FFDA44"/>
<path d="M190.682 185.369L189.387 181.383H185.196L188.587 178.92L187.291 174.934L190.682 177.397L194.072 174.934L192.777 178.92L196.168 181.383H191.977L190.682 185.369Z" fill="#FFDA44"/>
<path d="M207.899 178.238L204.165 176.335L201.201 179.299L201.857 175.159L198.123 173.257L202.262 172.601L202.918 168.462L204.82 172.196L208.959 171.54L205.996 174.504L207.899 178.238Z" fill="#FFDA44"/>
<path d="M215.03 161.022L211.044 162.317V166.508L208.581 163.117L204.595 164.412L207.059 161.022L204.595 157.631L208.581 158.927L211.044 155.536V159.727L215.03 161.022Z" fill="#FFDA44"/>
<path d="M207.899 143.805L205.996 147.539L208.96 150.502L204.82 149.846L202.918 153.581L202.262 149.441L198.123 148.786L201.857 146.883L201.201 142.744L204.165 145.707L207.899 143.805Z" fill="#FFDA44"/>
<path d="M286.682 201.022C308.773 201.022 326.682 183.113 326.682 161.022C326.682 138.93 308.773 121.022 286.682 121.022C264.59 121.022 246.682 138.93 246.682 161.022C246.682 183.113 264.59 201.022 286.682 201.022Z" fill="#F0F0F0"/>
<path d="M286.682 121.022C270.824 121.022 257.121 130.251 250.651 143.63H322.713C316.243 130.251 302.541 121.022 286.682 121.022Z" fill="#338AF3"/>
<path d="M286.682 201.022C302.541 201.022 316.243 191.793 322.713 178.413H250.651C257.121 191.793 270.824 201.022 286.682 201.022Z" fill="#338AF3"/>
<path d="M298.637 161.021L293.752 163.319L296.353 168.05L291.049 167.036L290.377 172.394L286.682 168.453L282.987 172.394L282.315 167.036L277.01 168.05L279.611 163.319L274.726 161.021L279.611 158.723L277.01 153.992L282.314 155.007L282.987 149.648L286.682 153.59L290.377 149.648L291.049 155.007L296.354 153.992L293.752 158.724L298.637 161.021Z" fill="#FFDA44"/>
<path d="M342.682 161.022C342.682 138.93 360.591 121.022 382.682 121.022C404.773 121.022 422.682 138.93 422.682 161.022L382.682 164.5L342.682 161.022Z" fill="#FFDA44"/>
<path d="M348.035 181.022C354.951 192.977 367.877 201.022 382.682 201.022C397.488 201.022 410.413 192.977 417.33 181.022L382.682 178.413L348.035 181.022Z" fill="#D80027"/>
<path d="M417.329 181.022C420.733 175.138 422.682 168.308 422.682 161.022H342.682C342.682 168.308 344.631 175.138 348.034 181.022H417.329Z" fill="#0052B4"/>
</g>
<defs>
<filter id="filter0_b_4004_53017" x="-61" y="-61" width="624" height="340" filterUnits="userSpaceOnUse" color-interpolation-filters="sRGB">
<feFlood flood-opacity="0" result="BackgroundImageFix"/>
<feGaussianBlur in="BackgroundImageFix" stdDeviation="30.5"/>
<feComposite in2="SourceAlpha" operator="in" result="effect1_backgroundBlur_4004_53017"/>
<feBlend mode="normal" in="SourceGraphic" in2="effect1_backgroundBlur_4004_53017" result="shape"/>
</filter>
</defs>
</svg>
