<svg width="51" height="52" viewBox="0 0 51 52" fill="none" xmlns="http://www.w3.org/2000/svg">
<path d="M50.4258 26.2245C50.4258 40.0315 39.2328 51.2245 25.4258 51.2245C11.6187 51.2245 0.425781 40.0315 0.425781 26.2245C0.425781 26.2303 25.4258 1.22732 25.4258 1.22449C39.2328 1.22449 50.4258 12.4175 50.4258 26.2245Z" fill="#0052B4"/>
<path d="M25.4246 1.22449C25.4237 1.22449 25.4228 1.22453 25.4219 1.22453L25.4246 1.22449Z" fill="#F0F0F0"/>
<path d="M25.3584 26.2242H25.4253C25.4253 26.2016 25.4253 26.1799 25.4253 26.1573C25.403 26.1797 25.3808 26.202 25.3584 26.2242Z" fill="#F0F0F0"/>
<path d="M25.4258 14.268C25.4258 9.86907 25.4258 6.98656 25.4258 1.22455H25.4216C11.6164 1.22679 0.425781 12.4187 0.425781 26.2244H13.4692V18.8795L20.8142 26.2244H25.359C25.3813 26.2022 25.4036 26.1799 25.4259 26.1575C25.4259 24.4733 25.4259 22.9704 25.4259 21.613L18.0809 14.268H25.4258Z" fill="#F0F0F0"/>
<path d="M13.0746 4.48535C9.16455 6.71182 5.91397 9.96241 3.6875 13.8725V26.2245H10.2093V11.0072V11.0071H25.4267C25.4267 8.9502 25.4267 6.99063 25.4267 4.48535H13.0746Z" fill="#D80027"/>
<path d="M25.4271 23.1498L16.545 14.2678H13.4707C13.4707 14.2677 13.4707 14.2678 13.4707 14.2678L25.427 26.2242H25.4271C25.4271 26.2242 25.4271 24.1045 25.4271 23.1498Z" fill="#D80027"/>
<path d="M15.5042 30.5724L16.8763 33.4414L19.9746 32.7253L18.5871 35.5868L21.0787 37.5627L17.9765 38.2619L17.9852 41.442L15.5042 39.4524L13.0233 41.442L13.032 38.2619L9.92969 37.5627L12.4214 35.5868L11.0337 32.7253L14.1322 33.4414L15.5042 30.5724Z" fill="#F0F0F0"/>
<path d="M37.8576 36.007L38.5436 37.4414L40.0928 37.0833L39.399 38.5141L40.6449 39.5021L39.0937 39.8517L39.098 41.4417L37.8576 40.4469L36.6171 41.4417L36.6214 39.8517L35.0703 39.5021L36.3161 38.5141L35.6224 37.0833L37.1715 37.4414L37.8576 36.007Z" fill="#F0F0F0"/>
<path d="M31.4738 20.7901L32.1598 22.2247L33.709 21.8665L33.0152 23.2972L34.261 24.2852L32.71 24.6348L32.7142 26.2249L31.4738 25.23L30.2334 26.2249L30.2376 24.6348L28.6865 24.2852L29.9323 23.2972L29.2386 21.8665L30.7878 22.2247L31.4738 20.7901Z" fill="#F0F0F0"/>
<path d="M37.8576 12.0941L38.5436 13.5287L40.0928 13.1706L39.3991 14.6013L40.6448 15.5892L39.0937 15.9389L39.098 17.529L37.8576 16.5342L36.6171 17.529L36.6214 15.9389L35.0703 15.5892L36.316 14.6013L35.6224 13.1706L37.1715 13.5287L37.8576 12.0941Z" fill="#F0F0F0"/>
<path d="M43.4318 18.6157L44.1178 20.0503L45.667 19.6921L44.9732 21.1228L46.219 22.1108L44.6679 22.4605L44.6722 24.0505L43.4318 23.0558L42.1914 24.0505L42.1956 22.4605L40.6445 22.1108L41.8903 21.1228L41.1966 19.6921L42.7457 20.0503L43.4318 18.6157Z" fill="#F0F0F0"/>
<path d="M39.4451 26.2246L39.9846 27.8854H41.7309L40.3181 28.9118L40.8579 30.5725L39.4451 29.5461L38.0323 30.5725L38.5719 28.9118L37.1592 27.8854H38.9054L39.4451 26.2246Z" fill="#F0F0F0"/>
</svg>
