<svg width="51" height="52" viewBox="0 0 51 52" fill="none" xmlns="http://www.w3.org/2000/svg">
<path d="M25.4258 51.2245C39.2329 51.2245 50.4258 40.0316 50.4258 26.2245C50.4258 12.4174 39.2329 1.22449 25.4258 1.22449C11.6187 1.22449 0.425781 12.4174 0.425781 26.2245C0.425781 40.0316 11.6187 51.2245 25.4258 51.2245Z" fill="#6DA544"/>
<path d="M25.4256 11.007L46.0777 26.2243L25.4256 41.4417L4.77344 26.2243L25.4256 11.007Z" fill="#FFDA44"/>
<path d="M25.4261 34.9198C30.2285 34.9198 34.1217 31.0266 34.1217 26.2242C34.1217 21.4217 30.2285 17.5286 25.4261 17.5286C20.6236 17.5286 16.7305 21.4217 16.7305 26.2242C16.7305 31.0266 20.6236 34.9198 25.4261 34.9198Z" fill="#F0F0F0"/>
<path d="M21.0784 25.6807C19.5663 25.6807 18.107 25.9107 16.7334 26.3375C16.7942 31.0875 20.6618 34.9199 25.4263 34.9199C28.3724 34.9199 30.9743 33.4534 32.5473 31.2121C29.8562 27.8432 25.7154 25.6807 21.0784 25.6807Z" fill="#0052B4"/>
<path d="M33.9607 27.8902C34.0654 27.3507 34.122 26.7942 34.122 26.2242C34.122 21.4216 30.2288 17.5286 25.4264 17.5286C21.843 17.5286 18.7668 19.6966 17.4355 22.7921C18.6123 22.5483 19.8307 22.4199 21.0786 22.4199C26.1291 22.4198 30.698 24.5192 33.9607 27.8902Z" fill="#0052B4"/>
</svg>
