<svg width="51" height="52" viewBox="0 0 51 52" fill="none" xmlns="http://www.w3.org/2000/svg">
<path d="M36.2958 3.70515C33.0091 2.11589 29.3218 1.22449 25.4263 1.22449C21.5308 1.22449 17.8435 2.11589 14.5567 3.70515L12.3828 26.2245L14.5567 48.7438C17.8435 50.3331 21.5308 51.2245 25.4263 51.2245C29.3218 51.2245 33.0091 50.3331 36.2958 48.7438L38.4697 26.2245L36.2958 3.70515Z" fill="#D80027"/>
<path d="M25.4262 17.5286L27.5844 24.171H34.5695L28.9187 28.2769L31.0771 34.9198L25.4262 30.8142L19.7753 34.9198L21.934 28.2769L16.2832 24.171H23.2679L25.4262 17.5286Z" fill="#FFDA44"/>
<path d="M14.5562 3.70636C6.19395 7.74991 0.425781 16.3133 0.425781 26.2248C0.425781 36.1363 6.19395 44.6997 14.5562 48.7432V3.70636Z" fill="#496E2D"/>
<path d="M36.2949 3.70636V48.7432C44.6572 44.6997 50.4254 36.1362 50.4254 26.2248C50.4254 16.3134 44.6572 7.74991 36.2949 3.70636Z" fill="#FFDA44"/>
</svg>
