<svg width="51" height="52" viewBox="0 0 51 52" fill="none" xmlns="http://www.w3.org/2000/svg">
<path d="M25.4258 51.2245C39.2329 51.2245 50.4258 40.0316 50.4258 26.2245C50.4258 12.4174 39.2329 1.22449 25.4258 1.22449C11.6187 1.22449 0.425781 12.4174 0.425781 26.2245C0.425781 40.0316 11.6187 51.2245 25.4258 51.2245Z" fill="#D80027"/>
<path d="M14.1074 16.4393L16.2656 23.08H23.248L17.6035 27.1913L19.7617 33.8319L14.1074 29.7303L8.45312 33.8319L10.6211 27.1913L4.9668 23.08H11.9492L14.1074 16.4393Z" fill="#FFDA44"/>
<path d="M30.0645 39.9452L28.4141 37.9139L25.9727 38.8612L27.3887 36.6639L25.7383 34.6229L28.2676 35.2968L29.6934 33.0995L29.8301 35.7167L32.3692 36.3905L29.918 37.328L30.0645 39.9452Z" fill="#FFDA44"/>
<path d="M33.3457 33.9882L34.127 31.4882L31.9883 29.9745L34.6055 29.9354L35.377 27.4354L36.2266 29.9159L38.8438 29.8866L36.7441 31.4491L37.584 33.9296L35.4453 32.4159L33.3457 33.9882Z" fill="#FFDA44"/>
<path d="M37.7695 19.5738L36.6172 21.9273L38.4922 23.7535L35.9043 23.3824L34.752 25.7261L34.3027 23.148L31.7051 22.7769L34.0293 21.5562L33.5801 18.9683L35.4551 20.7945L37.7695 19.5738Z" fill="#FFDA44"/>
<path d="M30.1338 12.4452L29.9385 15.0526L32.3701 16.0389L29.8213 16.6639L29.6357 19.2811L28.2588 17.0546L25.71 17.6796L27.3994 15.6776L26.0127 13.4608L28.4443 14.4471L30.1338 12.4452Z" fill="#FFDA44"/>
</svg>
