<svg width="51" height="52" viewBox="0 0 51 52" fill="none" xmlns="http://www.w3.org/2000/svg">
<path d="M1.98145 34.9199C5.51377 44.4398 14.6773 51.2243 25.4265 51.2243C36.1756 51.2243 45.3392 44.4398 48.8715 34.9199L25.4265 32.7461L1.98145 34.9199Z" fill="#FFDA44"/>
<path d="M25.4265 1.22449C14.6773 1.22449 5.51377 8.00886 1.98145 17.5289L25.4265 19.7027L48.8715 17.5288C45.3392 8.00886 36.1756 1.22449 25.4265 1.22449Z" fill="black"/>
<path d="M1.98076 17.5286C0.975879 20.2369 0.425781 23.1662 0.425781 26.2242C0.425781 29.2822 0.975879 32.2115 1.98076 34.9198H48.8709C49.8758 32.2115 50.4258 29.2822 50.4258 26.2242C50.4258 23.1662 49.8758 20.2369 48.8708 17.5286H1.98076Z" fill="#D80027"/>
</svg>
