<svg width="51" height="52" viewBox="0 0 51 52" fill="none" xmlns="http://www.w3.org/2000/svg">
<path d="M0.425781 26.2245C0.425781 12.4175 11.6187 1.22449 25.4258 1.22449C39.2328 1.22449 50.4258 12.4175 50.4258 26.2245L25.4258 28.3984L0.425781 26.2245Z" fill="#FFDA44"/>
<path d="M3.77051 38.7246C8.09326 46.1968 16.1718 51.2246 25.4252 51.2246C34.6786 51.2246 42.7571 46.1968 47.0799 38.7246L25.4252 37.0941L3.77051 38.7246Z" fill="#D80027"/>
<path d="M47.0805 38.7245C49.2076 35.0473 50.4258 30.7783 50.4258 26.2245H0.425781C0.425781 30.7783 1.64395 35.0473 3.77109 38.7245H47.0805Z" fill="#0052B4"/>
<path d="M25.4261 34.9198C30.2285 34.9198 34.1217 31.0266 34.1217 26.2242C34.1217 21.4217 30.2285 17.5286 25.4261 17.5286C20.6236 17.5286 16.7305 21.4217 16.7305 26.2242C16.7305 31.0266 20.6236 34.9198 25.4261 34.9198Z" fill="#FFDA44"/>
<path d="M25.426 31.6589C22.4292 31.6589 19.9912 29.2208 19.9912 26.2242V22.9633C19.9912 19.9666 22.4293 17.5286 25.426 17.5286C28.4227 17.5286 30.8607 19.9666 30.8607 22.9633V26.2242C30.8607 29.2209 28.4228 31.6589 25.426 31.6589Z" fill="#338AF3"/>
<path d="M34.1219 13.1809H27.6001C27.6001 11.9803 26.6268 11.007 25.4262 11.007C24.2256 11.007 23.2522 11.9803 23.2522 13.1809H16.7305C16.7305 14.3816 17.7763 15.3548 18.9768 15.3548H18.9044C18.9044 16.5555 19.8776 17.5287 21.0783 17.5287C21.0783 18.7294 22.0516 19.7027 23.2522 19.7027H27.6001C28.8008 19.7027 29.774 18.7294 29.774 17.5287C30.9747 17.5287 31.948 16.5555 31.948 15.3548H31.8756C33.0762 15.3548 34.1219 14.3815 34.1219 13.1809Z" fill="black"/>
</svg>
