<svg width="51" height="52" viewBox="0 0 51 52" fill="none" xmlns="http://www.w3.org/2000/svg">
<path d="M25.4258 51.2245C39.2329 51.2245 50.4258 40.0316 50.4258 26.2245C50.4258 12.4174 39.2329 1.22449 25.4258 1.22449C11.6187 1.22449 0.425781 12.4174 0.425781 26.2245C0.425781 40.0316 11.6187 51.2245 25.4258 51.2245Z" fill="#F0F0F0"/>
<path d="M25.4265 1.22449C14.6773 1.22449 5.51377 8.00886 1.98145 17.5289H48.8716C45.3391 8.00886 36.1756 1.22449 25.4265 1.22449Z" fill="#D80027"/>
<path d="M25.4265 51.2249C36.1756 51.2249 45.3391 44.4405 48.8715 34.9205H1.98145C5.51377 44.4405 14.6773 51.2249 25.4265 51.2249Z" fill="black"/>
<path d="M34.1219 23.5072H27.6001C27.6001 22.3067 26.6268 21.3333 25.4262 21.3333C24.2256 21.3333 23.2522 22.3067 23.2522 23.5072H16.7305C16.7305 24.7079 17.7763 25.6812 18.9769 25.6812H18.9044C18.9044 26.8818 19.8776 27.8551 21.0783 27.8551C21.0783 29.0558 22.0516 30.029 23.2522 30.029H27.6001C28.8008 30.029 29.774 29.0558 29.774 27.8551C30.9747 27.8551 31.948 26.8818 31.948 25.6812H31.8756C33.0762 25.6812 34.1219 24.7079 34.1219 23.5072Z" fill="#FF9811"/>
</svg>
