<svg width="51" height="52" viewBox="0 0 51 52" fill="none" xmlns="http://www.w3.org/2000/svg">
<path d="M0.425781 26.2245C0.425781 29.2825 0.975879 32.2118 1.98076 34.9201L25.4258 37.094L48.8708 34.9201C49.8757 32.2118 50.4258 29.2825 50.4258 26.2245C50.4258 23.1665 49.8757 20.2372 48.8708 17.5289L25.4258 15.355L1.98076 17.5289C0.975879 20.2372 0.425781 23.1665 0.425781 26.2245H0.425781Z" fill="#FFDA44"/>
<path d="M48.8715 17.5289C45.3392 8.00896 36.1756 1.22449 25.4265 1.22449C14.6773 1.22449 5.51377 8.00896 1.98145 17.5289H48.8715Z" fill="#D80027"/>
<path d="M1.98145 34.9204C5.51377 44.4403 14.6773 51.2248 25.4265 51.2248C36.1756 51.2248 45.3392 44.4403 48.8715 34.9204H1.98145Z" fill="#D80027"/>
</svg>
