<svg width="51" height="52" viewBox="0 0 51 52" fill="none" xmlns="http://www.w3.org/2000/svg">
<path d="M0.425781 26.2248C0.425781 29.2828 0.975879 32.2121 1.98076 34.9204L25.4258 36.0074L48.8708 34.9205C49.8758 32.2121 50.4258 29.2828 50.4258 26.2248C50.4258 23.1667 49.8758 20.2375 48.8708 17.5292L25.4258 16.4421L1.98076 17.5291C0.975879 20.2375 0.425781 23.1667 0.425781 26.2248H0.425781Z" fill="#FFDA44"/>
<path d="M25.4265 1.22449C14.6773 1.22449 5.51377 8.00886 1.98145 17.5289H48.8716C45.3392 8.00886 36.1756 1.22449 25.4265 1.22449Z" fill="#D80027"/>
<path d="M48.8715 34.9205H1.98145C5.51377 44.4405 14.6773 51.2249 25.4265 51.2249C36.1756 51.2249 45.3391 44.4405 48.8715 34.9205Z" fill="#496E2D"/>
<path d="M25.4262 17.5286L27.5844 24.1711H34.5695L28.9188 28.2769L31.077 34.9198L25.4262 30.8143L19.7753 34.9198L21.9339 28.2769L16.2832 24.1711H23.268L25.4262 17.5286Z" fill="black"/>
</svg>
