<svg width="51" height="52" viewBox="0 0 51 52" fill="none" xmlns="http://www.w3.org/2000/svg">
<path d="M25.4258 51.2245C39.2329 51.2245 50.4258 40.0316 50.4258 26.2245C50.4258 12.4174 39.2329 1.22449 25.4258 1.22449C11.6187 1.22449 0.425781 12.4174 0.425781 26.2245C0.425781 40.0316 11.6187 51.2245 25.4258 51.2245Z" fill="#F0F0F0"/>
<path d="M25.4258 19.7031H49.5646C48.9377 17.3775 47.985 15.186 46.7564 13.1813H25.4258V19.7031Z" fill="#338AF3"/>
<path d="M9.86318 45.7895H40.9875C43.269 43.9723 45.2257 41.7651 46.7559 39.2677H4.09473C5.6251 41.765 7.58174 43.9723 9.86318 45.7895Z" fill="#338AF3"/>
<path d="M9.121 7.27307C7.15557 8.96555 5.45645 10.9586 4.09473 13.1809H9.121V7.27307Z" fill="#338AF3"/>
<path d="M25.4258 26.2247C25.4258 23.6782 25.4258 21.547 25.4258 19.7029H15.6432V26.2247H9.12139V19.7029H1.28701C0.726563 21.7824 0.425781 23.9681 0.425781 26.2247C0.425781 28.4812 0.726563 30.6669 1.28701 32.7464H49.5646C50.125 30.6669 50.4258 28.4812 50.4258 26.2247H25.4258Z" fill="#338AF3"/>
<path d="M25.4262 1.22449C21.9546 1.22449 18.6484 1.93279 15.6436 3.2116V13.181H25.4262C25.4262 10.9045 25.4262 8.96824 25.4262 6.65925H40.9884C36.7178 3.25808 31.3099 1.22449 25.4262 1.22449Z" fill="#338AF3"/>
</svg>
