<svg width="51" height="52" viewBox="0 0 51 52" fill="none" xmlns="http://www.w3.org/2000/svg">
<path d="M25.4258 51.2245C39.2329 51.2245 50.4258 40.0316 50.4258 26.2245C50.4258 12.4174 39.2329 1.22449 25.4258 1.22449C11.6187 1.22449 0.425781 12.4174 0.425781 26.2245C0.425781 40.0316 11.6187 51.2245 25.4258 51.2245Z" fill="#D80027"/>
<path d="M28.0073 20.1374C27.4391 22.5006 26.4296 22.0499 25.9342 24.1109C23.016 23.4092 21.2187 20.4746 21.9204 17.5562C22.6217 14.6379 25.5566 12.8407 28.475 13.5423C27.484 17.6641 28.5156 18.0239 28.0073 20.1374Z" fill="#F0F0F0"/>
<path d="M20.4343 21.8889C22.5063 23.1594 21.7657 23.9804 23.5725 25.0885C22.0034 27.6471 18.6572 28.4494 16.0984 26.8803C13.5397 25.3113 12.7373 21.9649 14.3064 19.4062C17.9203 21.6223 18.5809 20.7524 20.4343 21.8889Z" fill="#F0F0F0"/>
<path d="M19.7594 29.6319C21.6081 28.054 22.1598 29.012 23.772 27.636C25.7207 29.9189 25.4496 33.3494 23.1668 35.2981C20.8838 37.2469 17.4533 36.9755 15.5049 34.6928C18.7289 31.9405 18.1058 31.0432 19.7594 29.6319Z" fill="#F0F0F0"/>
<path d="M26.9153 32.6667C25.9856 30.4209 27.0673 30.192 26.2568 28.2337C29.0302 27.0859 32.2091 28.4037 33.3569 31.177C34.5047 33.9504 33.1867 37.1292 30.4134 38.277C28.7926 34.3601 27.7468 34.6755 26.9153 32.6667Z" fill="#F0F0F0"/>
<path d="M32.0137 26.7982C29.5905 26.9883 29.7068 25.8887 27.5941 26.0545C27.3594 23.0624 29.5951 20.4461 32.5874 20.2113C35.5796 19.977 38.1958 22.2125 38.4304 25.2049C34.2041 25.5363 34.1808 26.6284 32.0137 26.7982Z" fill="#F0F0F0"/>
</svg>
