<svg width="51" height="52" viewBox="0 0 51 52" fill="none" xmlns="http://www.w3.org/2000/svg">
<path d="M25.4258 51.2245C39.2329 51.2245 50.4258 40.0316 50.4258 26.2245C50.4258 12.4174 39.2329 1.22449 25.4258 1.22449C11.6187 1.22449 0.425781 12.4174 0.425781 26.2245C0.425781 40.0316 11.6187 51.2245 25.4258 51.2245Z" fill="#F0F0F0"/>
<path d="M25.4256 1.22449C15.5141 1.22449 6.95 6.99255 2.90625 15.355H47.9448C43.9012 6.99255 35.337 1.22449 25.4256 1.22449Z" fill="#FF9811"/>
<path d="M25.4256 51.2246C35.337 51.2246 43.9011 45.4565 47.9449 37.0941H2.90625C6.95 45.4565 15.5141 51.2246 25.4256 51.2246Z" fill="#6DA544"/>
<path d="M25.4261 34.9198C30.2285 34.9198 34.1217 31.0266 34.1217 26.2242C34.1217 21.4217 30.2285 17.5286 25.4261 17.5286C20.6236 17.5286 16.7305 21.4217 16.7305 26.2242C16.7305 31.0266 20.6236 34.9198 25.4261 34.9198Z" fill="#0052B4"/>
<path d="M25.426 31.6596C28.4275 31.6596 30.8607 29.2264 30.8607 26.2249C30.8607 23.2233 28.4275 20.7901 25.426 20.7901C22.4244 20.7901 19.9912 23.2233 19.9912 26.2249C19.9912 29.2264 22.4244 31.6596 25.426 31.6596Z" fill="#F0F0F0"/>
<path d="M25.4261 19.5183L27.1027 23.3209L31.234 22.8715L28.7793 26.2248L31.234 29.578L27.1027 29.1287L25.4261 32.9312L23.7494 29.1287L19.6182 29.5779L22.0729 26.2248L19.6182 22.8715L23.7494 23.3209L25.4261 19.5183Z" fill="#0052B4"/>
</svg>
