<svg width="51" height="52" viewBox="0 0 51 52" fill="none" xmlns="http://www.w3.org/2000/svg">
<path d="M25.4258 51.2245C39.2329 51.2245 50.4258 40.0316 50.4258 26.2245C50.4258 12.4174 39.2329 1.22449 25.4258 1.22449C11.6187 1.22449 0.425781 12.4174 0.425781 26.2245C0.425781 40.0316 11.6187 51.2245 25.4258 51.2245Z" fill="#F0F0F0"/>
<path d="M25.4266 1.22449C15.515 1.22449 6.95097 6.99255 2.90723 15.355H47.9458C43.9021 6.99255 35.338 1.22449 25.4266 1.22449Z" fill="black"/>
<path d="M25.4266 51.2246C15.515 51.2246 6.95097 45.4565 2.90723 37.0941H47.9458C43.9021 45.4565 35.338 51.2246 25.4266 51.2246Z" fill="#496E2D"/>
<path d="M49.2452 18.6158H1.60635C0.840527 21.0152 0.425781 23.5713 0.425781 26.2245C0.425781 28.8778 0.840527 31.4339 1.60635 33.8332H49.2451C50.011 31.4339 50.4258 28.8778 50.4258 26.2245C50.4258 23.5713 50.011 21.0152 49.2452 18.6158Z" fill="#A2001D"/>
<path d="M33.21 12.777L30.2493 11.4105L25.4253 22.3335L20.6013 11.4105L17.6406 12.777L23.6297 26.2242L17.6406 39.6714L20.6013 41.0379L25.4253 30.1149L30.2493 41.0379L33.21 39.6714L27.2209 26.2242L33.21 12.777Z" fill="#F0F0F0"/>
<path d="M27.4357 14.0646C26.2896 12.8129 25.4249 12.0934 25.4249 12.0934C25.4249 12.0934 24.5602 12.8128 23.4141 14.0646V38.3829C24.5602 39.6348 25.4249 40.3543 25.4249 40.3543C25.4249 40.3543 26.2896 39.6348 27.4357 38.383V14.0646Z" fill="#F0F0F0"/>
<path d="M19.9912 18.7284V33.7198C21.2023 35.8658 22.6847 37.6248 23.7956 38.791V13.6573C22.6847 14.8235 21.2022 16.5825 19.9912 18.7284Z" fill="#A2001D"/>
<path d="M30.8601 18.7284C29.6488 16.5824 28.1666 14.8235 27.0557 13.6573V38.791C28.1665 37.6248 29.6488 35.8658 30.8601 33.7198V18.7284Z" fill="#A2001D"/>
<path d="M30.8613 18.7286V33.72C32.0874 31.5473 33.0353 28.9781 33.0353 26.2244C33.0353 23.4708 32.0874 20.9015 30.8613 18.7286Z" fill="black"/>
<path d="M19.9923 18.7286V33.72C18.7662 31.5473 17.8184 28.9781 17.8184 26.2244C17.8184 23.4708 18.7662 20.9015 19.9923 18.7286Z" fill="black"/>
</svg>
