<svg width="51" height="52" viewBox="0 0 51 52" fill="none" xmlns="http://www.w3.org/2000/svg">
<path d="M25.4258 51.2245C39.2329 51.2245 50.4258 40.0316 50.4258 26.2245C50.4258 12.4174 39.2329 1.22449 25.4258 1.22449C11.6187 1.22449 0.425781 12.4174 0.425781 26.2245C0.425781 40.0316 11.6187 51.2245 25.4258 51.2245Z" fill="#F0F0F0"/>
<path d="M25.4266 1.22449C15.515 1.22449 6.95097 6.99255 2.90723 15.355H47.9458C43.9021 6.99255 35.338 1.22449 25.4266 1.22449Z" fill="#D80027"/>
<path d="M25.4266 51.2245C35.338 51.2245 43.9021 45.4564 47.9459 37.094H2.90723C6.95097 45.4564 15.515 51.2245 25.4266 51.2245Z" fill="#D80027"/>
<path d="M31.9479 30.5723L25.4261 18.6157L18.9043 30.5723H23.7956V33.8331H27.0565V30.5723H31.9479Z" fill="#6DA544"/>
</svg>
