<svg width="51" height="52" viewBox="0 0 51 52" fill="none" xmlns="http://www.w3.org/2000/svg">
<path d="M25.4258 51.2245C39.2329 51.2245 50.4258 40.0316 50.4258 26.2245C50.4258 12.4174 39.2329 1.22449 25.4258 1.22449C11.6187 1.22449 0.425781 12.4174 0.425781 26.2245C0.425781 40.0316 11.6187 51.2245 25.4258 51.2245Z" fill="#F0F0F0"/>
<path d="M50.4254 26.2242C50.4254 16.3126 44.6573 7.74858 36.2949 3.70483V48.7434C44.6573 44.6997 50.4254 36.1357 50.4254 26.2242Z" fill="#D80027"/>
<path d="M0.425781 26.2242C0.425781 36.1357 6.19385 44.6997 14.5562 48.7435V3.70483C6.19385 7.74858 0.425781 16.3126 0.425781 26.2242Z" fill="#6DA544"/>
<path d="M18.9043 26.2241C18.9043 29.826 21.8242 32.7459 25.4261 32.7459C29.0279 32.7459 31.9479 29.826 31.9479 26.2241V24.0502H18.9043V26.2241Z" fill="#6DA544"/>
<path d="M34.1219 21.8768H27.6001C27.6001 20.6762 26.6268 19.7029 25.4262 19.7029C24.2256 19.7029 23.2522 20.6762 23.2522 21.8768H16.7305C16.7305 23.0775 17.7763 24.0507 18.9768 24.0507H18.9044C18.9044 25.2514 19.8776 26.2247 21.0783 26.2247C21.0783 27.4253 22.0516 28.3986 23.2522 28.3986H27.6001C28.8008 28.3986 29.774 27.4253 29.774 26.2247C30.9747 26.2247 31.948 25.2514 31.948 24.0507H31.8755C33.0762 24.0507 34.1219 23.0775 34.1219 21.8768Z" fill="#FF9811"/>
</svg>
