<svg width="51" height="52" viewBox="0 0 51 52" fill="none" xmlns="http://www.w3.org/2000/svg">
<path d="M25.4258 51.2245C39.2329 51.2245 50.4258 40.0316 50.4258 26.2245C50.4258 12.4174 39.2329 1.22449 25.4258 1.22449C11.6187 1.22449 0.425781 12.4174 0.425781 26.2245C0.425781 40.0316 11.6187 51.2245 25.4258 51.2245Z" fill="#F0F0F0"/>
<path d="M24.3389 26.224H50.4258C50.4258 23.9674 50.125 21.7817 49.5646 19.7021H24.3389V26.224Z" fill="#D80027"/>
<path d="M24.3389 13.1807H46.7565C45.2261 10.6834 43.2695 8.47612 40.988 6.65894H24.3389V13.1807Z" fill="#D80027"/>
<path d="M25.4265 51.2241C31.3101 51.2241 36.7181 49.1905 40.9887 45.7893H9.86426C14.1349 49.1905 19.5428 51.2241 25.4265 51.2241Z" fill="#D80027"/>
<path d="M4.09522 39.2679H46.7565C47.9852 37.2632 48.9379 35.0717 49.5647 32.7461H1.28711C1.91377 35.0717 2.8666 37.2632 4.09522 39.2679Z" fill="#D80027"/>
<path d="M25.4258 26.2245C25.4258 12.4175 25.4258 10.7897 25.4258 1.22449C11.6187 1.22449 0.425781 12.4175 0.425781 26.2245H25.4258Z" fill="#0052B4"/>
<path d="M17.0499 22.6239C13.6357 22.6239 10.8679 19.856 10.8679 16.4418C10.8679 13.0277 13.6358 10.2598 17.0499 10.2598C18.1145 10.2598 19.1161 10.5291 19.9906 11.0029C18.6188 9.66138 16.7426 8.83325 14.6722 8.83325C10.4701 8.83325 7.06348 12.2398 7.06348 16.4419C7.06348 20.6441 10.4701 24.0506 14.6722 24.0506C16.7426 24.0506 18.6188 23.2225 19.9906 21.881C19.1161 22.3546 18.1146 22.6239 17.0499 22.6239Z" fill="#FFDA44"/>
<path d="M18.7928 12.094L19.8903 14.3891L22.3689 13.8165L21.259 16.1054L23.2523 17.6862L20.7705 18.2457L20.7774 20.7897L18.7928 19.1981L16.808 20.7897L16.8148 18.2457L14.333 17.6862L16.3264 16.1054L15.2163 13.8165L17.6951 14.3891L18.7928 12.094Z" fill="#FFDA44"/>
</svg>
