<svg width="51" height="52" viewBox="0 0 51 52" fill="none" xmlns="http://www.w3.org/2000/svg">
<path d="M25.4258 51.2245C39.2329 51.2245 50.4258 40.0316 50.4258 26.2245C50.4258 12.4174 39.2329 1.22449 25.4258 1.22449C11.6187 1.22449 0.425781 12.4174 0.425781 26.2245C0.425781 40.0316 11.6187 51.2245 25.4258 51.2245Z" fill="#F0F0F0"/>
<path d="M25.4268 1.22449V26.2245L7.74902 43.9022C12.2731 48.4262 18.5231 51.2245 25.4268 51.2245C39.2338 51.2245 50.4267 40.0315 50.4267 26.2245C50.4267 12.4175 25.4268 1.22449 25.4268 1.22449Z" fill="#D80027"/>
<path d="M25.4268 1.22449C18.5231 1.22449 12.2731 4.02273 7.74902 8.54675C13.8828 14.6805 16.0603 16.8581 25.4268 26.2245H50.4267C50.4267 12.4175 39.2338 1.22449 25.4268 1.22449Z" fill="#0052B4"/>
<path d="M17.5449 26.2243L14.4918 24.7882L16.1177 21.8312L12.8022 22.4655L12.3821 19.1162L10.0728 21.5795L7.76348 19.1162L7.34326 22.4655L4.02793 21.8312L5.65381 24.7882L2.60059 26.2243L5.65381 27.6604L4.02793 30.6174L7.34355 29.9832L7.76338 33.3324L10.0728 30.8691L12.3821 33.3324L12.8022 29.9832L16.1175 30.6175L14.4917 27.6605L17.5449 26.2243Z" fill="#FFDA44"/>
<path d="M7.09375 11.007L8.10977 12.4272L9.77432 11.8999L8.7374 13.305L9.75342 14.7252L8.09658 14.1734L7.05977 15.5783L7.07275 13.8322L5.41602 13.2803L7.08086 12.7531L7.09375 11.007Z" fill="#FFDA44"/>
<path d="M7.09375 36.8706L8.10977 38.2908L9.77432 37.7635L8.7374 39.1687L9.75342 40.5889L8.09658 40.037L7.05977 41.442L7.07275 39.6959L5.41602 39.1439L7.08086 38.6167L7.09375 36.8706Z" fill="#FFDA44"/>
<path d="M21.5849 23.9387L20.5689 25.3589L18.9043 24.8315L19.9412 26.2367L18.9252 27.657L20.582 27.105L21.6189 28.51L21.6059 26.764L23.2626 26.2121L21.5978 25.6848L21.5849 23.9387Z" fill="#FFDA44"/>
</svg>
