<svg width="51" height="52" viewBox="0 0 51 52" fill="none" xmlns="http://www.w3.org/2000/svg">
<path d="M25.4258 51.2245C39.2329 51.2245 50.4258 40.0316 50.4258 26.2245C50.4258 12.4174 39.2329 1.22449 25.4258 1.22449C11.6187 1.22449 0.425781 12.4174 0.425781 26.2245C0.425781 40.0316 11.6187 51.2245 25.4258 51.2245Z" fill="#F0F0F0"/>
<path d="M0.425781 26.2243C0.425781 35.7003 5.69814 43.9444 13.4692 48.1845V4.26404C5.69814 8.50417 0.425781 16.7482 0.425781 26.2243Z" fill="#F0F0F0"/>
<path d="M25.4272 1.22449C21.0962 1.22449 17.0226 2.32634 13.4707 4.26423V48.1846C17.0226 50.1226 21.0962 51.2245 25.4272 51.2245C39.2343 51.2245 50.4272 40.0315 50.4272 26.2245C50.4272 12.4175 39.2343 1.22449 25.4272 1.22449Z" fill="#496E2D"/>
<path d="M36.1148 30.3591C32.952 32.6444 28.5354 31.933 26.2503 28.7703C23.9649 25.6074 24.6763 21.1909 27.8391 18.9058C28.8253 18.1933 29.9333 17.7721 31.0605 17.6257C28.8919 17.3014 26.5994 17.79 24.6817 19.1757C20.7891 21.9884 19.9134 27.424 22.726 31.3168C25.5386 35.2093 30.9744 36.0851 34.8672 33.2722C36.785 31.8865 37.9687 29.8638 38.3416 27.7027C37.8488 28.7268 37.101 29.6465 36.1148 30.3591Z" fill="#F0F0F0"/>
<path d="M35.98 17.5293L37.7616 19.4493L40.1382 18.3485L38.8625 20.636L40.644 22.5563L38.0741 22.0499L36.7985 24.3376L36.4859 21.737L33.916 21.2307L36.2927 20.1299L35.98 17.5293Z" fill="#F0F0F0"/>
</svg>
