<svg width="51" height="52" viewBox="0 0 51 52" fill="none" xmlns="http://www.w3.org/2000/svg">
<path d="M34.1228 2.77937C31.4144 1.77459 28.4852 1.22449 25.4271 1.22449C22.3691 1.22439 19.4398 1.77459 16.7315 2.77937L14.5576 26.2244L16.7315 49.6694C19.4397 50.6745 22.369 51.2245 25.4271 51.2245C28.4851 51.2245 31.4145 50.6745 34.1228 49.6694L36.2966 26.2245L34.1228 2.77937Z" fill="#FFDA44"/>
<path d="M50.4265 26.2244C50.4265 15.4754 43.6421 6.31164 34.1221 2.77942V49.6696C43.6421 46.137 50.4264 36.9736 50.4265 26.2244Z" fill="#D80027"/>
<path d="M0.425781 26.2242C0.425781 36.9735 7.21016 46.1369 16.73 49.6694L16.7301 2.77942C7.21016 6.31164 0.425781 15.4751 0.425781 26.2242H0.425781Z" fill="#0052B4"/>
</svg>
