<svg width="51" height="52" viewBox="0 0 51 52" fill="none" xmlns="http://www.w3.org/2000/svg">
<path d="M25.4258 51.2245C39.2329 51.2245 50.4258 40.0316 50.4258 26.2245C50.4258 12.4174 39.2329 1.22449 25.4258 1.22449C11.6187 1.22449 0.425781 12.4174 0.425781 26.2245C0.425781 40.0316 11.6187 51.2245 25.4258 51.2245Z" fill="#F0F0F0"/>
<path d="M48.8708 17.5286H1.98076C0.975781 20.2369 0.425781 23.1662 0.425781 26.2242C0.425781 29.2822 0.975781 32.2115 1.98076 34.9198H48.8709C49.8758 32.2115 50.4258 29.2822 50.4258 26.2242C50.4258 23.1662 49.8758 20.2369 48.8708 17.5286Z" fill="#0052B4"/>
<path d="M25.4259 1.22449C17.8486 1.22449 11.0593 4.59597 6.47461 9.92009H44.3771C39.7925 4.59597 33.0031 1.22449 25.4259 1.22449Z" fill="#D80027"/>
<path d="M44.3772 42.5286H6.47461C11.0593 47.8527 17.8486 51.2242 25.4259 51.2242C33.0031 51.2242 39.7925 47.8527 44.3772 42.5286Z" fill="#D80027"/>
</svg>
