<svg width="51" height="52" viewBox="0 0 51 52" fill="none" xmlns="http://www.w3.org/2000/svg">
<path d="M25.4258 51.2245C39.2329 51.2245 50.4258 40.0316 50.4258 26.2245C50.4258 12.4174 39.2329 1.22449 25.4258 1.22449C11.6187 1.22449 0.425781 12.4174 0.425781 26.2245C0.425781 40.0316 11.6187 51.2245 25.4258 51.2245Z" fill="#D80027"/>
<path d="M24.4033 21.6522L26.4546 24.4789L29.7766 23.4017L27.7221 26.226L29.773 29.0525L26.4522 27.9713L24.3979 30.7955L24.4 27.3032L21.0791 26.2219L24.4012 25.1448L24.4033 21.6522Z" fill="#F0F0F0"/>
<path d="M18.8046 33.2895C14.9026 33.2895 11.7394 30.1262 11.7394 26.2243C11.7394 22.3223 14.9026 19.159 18.8046 19.159C20.0212 19.159 21.1659 19.4667 22.1653 20.0083C20.5975 18.4749 18.4532 17.5286 16.0872 17.5286C11.2847 17.5286 7.3916 21.4217 7.3916 26.2242C7.3916 31.0266 11.2848 34.9198 16.0872 34.9198C18.4534 34.9198 20.5976 33.9734 22.1653 32.4401C21.1659 32.9818 20.0212 33.2895 18.8046 33.2895Z" fill="#F0F0F0"/>
</svg>
