<svg width="51" height="52" viewBox="0 0 51 52" fill="none" xmlns="http://www.w3.org/2000/svg">
<path d="M25.4258 51.2245C39.2329 51.2245 50.4258 40.0316 50.4258 26.2245C50.4258 12.4174 39.2329 1.22449 25.4258 1.22449C11.6187 1.22449 0.425781 12.4174 0.425781 26.2245C0.425781 40.0316 11.6187 51.2245 25.4258 51.2245Z" fill="#F0F0F0"/>
<path d="M25.4258 19.7031H49.5646C48.9377 17.3775 47.985 15.186 46.7564 13.1813H25.4258V19.7031Z" fill="#338AF3"/>
<path d="M9.86416 45.7895H40.9885C43.27 43.9723 45.2266 41.7651 46.7569 39.2677H4.0957C5.62607 41.765 7.58271 43.9723 9.86416 45.7895Z" fill="#338AF3"/>
<path d="M25.4258 1.22449V6.65925H40.988C36.7175 3.25808 31.3095 1.22449 25.4258 1.22449Z" fill="#338AF3"/>
<path d="M25.4258 19.7031H49.5646C48.9377 17.3775 47.985 15.186 46.7564 13.1813H25.4258V19.7031Z" fill="#338AF3"/>
<path d="M0.425781 26.2245C0.425781 28.481 0.726563 30.6668 1.28701 32.7463H49.5646C50.125 30.6668 50.4258 28.481 50.4258 26.2245H0.425781Z" fill="#338AF3"/>
<path d="M22.165 15.8551L19.1117 17.2913L20.7376 20.2483L17.4222 19.6142L17.002 22.9633L14.6929 20.5L12.3835 22.9633L11.9635 19.6142L8.64805 20.2481L10.2738 17.2912L7.2207 15.8551L10.2739 14.419L8.64805 11.462L11.9634 12.0962L12.3836 8.74707L14.6929 11.2104L17.0021 8.74707L17.4222 12.0962L20.7377 11.462L19.1118 14.4191L22.165 15.8551Z" fill="#FFDA44"/>
</svg>
