<svg width="51" height="52" viewBox="0 0 51 52" fill="none" xmlns="http://www.w3.org/2000/svg">
<path d="M47.9451 37.0943C49.5345 33.8075 50.4258 30.1203 50.4258 26.2247C50.4258 22.3291 49.5345 18.6419 47.9451 15.3552L25.4258 13.1813L2.90645 15.3552C1.31709 18.6419 0.425781 22.3291 0.425781 26.2247C0.425781 30.1203 1.31709 33.8075 2.90645 37.0943L25.4258 39.2682L47.9451 37.0943Z" fill="#0052B4"/>
<path d="M25.4266 51.2246C35.338 51.2246 43.9021 45.4565 47.9459 37.0941H2.90723C6.95097 45.4565 15.515 51.2246 25.4266 51.2246Z" fill="#D80027"/>
<path d="M43.7235 31.1319L42.4031 32.1638L42.9762 33.7381L41.5868 32.8013L40.2663 33.8329L40.728 32.2221L39.3389 31.285L41.0136 31.2266L41.4757 29.6157L42.0489 31.1903L43.7235 31.1319Z" fill="#F0F0F0"/>
<path d="M40.3421 25.2754L39.4543 26.6966L40.5315 27.98L38.9055 27.5751L38.0174 28.9959L37.9003 27.3243L36.2744 26.9188L37.8283 26.2909L37.7115 24.6193L38.7886 25.9032L40.3421 25.2754Z" fill="#F0F0F0"/>
<path d="M35.1617 20.9282L34.8135 22.5674L36.2646 23.4053L34.5981 23.581L34.2497 25.2196L33.5681 23.689L31.9014 23.8639L33.1469 22.7426L32.4653 21.2119L33.9165 22.0496L35.1617 20.9282Z" fill="#F0F0F0"/>
<path d="M28.807 18.6157L29.0405 20.2752L30.6906 20.566L29.1846 21.301L29.4179 22.9604L28.2538 21.7549L26.7474 22.4895L27.5343 21.0097L26.3701 19.8044L28.0205 20.0953L28.807 18.6157Z" fill="#F0F0F0"/>
<path d="M22.0446 18.6157L22.8314 20.0953L24.4814 19.8042L23.3177 21.01L24.1041 22.4896L22.598 21.7549L21.4338 22.9601L21.6673 21.301L20.1611 20.5664L21.8114 20.2752L22.0446 18.6157Z" fill="#F0F0F0"/>
<path d="M15.6905 20.9282L16.936 22.0496L18.3869 21.2119L17.7056 22.7432L18.9508 23.8643L17.2843 23.689L16.6024 25.2196L16.2545 23.5807L14.5879 23.4057L16.0391 22.5676L15.6905 20.9282Z" fill="#F0F0F0"/>
<path d="M10.5103 25.2751L12.0643 25.9029L13.141 24.6193L13.0245 26.2912L14.578 26.9191L12.9521 27.3242L12.8351 28.9956L11.9474 27.5748L10.3213 27.98L11.3984 26.6963L10.5103 25.2751Z" fill="#F0F0F0"/>
<path d="M7.12891 31.1319L8.80391 31.1903L9.37676 29.6158L9.83916 31.2268L11.5137 31.2853L10.1244 32.2224L10.5861 33.8331L9.26582 32.8015L7.87646 33.7383L8.44961 32.1637L7.12891 31.1319Z" fill="#F0F0F0"/>
<path d="M47.9459 15.355C43.9021 6.99255 35.338 1.22449 25.4266 1.22449C15.515 1.22449 6.95097 6.99255 2.90723 15.355H47.9459Z" fill="#FFDA44"/>
</svg>
