<svg width="51" height="52" viewBox="0 0 51 52" fill="none" xmlns="http://www.w3.org/2000/svg">
<path d="M25.4258 51.2245C39.2329 51.2245 50.4258 40.0316 50.4258 26.2245C50.4258 12.4174 39.2329 1.22449 25.4258 1.22449C11.6187 1.22449 0.425781 12.4174 0.425781 26.2245C0.425781 40.0316 11.6187 51.2245 25.4258 51.2245Z" fill="#F0F0F0"/>
<path d="M7.74809 43.9018C-2.01499 34.1387 -2.01499 18.3096 7.74809 8.54639C7.74741 8.54746 22.165 26.2241 22.165 26.2241L7.74809 43.9018Z" fill="black"/>
<path d="M22.1655 26.2248L3.74209 13.7749C3.1709 14.7678 2.66719 15.8041 2.23438 16.8768L11.5614 26.2249L2.23467 35.5735C2.66709 36.6454 3.17031 37.6811 3.74111 38.6732L22.1655 26.2248Z" fill="#FFDA44"/>
<path d="M50.2149 22.9637H22.1649L7.74854 8.54724C6.19502 10.1008 4.84531 11.8577 3.74219 13.7748L16.1679 26.2246L3.74121 38.6728C4.84434 40.5904 6.19463 42.3479 7.74854 43.9018L22.1649 29.4854H50.2149C50.3538 28.418 50.4265 27.3298 50.4265 26.2246C50.4265 25.1194 50.3538 24.0311 50.2149 22.9637Z" fill="#6DA544"/>
<path d="M10.2061 46.0561C14.4218 49.2965 19.6988 51.2243 25.427 51.2243C36.9776 51.2243 46.697 43.3902 49.5657 32.7461H23.5161L10.2061 46.0561Z" fill="#0052B4"/>
<path d="M49.5657 19.7027C46.697 9.05857 36.9776 1.22449 25.427 1.22449C19.6988 1.22449 14.4218 3.15232 10.2061 6.39275L23.516 19.7027H49.5657Z" fill="#D80027"/>
</svg>
