<svg width="32" height="32" viewBox="0 0 32 32" fill="none" xmlns="http://www.w3.org/2000/svg">
<g clip-path="url(#clip0_4637_2443)">
<path d="M16 0C24.8374 0 32 7.16407 32 16C32 24.8374 24.8374 32 16 32C7.16407 32 0 24.8366 0 16C0 7.16407 7.16407 0 16 0Z" fill="#F5AC37"/>
<path d="M16.5893 17.1296H22.669C22.7986 17.1296 22.8598 17.1296 22.8692 16.9597C22.9189 16.3412 22.9189 15.7191 22.8692 15.0999C22.8692 14.9796 22.8094 14.93 22.6791 14.93H10.5794C10.4296 14.93 10.3893 14.9796 10.3893 15.12V16.8999C10.3893 17.1296 10.3893 17.1296 10.6291 17.1296H16.5893ZM22.1902 12.8499C22.2075 12.8045 22.2075 12.7548 22.1902 12.7102C22.0887 12.4891 21.9684 12.2782 21.8288 12.0802C21.6185 11.7418 21.3708 11.43 21.0886 11.1499C20.9554 10.9807 20.8013 10.8288 20.6285 10.6999C19.7631 9.96335 18.7342 9.44206 17.6282 9.17998C17.0702 9.0547 16.5 8.99494 15.9283 8.99998H10.5585C10.4087 8.99998 10.3886 9.05974 10.3886 9.19006V12.7397C10.3886 12.8895 10.3886 12.9298 10.5786 12.9298H22.1182C22.1182 12.9298 22.2183 12.9096 22.2384 12.8499H22.1895H22.1902ZM22.1902 19.2097C22.0203 19.191 21.8489 19.191 21.679 19.2097H10.5895C10.4397 19.2097 10.3893 19.2097 10.3893 19.4098V22.8803C10.3893 23.0401 10.3893 23.0804 10.5895 23.0804H15.7094C15.9542 23.0992 16.199 23.0819 16.4388 23.0308C17.1818 22.9775 17.9126 22.8162 18.6096 22.5505C18.8631 22.4627 19.1079 22.3482 19.339 22.2107H19.4088C20.6091 21.5864 21.584 20.6058 22.1988 19.4019C22.1988 19.4019 22.2687 19.2507 22.1902 19.2111V19.2097ZM8.37975 24.8797V24.82V22.49V21.7002V19.3501C8.37975 19.2198 8.37975 19.2003 8.21991 19.2003H6.0498C5.92956 19.2003 5.87988 19.2003 5.87988 19.0405V17.1404H8.19975C8.32935 17.1404 8.37975 17.1404 8.37975 16.9705V15.0905C8.37975 14.9703 8.37975 14.9408 8.21991 14.9408H6.0498C5.92956 14.9408 5.87988 14.9408 5.87988 14.7809V13.0212C5.87988 12.9111 5.87988 12.8815 6.03972 12.8815H8.18967C8.33943 12.8815 8.37975 12.8815 8.37975 12.6915V7.30148C8.37975 7.14164 8.37975 7.10132 8.57991 7.10132H16.0795C16.6238 7.12292 17.1646 7.18268 17.6995 7.28132C18.8019 7.48508 19.861 7.87893 20.8294 8.44125C21.4716 8.81926 22.0628 9.27574 22.5891 9.80135C22.9851 10.2125 23.3422 10.6574 23.659 11.1312C23.9737 11.6114 24.235 12.1248 24.4402 12.6612C24.4654 12.8009 24.5993 12.8952 24.739 12.8715H26.529C26.7586 12.8715 26.7587 12.8715 26.7687 13.0918V14.732C26.7687 14.8918 26.709 14.9321 26.5484 14.9321H25.1682C25.0285 14.9321 24.9882 14.9321 24.9982 15.1121C25.053 15.7212 25.053 16.3325 24.9982 16.9417C24.9982 17.1116 24.9982 17.1317 25.189 17.1317H26.768C26.8379 17.2217 26.768 17.3117 26.768 17.4025C26.7781 17.5184 26.7781 17.6357 26.768 17.7517V18.962C26.768 19.1319 26.7183 19.1823 26.5679 19.1823H24.6778C24.5461 19.1571 24.4179 19.2414 24.3877 19.3724C23.9377 20.5424 23.2177 21.5915 22.2874 22.4324C21.9476 22.7384 21.5904 23.0264 21.2175 23.2921C20.8172 23.5225 20.4276 23.7623 20.0172 23.9524C19.2619 24.2922 18.4699 24.5428 17.657 24.7019C16.8852 24.8401 16.1025 24.9028 15.317 24.892H8.37687V24.8819L8.37975 24.8797Z" fill="#FEFEFD"/>
</g>
<defs>
<clipPath id="clip0_4637_2443">
<rect width="32" height="32" fill="white"/>
</clipPath>
</defs>
</svg>
